SplineFontDB: 3.2
FontName: FdSymbolD-Book
FullName: FdSymbolD-Book
FamilyName: FdSymbolD
Weight: Book
Copyright: Copyright (c) 2012, Michael Ummels. This Font Software is licensed under the SIL Open Font License, Version 1.1.
Version: 1.008
ItalicAngle: 0
UnderlinePosition: -100
UnderlineWidth: 50
Ascent: 800
Descent: 200
InvalidEm: 0
LayerCount: 2
Layer: 0 0 "Back" 1
Layer: 1 0 "Fore" 0
OS2Version: 0
OS2_WeightWidthSlopeOnly: 0
OS2_UseTypoMetrics: 0
CreationTime: 1739777135
ModificationTime: 1739777135
OS2TypoAscent: 0
OS2TypoAOffset: 1
OS2TypoDescent: 0
OS2TypoDOffset: 1
OS2TypoLinegap: 0
OS2WinAscent: 0
OS2WinAOffset: 1
OS2WinDescent: 0
OS2WinDOffset: 1
HheadAscent: 0
HheadAOffset: 1
HheadDescent: 0
HheadDOffset: 1
OS2Vendor: 'PfEd'
DEI: 91125
Encoding: Custom
UnicodeInterp: none
NameList: AGL For New Fonts
DisplaySize: -48
AntiAlias: 1
FitToEm: 0
BeginPrivate: 2
BlueValues 31 [-10 0 546 556 707 717 754 764]
OtherBlues 11 [-230 -220]
EndPrivate
BeginChars: 256 232

StartChar: uni219B
Encoding: 0 8603 0
Width: 930
Flags: HW
HStem: 268 64<90 350 436 731> 533 20G<446.76 509>
LayerCount: 2
Fore
SplineSet
454 553 m 1
 509 533 l 1
 436 332 l 1
 731 332 l 1
 641 421 l 1
 687 467 l 1
 853 300 l 1
 687 133 l 1
 641 179 l 1
 731 268 l 1
 412 268 l 1
 332 47 l 1
 277 67 l 1
 350 268 l 1
 90 268 l 1
 90 332 l 1
 374 332 l 1
 454 553 l 1
EndSplineSet
EndChar

StartChar: uni21910338
Encoding: 1 -1 1
Width: 676
Flags: HW
VStem: 306 64<-75 185 271 566>
LayerCount: 2
Fore
SplineSet
105 112 m 1
 85 167 l 1
 306 247 l 1
 306 566 l 1
 217 476 l 1
 171 522 l 1
 338 688 l 1
 505 522 l 1
 459 476 l 1
 370 566 l 1
 370 271 l 1
 571 344 l 1
 591 289 l 1
 370 209 l 1
 370 -75 l 1
 306 -75 l 1
 306 185 l 1
 105 112 l 1
EndSplineSet
EndChar

StartChar: uni219A
Encoding: 2 8602 2
Width: 930
Flags: HW
HStem: 268 64<199 494 580 840> 533 20G<590.76 653>
LayerCount: 2
Fore
SplineSet
476 47 m 1
 421 67 l 1
 494 268 l 1
 199 268 l 1
 289 179 l 1
 243 133 l 1
 77 300 l 1
 243 467 l 1
 289 421 l 1
 199 332 l 1
 518 332 l 1
 598 553 l 1
 653 533 l 1
 580 332 l 1
 840 332 l 1
 840 268 l 1
 556 268 l 1
 476 47 l 1
EndSplineSet
EndChar

StartChar: uni21930338
Encoding: 3 -1 3
Width: 676
Flags: HW
VStem: 306 64<34 329 415 675>
LayerCount: 2
Fore
SplineSet
571 488 m 1
 591 433 l 1
 370 353 l 1
 370 34 l 1
 459 124 l 1
 505 78 l 1
 338 -88 l 1
 171 78 l 1
 217 124 l 1
 306 34 l 1
 306 329 l 1
 105 256 l 1
 85 311 l 1
 306 391 l 1
 306 675 l 1
 370 675 l 1
 370 415 l 1
 571 488 l 1
EndSplineSet
EndChar

StartChar: uni21970338
Encoding: 4 -1 4
Width: 1061
Flags: HW
HStem: 511 64<569 696>
VStem: 741 64<339 465>
LayerCount: 2
Fore
SplineSet
344 471 m 1
 396 496 l 1
 487 301 l 1
 696 511 l 1
 569 511 l 1
 569 575 l 1
 805 575 l 1
 805 339 l 1
 741 339 l 1
 741 465 l 1
 516 240 l 1
 615 27 l 1
 563 2 l 1
 472 196 l 1
 288 12 l 1
 243 57 l 1
 444 258 l 1
 344 471 l 1
EndSplineSet
EndChar

StartChar: uni21960338
Encoding: 5 -1 5
Width: 1061
Flags: HW
HStem: 511 64<365 492>
VStem: 256 64<339 465>
LayerCount: 2
Fore
SplineSet
498 2 m 1
 446 27 l 1
 545 240 l 1
 320 465 l 1
 320 339 l 1
 256 339 l 1
 256 575 l 1
 492 575 l 1
 492 511 l 1
 365 511 l 1
 574 301 l 1
 665 496 l 1
 717 471 l 1
 617 258 l 1
 818 57 l 1
 773 12 l 1
 589 196 l 1
 498 2 l 1
EndSplineSet
EndChar

StartChar: uni21990338
Encoding: 6 -1 6
Width: 1061
Flags: HW
HStem: 25 64<365 492>
VStem: 256 64<135 261>
LayerCount: 2
Fore
SplineSet
717 129 m 1
 665 104 l 1
 574 299 l 1
 365 89 l 1
 492 89 l 1
 492 25 l 1
 256 25 l 1
 256 261 l 1
 320 261 l 1
 320 135 l 1
 545 360 l 1
 446 573 l 1
 498 598 l 1
 589 404 l 1
 773 588 l 1
 818 543 l 1
 617 342 l 1
 717 129 l 1
EndSplineSet
EndChar

StartChar: uni21980338
Encoding: 7 -1 7
Width: 1061
Flags: HW
HStem: 25 64<569 696>
VStem: 741 64<135 261>
LayerCount: 2
Fore
SplineSet
563 598 m 1
 615 573 l 1
 516 360 l 1
 741 135 l 1
 741 261 l 1
 805 261 l 1
 805 25 l 1
 569 25 l 1
 569 89 l 1
 696 89 l 1
 487 299 l 1
 396 104 l 1
 344 129 l 1
 444 342 l 1
 243 543 l 1
 288 588 l 1
 472 404 l 1
 563 598 l 1
EndSplineSet
EndChar

StartChar: uni21CF
Encoding: 8 8655 8
Width: 1080
Flags: HW
HStem: -11 21G<260 321.302> 178 64<90 321 406 791> 358 64<90 386 472 791>
LayerCount: 2
Fore
SplineSet
855 358 m 1
 448 358 l 1
 406 242 l 1
 855 242 l 1
 913 300 l 1
 855 358 l 1
478 611 m 1
 533 591 l 1
 472 422 l 1
 791 422 l 1
 748 465 l 1
 793 510 l 1
 1003 300 l 1
 793 90 l 1
 748 135 l 1
 791 178 l 1
 383 178 l 1
 314 -11 l 1
 260 9 l 1
 321 178 l 1
 90 178 l 1
 90 242 l 1
 344 242 l 1
 386 358 l 1
 90 358 l 1
 90 422 l 1
 410 422 l 1
 478 611 l 1
EndSplineSet
EndChar

StartChar: uni21D10338
Encoding: 9 -1 9
Width: 791
Flags: HW
HStem: 743 20G<376 415.905>
VStem: 274 64<-150 81 166 551> 454 64<-150 147 231 550>
LayerCount: 2
Fore
SplineSet
338 615 m 1
 338 166 l 1
 454 208 l 1
 454 615 l 1
 396 673 l 1
 338 615 l 1
105 20 m 1
 85 74 l 1
 274 143 l 1
 274 551 l 1
 231 508 l 1
 186 553 l 1
 396 763 l 1
 605 553 l 1
 560 508 l 1
 518 550 l 1
 518 231 l 1
 686 292 l 1
 706 238 l 1
 518 170 l 1
 518 -150 l 1
 454 -150 l 1
 454 147 l 1
 338 105 l 1
 338 -150 l 1
 274 -150 l 1
 274 81 l 1
 105 20 l 1
EndSplineSet
EndChar

StartChar: uni21CD
Encoding: 10 8653 10
Width: 1080
Flags: HW
HStem: -11 21G<548 609.302> 178 64<289 609 694 990> 358 64<289 674 760 990>
LayerCount: 2
Fore
SplineSet
225 242 m 1
 632 242 l 1
 674 358 l 1
 225 358 l 1
 167 300 l 1
 225 242 l 1
602 -11 m 1
 548 9 l 1
 609 178 l 1
 289 178 l 1
 332 135 l 1
 287 90 l 1
 77 300 l 1
 287 510 l 1
 332 465 l 1
 289 422 l 1
 698 422 l 1
 766 611 l 1
 821 591 l 1
 760 422 l 1
 990 422 l 1
 990 358 l 1
 736 358 l 1
 694 242 l 1
 990 242 l 1
 990 178 l 1
 671 178 l 1
 602 -11 l 1
EndSplineSet
EndChar

StartChar: uni21D30338
Encoding: 11 -1 11
Width: 791
Flags: HW
VStem: 274 64<49 369 454 750> 454 64<50 435 519 750>
LayerCount: 2
Fore
SplineSet
454 -15 m 1
 454 435 l 1
 338 393 l 1
 338 -15 l 1
 396 -73 l 1
 454 -15 l 1
686 580 m 1
 706 526 l 1
 518 458 l 1
 518 50 l 1
 560 92 l 1
 605 47 l 1
 396 -163 l 1
 186 47 l 1
 231 92 l 1
 274 49 l 1
 274 369 l 1
 105 308 l 1
 85 362 l 1
 274 431 l 1
 274 750 l 1
 338 750 l 1
 338 454 l 1
 454 496 l 1
 454 750 l 1
 518 750 l 1
 518 519 l 1
 686 580 l 1
EndSplineSet
EndChar

StartChar: uni21D70338
Encoding: 12 -1 12
Width: 1249
Flags: HW
HStem: 564 64<655 716 806 888>
VStem: 888 64<331 392 482 564>
LayerCount: 2
Fore
SplineSet
806 564 m 1
 518 276 l 1
 570 164 l 1
 888 482 l 1
 888 564 l 1
 806 564 l 1
361 476 m 1
 413 500 l 1
 489 337 l 1
 716 564 l 1
 655 564 l 1
 655 628 l 1
 952 628 l 1
 952 331 l 1
 888 331 l 1
 888 392 l 1
 599 103 l 1
 684 -80 l 1
 632 -104 l 1
 556 60 l 1
 392 -104 l 1
 347 -59 l 1
 527 121 l 1
 475 233 l 1
 265 23 l 1
 220 68 l 1
 446 294 l 1
 361 476 l 1
EndSplineSet
EndChar

StartChar: uni21D60338
Encoding: 13 -1 13
Width: 1249
Flags: HW
HStem: 564 64<361 442 533 593>
VStem: 297 64<331 391 481 564>
LayerCount: 2
Fore
SplineSet
361 481 m 1
 678 164 l 1
 731 276 l 1
 442 564 l 1
 361 564 l 1
 361 481 l 1
617 -104 m 1
 565 -80 l 1
 650 102 l 1
 361 391 l 1
 361 331 l 1
 297 331 l 1
 297 628 l 1
 593 628 l 1
 593 564 l 1
 533 564 l 1
 759 338 l 1
 835 500 l 1
 887 476 l 1
 803 294 l 1
 1029 68 l 1
 984 23 l 1
 774 233 l 1
 722 120 l 1
 901 -59 l 1
 856 -104 l 1
 693 59 l 1
 617 -104 l 1
EndSplineSet
EndChar

StartChar: uni21D90338
Encoding: 14 -1 14
Width: 1249
Flags: HW
HStem: -28 64<361 442 533 593>
VStem: 297 64<36 119 209 269>
LayerCount: 2
Fore
SplineSet
442 36 m 1
 731 324 l 1
 678 436 l 1
 361 119 l 1
 361 36 l 1
 442 36 l 1
887 124 m 1
 835 100 l 1
 759 262 l 1
 533 36 l 1
 593 36 l 1
 593 -28 l 1
 297 -28 l 1
 297 269 l 1
 361 269 l 1
 361 209 l 1
 650 498 l 1
 565 680 l 1
 617 704 l 1
 693 541 l 1
 856 704 l 1
 901 659 l 1
 722 480 l 1
 774 367 l 1
 984 577 l 1
 1029 532 l 1
 803 306 l 1
 887 124 l 1
EndSplineSet
EndChar

StartChar: uni21D80338
Encoding: 15 -1 15
Width: 1249
Flags: HW
HStem: -28 64<655 716 806 888>
VStem: 888 64<36 118 208 269>
LayerCount: 2
Fore
SplineSet
888 118 m 1
 570 436 l 1
 518 324 l 1
 806 36 l 1
 888 36 l 1
 888 118 l 1
632 704 m 1
 684 680 l 1
 599 497 l 1
 888 208 l 1
 888 269 l 1
 952 269 l 1
 952 -28 l 1
 655 -28 l 1
 655 36 l 1
 716 36 l 1
 489 263 l 1
 413 100 l 1
 361 124 l 1
 446 306 l 1
 220 532 l 1
 265 577 l 1
 475 367 l 1
 527 479 l 1
 347 659 l 1
 392 704 l 1
 556 540 l 1
 632 704 l 1
EndSplineSet
EndChar

StartChar: uni21AE
Encoding: 16 8622 16
Width: 1080
Flags: HW
HStem: 268 64<199 497 583 881> 533 20G<593.76 656>
LayerCount: 2
Fore
SplineSet
601 553 m 1
 656 533 l 1
 583 332 l 1
 881 332 l 1
 791 421 l 1
 837 467 l 1
 1003 300 l 1
 837 133 l 1
 791 179 l 1
 881 268 l 1
 559 268 l 1
 479 47 l 1
 424 67 l 1
 497 268 l 1
 199 268 l 1
 289 179 l 1
 243 133 l 1
 77 300 l 1
 243 467 l 1
 289 421 l 1
 199 332 l 1
 521 332 l 1
 601 553 l 1
EndSplineSet
EndChar

StartChar: uni21950338
Encoding: 17 -1 17
Width: 676
Flags: HW
HStem: 551 21G<197 236.778 439.222 479> 743 20G<317.88 358.12>
VStem: 306 64<-41 257 343 641>
LayerCount: 2
Fore
SplineSet
105 184 m 1
 85 239 l 1
 306 319 l 1
 306 641 l 1
 217 551 l 1
 171 597 l 1
 338 763 l 1
 505 597 l 1
 459 551 l 1
 370 641 l 1
 370 343 l 1
 571 416 l 1
 591 361 l 1
 370 281 l 1
 370 -41 l 1
 459 49 l 1
 505 3 l 1
 338 -163 l 1
 171 3 l 1
 217 49 l 1
 306 -41 l 1
 306 257 l 1
 105 184 l 1
EndSplineSet
EndChar

StartChar: uni29210338
Encoding: 18 -1 18
Width: 1167
Flags: HW
HStem: -28 64<365 492> 527 20G<458.4 509.333> 564 64<675 803>
VStem: 256 64<82 208> 847 64<392 518>
LayerCount: 2
Fore
SplineSet
448 522 m 1
 500 547 l 1
 591 352 l 1
 803 564 l 1
 675 564 l 1
 675 628 l 1
 911 628 l 1
 911 392 l 1
 847 392 l 1
 847 518 l 1
 620 291 l 1
 719 78 l 1
 667 53 l 1
 576 247 l 1
 365 36 l 1
 492 36 l 1
 492 -28 l 1
 256 -28 l 1
 256 208 l 1
 320 208 l 1
 320 82 l 1
 547 309 l 1
 448 522 l 1
EndSplineSet
EndChar

StartChar: uni29220338
Encoding: 19 -1 19
Width: 1167
Flags: HW
HStem: -28 64<675 803> 527 20G<657.619 708.6> 564 64<365 492>
VStem: 256 64<392 518> 847 64<82 208>
LayerCount: 2
Fore
SplineSet
500 53 m 1
 448 78 l 1
 547 291 l 1
 320 518 l 1
 320 392 l 1
 256 392 l 1
 256 628 l 1
 492 628 l 1
 492 564 l 1
 365 564 l 1
 576 353 l 1
 667 547 l 1
 719 522 l 1
 620 309 l 1
 847 82 l 1
 847 208 l 1
 911 208 l 1
 911 -28 l 1
 675 -28 l 1
 675 36 l 1
 803 36 l 1
 591 248 l 1
 500 53 l 1
EndSplineSet
EndChar

StartChar: uni21CE
Encoding: 20 8654 20
Width: 1230
Flags: HW
HStem: -11 21G<479 540.302> 178 64<289 540 625 941> 358 64<289 605 691 941>
LayerCount: 2
Fore
SplineSet
225 358 m 1
 167 300 l 1
 225 242 l 1
 563 242 l 1
 605 358 l 1
 225 358 l 1
1005 358 m 1
 667 358 l 1
 625 242 l 1
 1005 242 l 1
 1063 300 l 1
 1005 358 l 1
697 611 m 1
 752 591 l 1
 691 422 l 1
 941 422 l 1
 898 465 l 1
 943 510 l 1
 1153 300 l 1
 943 90 l 1
 898 135 l 1
 941 178 l 1
 602 178 l 1
 533 -11 l 1
 479 9 l 1
 540 178 l 1
 289 178 l 1
 332 135 l 1
 287 90 l 1
 77 300 l 1
 287 510 l 1
 332 465 l 1
 289 422 l 1
 629 422 l 1
 697 611 l 1
EndSplineSet
EndChar

StartChar: uni21D50338
Encoding: 21 -1 21
Width: 791
Flags: HW
VStem: 274 64<-26 225 310 626> 454 64<-25 291 375 625>
LayerCount: 2
Fore
SplineSet
338 -90 m 1
 396 -148 l 1
 454 -90 l 1
 454 291 l 1
 338 249 l 1
 338 -90 l 1
338 690 m 1
 338 310 l 1
 454 352 l 1
 454 690 l 1
 396 748 l 1
 338 690 l 1
105 164 m 1
 85 218 l 1
 274 287 l 1
 274 626 l 1
 231 583 l 1
 186 628 l 1
 396 838 l 1
 605 628 l 1
 560 583 l 1
 518 625 l 1
 518 375 l 1
 686 436 l 1
 706 382 l 1
 518 314 l 1
 518 -25 l 1
 560 17 l 1
 605 -28 l 1
 396 -238 l 1
 186 -28 l 1
 231 17 l 1
 274 -26 l 1
 274 225 l 1
 105 164 l 1
EndSplineSet
EndChar

StartChar: sym030_uni0338
Encoding: 22 -1 22
Width: 1355
Flags: HW
HStem: -81 64<361 442 533 593> -2 21G<776.617 830.167> 617 64<761 822 912 994>
VStem: 297 64<-17 66 156 216> 994 64<384 444 535 617>
LayerCount: 2
Fore
SplineSet
361 66 m 1
 361 -17 l 1
 442 -17 l 1
 681 222 l 1
 629 334 l 1
 361 66 l 1
912 617 m 1
 673 378 l 1
 725 266 l 1
 994 535 l 1
 994 617 l 1
 912 617 l 1
516 578 m 1
 568 602 l 1
 644 439 l 1
 822 617 l 1
 761 617 l 1
 761 681 l 1
 1058 681 l 1
 1058 384 l 1
 994 384 l 1
 994 444 l 1
 754 204 l 1
 839 22 l 1
 786 -2 l 1
 710 160 l 1
 533 -17 l 1
 593 -17 l 1
 593 -81 l 1
 297 -81 l 1
 297 216 l 1
 361 216 l 1
 361 156 l 1
 601 396 l 1
 516 578 l 1
EndSplineSet
EndChar

StartChar: sym031_uni0338
Encoding: 23 -1 23
Width: 1355
Flags: HW
HStem: -81 64<761 822 912 994> -2 21G<524.667 577.325> 617 64<361 442 533 593>
VStem: 297 64<384 444 534 617> 994 64<-17 65 156 216>
LayerCount: 2
Fore
SplineSet
912 -17 m 1
 994 -17 l 1
 994 65 l 1
 725 334 l 1
 673 222 l 1
 912 -17 l 1
361 534 m 1
 629 266 l 1
 681 378 l 1
 442 617 l 1
 361 617 l 1
 361 534 l 1
568 -2 m 1
 516 22 l 1
 601 204 l 1
 361 444 l 1
 361 384 l 1
 297 384 l 1
 297 681 l 1
 593 681 l 1
 593 617 l 1
 533 617 l 1
 710 440 l 1
 786 602 l 1
 839 578 l 1
 754 396 l 1
 994 156 l 1
 994 216 l 1
 1058 216 l 1
 1058 -81 l 1
 761 -81 l 1
 761 -17 l 1
 822 -17 l 1
 644 161 l 1
 568 -2 l 1
EndSplineSet
EndChar

StartChar: uni21A00338
Encoding: 24 -1 24
Width: 1118
Flags: HW
HStem: 268 64<90 327 412 684 774 918> 533 20G<423.76 485>
LayerCount: 2
Fore
SplineSet
431 553 m 1
 485 533 l 1
 412 332 l 1
 684 332 l 1
 595 421 l 1
 640 467 l 1
 774 332 l 1
 918 332 l 1
 829 421 l 1
 874 467 l 1
 1041 300 l 1
 874 133 l 1
 829 179 l 1
 918 268 l 1
 774 268 l 1
 640 133 l 1
 595 179 l 1
 684 268 l 1
 388 268 l 1
 308 47 l 1
 254 67 l 1
 327 268 l 1
 90 268 l 1
 90 332 l 1
 351 332 l 1
 431 553 l 1
EndSplineSet
EndChar

StartChar: uni219F0338
Encoding: 25 -1 25
Width: 676
Flags: HW
HStem: -5 21G<97.5926 160.068>
VStem: 306 64<-169 68 153 425 516 660>
LayerCount: 2
Fore
SplineSet
105 -5 m 1
 85 49 l 1
 306 129 l 1
 306 425 l 1
 217 336 l 1
 171 381 l 1
 306 516 l 1
 306 660 l 1
 217 570 l 1
 171 615 l 1
 338 782 l 1
 505 615 l 1
 459 570 l 1
 370 660 l 1
 370 516 l 1
 505 381 l 1
 459 336 l 1
 370 425 l 1
 370 153 l 1
 571 226 l 1
 591 172 l 1
 370 92 l 1
 370 -169 l 1
 306 -169 l 1
 306 68 l 1
 105 -5 l 1
EndSplineSet
EndChar

StartChar: uni219E0338
Encoding: 26 -1 26
Width: 1118
Flags: HW
HStem: 268 64<199 343 434 705 790 1028> 533 20G<801.76 863>
LayerCount: 2
Fore
SplineSet
687 47 m 1
 632 67 l 1
 705 268 l 1
 434 268 l 1
 523 179 l 1
 478 133 l 1
 343 268 l 1
 199 268 l 1
 289 179 l 1
 243 133 l 1
 77 300 l 1
 243 467 l 1
 289 421 l 1
 199 332 l 1
 343 332 l 1
 478 467 l 1
 523 421 l 1
 434 332 l 1
 729 332 l 1
 809 553 l 1
 863 533 l 1
 790 332 l 1
 1028 332 l 1
 1028 268 l 1
 767 268 l 1
 687 47 l 1
EndSplineSet
EndChar

StartChar: uni21A10338
Encoding: 27 -1 27
Width: 676
Flags: HW
VStem: 306 64<-60 84 175 447 532 769>
LayerCount: 2
Fore
SplineSet
571 605 m 1
 591 551 l 1
 370 471 l 1
 370 175 l 1
 459 264 l 1
 505 219 l 1
 370 84 l 1
 370 -60 l 1
 459 30 l 1
 505 -15 l 1
 338 -182 l 1
 171 -15 l 1
 217 30 l 1
 306 -60 l 1
 306 84 l 1
 171 219 l 1
 217 264 l 1
 306 175 l 1
 306 447 l 1
 105 374 l 1
 85 428 l 1
 306 508 l 1
 306 769 l 1
 370 769 l 1
 370 532 l 1
 571 605 l 1
EndSplineSet
EndChar

StartChar: sym033_uni0338
Encoding: 28 -1 28
Width: 1194
Flags: HW
HStem: 411 64<536 663> 577 64<702 829>
VStem: 708 64<239 366> 874 64<405 532>
LayerCount: 2
Fore
SplineSet
328 388 m 1
 380 413 l 1
 470 218 l 1
 663 411 l 1
 536 411 l 1
 536 475 l 1
 727 475 l 1
 829 577 l 1
 702 577 l 1
 702 641 l 1
 938 641 l 1
 938 405 l 1
 874 405 l 1
 874 532 l 1
 772 430 l 1
 772 239 l 1
 708 239 l 1
 708 366 l 1
 499 157 l 1
 598 -56 l 1
 546 -80 l 1
 456 114 l 1
 288 -54 l 1
 243 -9 l 1
 427 175 l 1
 328 388 l 1
EndSplineSet
EndChar

StartChar: sym032_uni0338
Encoding: 29 -1 29
Width: 1194
Flags: HW
HStem: 411 64<531 657> 577 64<365 492>
VStem: 256 64<405 531> 422 64<239 365>
LayerCount: 2
Fore
SplineSet
647 -80 m 1
 595 -56 l 1
 695 157 l 1
 486 365 l 1
 486 239 l 1
 422 239 l 1
 422 429 l 1
 320 531 l 1
 320 405 l 1
 256 405 l 1
 256 641 l 1
 492 641 l 1
 492 577 l 1
 365 577 l 1
 467 475 l 1
 657 475 l 1
 657 411 l 1
 531 411 l 1
 723 219 l 1
 814 413 l 1
 866 388 l 1
 767 175 l 1
 951 -9 l 1
 906 -54 l 1
 738 114 l 1
 647 -80 l 1
EndSplineSet
EndChar

StartChar: sym035_uni0338
Encoding: 30 -1 30
Width: 1194
Flags: HW
HStem: -41 64<365 492> 125 64<531 657>
VStem: 256 64<69 195> 422 64<235 361>
LayerCount: 2
Fore
SplineSet
866 212 m 1
 814 187 l 1
 723 381 l 1
 531 189 l 1
 657 189 l 1
 657 125 l 1
 467 125 l 1
 365 23 l 1
 492 23 l 1
 492 -41 l 1
 256 -41 l 1
 256 195 l 1
 320 195 l 1
 320 69 l 1
 422 171 l 1
 422 361 l 1
 486 361 l 1
 486 235 l 1
 695 443 l 1
 595 656 l 1
 647 680 l 1
 738 486 l 1
 906 654 l 1
 951 609 l 1
 767 425 l 1
 866 212 l 1
EndSplineSet
EndChar

StartChar: sym034_uni0338
Encoding: 31 -1 31
Width: 1194
Flags: HW
HStem: -41 64<702 829> 125 64<536 663>
VStem: 708 64<234 361> 874 64<68 195>
LayerCount: 2
Fore
SplineSet
546 680 m 1
 598 656 l 1
 499 443 l 1
 708 234 l 1
 708 361 l 1
 772 361 l 1
 772 170 l 1
 874 68 l 1
 874 195 l 1
 938 195 l 1
 938 -41 l 1
 702 -41 l 1
 702 23 l 1
 829 23 l 1
 727 125 l 1
 536 125 l 1
 536 189 l 1
 663 189 l 1
 470 382 l 1
 380 187 l 1
 328 212 l 1
 427 425 l 1
 243 609 l 1
 288 654 l 1
 456 486 l 1
 546 680 l 1
EndSplineSet
EndChar

StartChar: uni21A30338
Encoding: 32 -1 32
Width: 930
Flags: HW
HStem: 268 64<279 422 508 731> 533 20G<518.76 581>
LayerCount: 2
Fore
SplineSet
526 553 m 1
 581 533 l 1
 508 332 l 1
 731 332 l 1
 641 421 l 1
 687 467 l 1
 853 300 l 1
 687 133 l 1
 641 179 l 1
 731 268 l 1
 484 268 l 1
 404 47 l 1
 349 67 l 1
 422 268 l 1
 279 268 l 1
 145 133 l 1
 99 179 l 1
 221 300 l 1
 99 421 l 1
 145 467 l 1
 279 332 l 1
 446 332 l 1
 526 553 l 1
EndSplineSet
EndChar

StartChar: sym036_uni0338
Encoding: 33 -1 33
Width: 676
Flags: HW
VStem: 306 64<114 257 343 566>
LayerCount: 2
Fore
SplineSet
105 184 m 1
 85 239 l 1
 306 319 l 1
 306 566 l 1
 217 476 l 1
 171 522 l 1
 338 688 l 1
 505 522 l 1
 459 476 l 1
 370 566 l 1
 370 343 l 1
 571 416 l 1
 591 361 l 1
 370 281 l 1
 370 114 l 1
 505 -20 l 1
 459 -66 l 1
 338 56 l 1
 217 -66 l 1
 171 -20 l 1
 306 114 l 1
 306 257 l 1
 105 184 l 1
EndSplineSet
EndChar

StartChar: uni21A20338
Encoding: 34 -1 34
Width: 930
Flags: HW
HStem: 268 64<199 422 508 651> 533 20G<518.76 581>
LayerCount: 2
Fore
SplineSet
404 47 m 1
 349 67 l 1
 422 268 l 1
 199 268 l 1
 289 179 l 1
 243 133 l 1
 77 300 l 1
 243 467 l 1
 289 421 l 1
 199 332 l 1
 446 332 l 1
 526 553 l 1
 581 533 l 1
 508 332 l 1
 651 332 l 1
 785 467 l 1
 831 421 l 1
 709 300 l 1
 831 179 l 1
 785 133 l 1
 651 268 l 1
 484 268 l 1
 404 47 l 1
EndSplineSet
EndChar

StartChar: sym037_uni0338
Encoding: 35 -1 35
Width: 676
Flags: HW
VStem: 306 64<34 257 343 486>
LayerCount: 2
Fore
SplineSet
571 416 m 1
 591 361 l 1
 370 281 l 1
 370 34 l 1
 459 124 l 1
 505 78 l 1
 338 -88 l 1
 171 78 l 1
 217 124 l 1
 306 34 l 1
 306 257 l 1
 105 184 l 1
 85 239 l 1
 306 319 l 1
 306 486 l 1
 171 620 l 1
 217 666 l 1
 338 544 l 1
 459 666 l 1
 505 620 l 1
 370 486 l 1
 370 343 l 1
 571 416 l 1
EndSplineSet
EndChar

StartChar: sym039_uni0338
Encoding: 36 -1 36
Width: 1061
Flags: HW
HStem: 127 64<186 358> 511 64<569 696> 527 20G<405.4 456.381>
VStem: 358 64<-44 127> 741 64<339 465>
LayerCount: 2
Fore
SplineSet
395 522 m 1xd8
 447 547 l 1xb8
 538 353 l 1
 696 511 l 1
 569 511 l 1
 569 575 l 1
 805 575 l 1
 805 339 l 1
 741 339 l 1
 741 465 l 1
 566 291 l 1
 666 78 l 1
 614 53 l 1
 523 248 l 1
 422 147 l 1
 422 -44 l 1
 358 -44 l 1
 358 127 l 1
 186 127 l 1
 186 191 l 1
 376 191 l 1
 494 309 l 1
 395 522 l 1xd8
EndSplineSet
EndChar

StartChar: sym038_uni0338
Encoding: 37 -1 37
Width: 1061
Flags: HW
HStem: 127 64<703 875> 511 64<365 492> 527 20G<604.619 655.6>
VStem: 256 64<339 465> 639 64<-44 127>
LayerCount: 2
Fore
SplineSet
447 53 m 1xb8
 395 78 l 1
 495 291 l 1
 320 465 l 1
 320 339 l 1
 256 339 l 1
 256 575 l 1
 492 575 l 1
 492 511 l 1
 365 511 l 1xd8
 523 353 l 1
 614 547 l 1
 666 522 l 1
 567 309 l 1
 685 191 l 1
 875 191 l 1
 875 127 l 1
 703 127 l 1
 703 -44 l 1
 639 -44 l 1
 639 147 l 1
 538 248 l 1
 447 53 l 1xb8
EndSplineSet
EndChar

StartChar: sym03B_uni0338
Encoding: 38 -1 38
Width: 1061
Flags: HW
HStem: 25 64<365 492> 409 64<703 875> 527 20G<405.4 456.333>
VStem: 256 64<135 261> 639 64<473 644>
LayerCount: 2
Fore
SplineSet
666 78 m 1
 614 53 l 1
 523 247 l 1
 365 89 l 1
 492 89 l 1
 492 25 l 1
 256 25 l 1
 256 261 l 1
 320 261 l 1
 320 135 l 1
 495 309 l 1
 395 522 l 1
 447 547 l 1
 538 352 l 1
 639 453 l 1
 639 644 l 1
 703 644 l 1
 703 473 l 1
 875 473 l 1
 875 409 l 1
 685 409 l 1
 567 291 l 1
 666 78 l 1
EndSplineSet
EndChar

StartChar: sym03A_uni0338
Encoding: 39 -1 39
Width: 1061
Flags: HW
HStem: 25 64<569 696> 409 64<186 358> 527 20G<604.667 655.6>
VStem: 358 64<473 644> 741 64<135 261>
LayerCount: 2
Fore
SplineSet
614 547 m 1
 666 522 l 1
 566 309 l 1
 741 135 l 1
 741 261 l 1
 805 261 l 1
 805 25 l 1
 569 25 l 1
 569 89 l 1
 696 89 l 1
 538 247 l 1
 447 53 l 1
 395 78 l 1
 494 291 l 1
 376 409 l 1
 186 409 l 1
 186 473 l 1
 358 473 l 1
 358 644 l 1
 422 644 l 1
 422 453 l 1
 523 352 l 1
 614 547 l 1
EndSplineSet
EndChar

StartChar: uni21A60338
Encoding: 40 -1 40
Width: 930
Flags: HW
HStem: 268 64<154 350 436 731> 533 20G<446.76 509>
VStem: 90 64<124 268 332 476>
LayerCount: 2
Fore
SplineSet
454 553 m 1
 509 533 l 1
 436 332 l 1
 731 332 l 1
 641 421 l 1
 687 467 l 1
 853 300 l 1
 687 133 l 1
 641 179 l 1
 731 268 l 1
 412 268 l 1
 332 47 l 1
 277 67 l 1
 350 268 l 1
 154 268 l 1
 154 124 l 1
 90 124 l 1
 90 476 l 1
 154 476 l 1
 154 332 l 1
 374 332 l 1
 454 553 l 1
EndSplineSet
EndChar

StartChar: uni21A50338
Encoding: 41 -1 41
Width: 676
Flags: HW
HStem: -75 64<162 306 370 514>
VStem: 306 64<-11 185 271 566>
LayerCount: 2
Fore
SplineSet
105 112 m 1
 85 167 l 1
 306 247 l 1
 306 566 l 1
 217 476 l 1
 171 522 l 1
 338 688 l 1
 505 522 l 1
 459 476 l 1
 370 566 l 1
 370 271 l 1
 571 344 l 1
 591 289 l 1
 370 209 l 1
 370 -11 l 1
 514 -11 l 1
 514 -75 l 1
 162 -75 l 1
 162 -11 l 1
 306 -11 l 1
 306 185 l 1
 105 112 l 1
EndSplineSet
EndChar

StartChar: uni21A40338
Encoding: 42 -1 42
Width: 930
Flags: HW
HStem: 268 64<199 494 580 776> 533 20G<590.76 653>
VStem: 776 64<124 268 332 476>
LayerCount: 2
Fore
SplineSet
476 47 m 1
 421 67 l 1
 494 268 l 1
 199 268 l 1
 289 179 l 1
 243 133 l 1
 77 300 l 1
 243 467 l 1
 289 421 l 1
 199 332 l 1
 518 332 l 1
 598 553 l 1
 653 533 l 1
 580 332 l 1
 776 332 l 1
 776 476 l 1
 840 476 l 1
 840 124 l 1
 776 124 l 1
 776 268 l 1
 556 268 l 1
 476 47 l 1
EndSplineSet
EndChar

StartChar: uni21A70338
Encoding: 43 -1 43
Width: 676
Flags: HW
HStem: 611 64<162 306 370 514>
VStem: 306 64<34 329 415 611>
LayerCount: 2
Fore
SplineSet
571 488 m 1
 591 433 l 1
 370 353 l 1
 370 34 l 1
 459 124 l 1
 505 78 l 1
 338 -88 l 1
 171 78 l 1
 217 124 l 1
 306 34 l 1
 306 329 l 1
 105 256 l 1
 85 311 l 1
 306 391 l 1
 306 611 l 1
 162 611 l 1
 162 675 l 1
 514 675 l 1
 514 611 l 1
 370 611 l 1
 370 415 l 1
 571 488 l 1
EndSplineSet
EndChar

StartChar: uni29070338
Encoding: 44 -1 44
Width: 1080
Flags: HW
HStem: -11 21G<332 393.302> 178 64<154 393 478 791> 358 64<154 458 544 791>
VStem: 90 64<81 178 242 358 422 519>
LayerCount: 2
Fore
SplineSet
855 358 m 1
 520 358 l 1
 478 242 l 1
 855 242 l 1
 913 300 l 1
 855 358 l 1
154 358 m 1
 154 242 l 1
 416 242 l 1
 458 358 l 1
 154 358 l 1
550 611 m 1
 605 591 l 1
 544 422 l 1
 791 422 l 1
 748 465 l 1
 793 510 l 1
 1003 300 l 1
 793 90 l 1
 748 135 l 1
 791 178 l 1
 455 178 l 1
 386 -11 l 1
 332 9 l 1
 393 178 l 1
 154 178 l 1
 154 81 l 1
 90 81 l 1
 90 519 l 1
 154 519 l 1
 154 422 l 1
 482 422 l 1
 550 611 l 1
EndSplineSet
EndChar

StartChar: sym03C_uni0338
Encoding: 45 -1 45
Width: 791
Flags: HW
HStem: -150 64<176 274 338 454 518 615> 743 20G<376 415.905>
VStem: 274 64<-86 153 238 551> 454 64<-86 219 303 550>
LayerCount: 2
Fore
SplineSet
338 615 m 1
 338 238 l 1
 454 280 l 1
 454 615 l 1
 396 673 l 1
 338 615 l 1
338 -86 m 1
 454 -86 l 1
 454 219 l 1
 338 177 l 1
 338 -86 l 1
105 92 m 1
 85 146 l 1
 274 215 l 1
 274 551 l 1
 231 508 l 1
 186 553 l 1
 396 763 l 1
 605 553 l 1
 560 508 l 1
 518 550 l 1
 518 303 l 1
 686 364 l 1
 706 310 l 1
 518 242 l 1
 518 -86 l 1
 615 -86 l 1
 615 -150 l 1
 176 -150 l 1
 176 -86 l 1
 274 -86 l 1
 274 153 l 1
 105 92 l 1
EndSplineSet
EndChar

StartChar: uni29060338
Encoding: 46 -1 46
Width: 1080
Flags: HW
HStem: -11 21G<476 537.302> 178 64<289 537 622 926> 358 64<289 602 688 926>
VStem: 926 64<81 178 242 358 422 519>
LayerCount: 2
Fore
SplineSet
225 242 m 1
 560 242 l 1
 602 358 l 1
 225 358 l 1
 167 300 l 1
 225 242 l 1
926 242 m 1
 926 358 l 1
 664 358 l 1
 622 242 l 1
 926 242 l 1
530 -11 m 1
 476 9 l 1
 537 178 l 1
 289 178 l 1
 332 135 l 1
 287 90 l 1
 77 300 l 1
 287 510 l 1
 332 465 l 1
 289 422 l 1
 626 422 l 1
 694 611 l 1
 749 591 l 1
 688 422 l 1
 926 422 l 1
 926 519 l 1
 990 519 l 1
 990 81 l 1
 926 81 l 1
 926 178 l 1
 599 178 l 1
 530 -11 l 1
EndSplineSet
EndChar

StartChar: sym03D_uni0338
Encoding: 47 -1 47
Width: 791
Flags: HW
HStem: 686 64<176 274 338 454 518 615>
VStem: 274 64<49 297 382 686> 454 64<50 363 447 686>
LayerCount: 2
Fore
SplineSet
454 -15 m 1
 454 363 l 1
 338 321 l 1
 338 -15 l 1
 396 -73 l 1
 454 -15 l 1
454 686 m 1
 338 686 l 1
 338 382 l 1
 454 424 l 1
 454 686 l 1
686 508 m 1
 706 454 l 1
 518 386 l 1
 518 50 l 1
 560 92 l 1
 605 47 l 1
 396 -163 l 1
 186 47 l 1
 231 92 l 1
 274 49 l 1
 274 297 l 1
 105 236 l 1
 85 290 l 1
 274 359 l 1
 274 686 l 1
 176 686 l 1
 176 750 l 1
 615 750 l 1
 615 686 l 1
 518 686 l 1
 518 447 l 1
 686 508 l 1
EndSplineSet
EndChar

StartChar: uni21AA0338
Encoding: 48 -1 48
Width: 930
Flags: HW
HStem: 268 64<158.417 350 436 731> 412 64<158.417 226> 533 20G<446.76 509>
VStem: 90 64<336.405 407.595>
LayerCount: 2
Fore
SplineSet
454 553 m 1
 509 533 l 1
 436 332 l 1
 731 332 l 1
 641 421 l 1
 687 467 l 1
 853 300 l 1
 687 133 l 1
 641 179 l 1
 731 268 l 1
 412 268 l 1
 332 47 l 1
 277 67 l 1
 350 268 l 1
 194 268 l 2
 137 268 90 315 90 372 c 0
 90 429 137 476 194 476 c 2
 226 476 l 1
 226 412 l 1
 194 412 l 2
 172 412 154 394 154 372 c 0
 154 350 172 332 194 332 c 2
 374 332 l 1
 454 553 l 1
EndSplineSet
EndChar

StartChar: sym03E_uni0338
Encoding: 49 -1 49
Width: 676
Flags: HW
HStem: -75 64<230.405 301.595>
VStem: 162 64<-6.5834 61> 306 64<-6.5834 185 271 566>
LayerCount: 2
Fore
SplineSet
105 112 m 1
 85 167 l 1
 306 247 l 1
 306 566 l 1
 217 476 l 1
 171 522 l 1
 338 688 l 1
 505 522 l 1
 459 476 l 1
 370 566 l 1
 370 271 l 1
 571 344 l 1
 591 289 l 1
 370 209 l 1
 370 29 l 2
 370 -28 323 -75 266 -75 c 0
 209 -75 162 -28 162 29 c 2
 162 61 l 1
 226 61 l 1
 226 29 l 2
 226 7 244 -11 266 -11 c 0
 288 -11 306 7 306 29 c 2
 306 185 l 1
 105 112 l 1
EndSplineSet
EndChar

StartChar: uni21A90338.alt
Encoding: 50 -1 50
Width: 930
Flags: HW
HStem: 124 64<704 771.583> 268 64<199 494 580 771.583> 533 20G<590.76 653>
VStem: 776 64<192.405 263.595>
LayerCount: 2
Fore
SplineSet
476 47 m 1
 421 67 l 1
 494 268 l 1
 199 268 l 1
 289 179 l 1
 243 133 l 1
 77 300 l 1
 243 467 l 1
 289 421 l 1
 199 332 l 1
 518 332 l 1
 598 553 l 1
 653 533 l 1
 580 332 l 1
 736 332 l 2
 793 332 840 285 840 228 c 0
 840 171 793 124 736 124 c 2
 704 124 l 1
 704 188 l 1
 736 188 l 2
 758 188 776 206 776 228 c 0
 776 250 758 268 736 268 c 2
 556 268 l 1
 476 47 l 1
EndSplineSet
EndChar

StartChar: sym03F_uni0338.alt
Encoding: 51 -1 51
Width: 676
Flags: HW
HStem: 611 64<374.405 445.595>
VStem: 306 64<34 329 415 606.583> 450 64<539 606.583>
LayerCount: 2
Fore
SplineSet
571 488 m 1
 591 433 l 1
 370 353 l 1
 370 34 l 1
 459 124 l 1
 505 78 l 1
 338 -88 l 1
 171 78 l 1
 217 124 l 1
 306 34 l 1
 306 329 l 1
 105 256 l 1
 85 311 l 1
 306 391 l 1
 306 571 l 2
 306 628 353 675 410 675 c 0
 467 675 514 628 514 571 c 2
 514 539 l 1
 450 539 l 1
 450 571 l 2
 450 593 432 611 410 611 c 0
 388 611 370 593 370 571 c 2
 370 415 l 1
 571 488 l 1
EndSplineSet
EndChar

StartChar: uni29240338.alt
Encoding: 52 -1 52
Width: 1061
Flags: HW
HStem: 55 64<252.96 325.585> 511 64<569 696>
VStem: 184 64<124.415 197.704> 741 64<339 465>
LayerCount: 2
Fore
SplineSet
248 160 m 0
 248 139 265 119 288 119 c 0
 298 119 308 123 316 131 c 2
 443 258 l 1
 344 471 l 1
 396 496 l 1
 487 302 l 1
 696 511 l 1
 569 511 l 1
 569 575 l 1
 805 575 l 1
 805 339 l 1
 741 339 l 1
 741 465 l 1
 516 240 l 1
 615 27 l 1
 563 2 l 1
 472 196 l 1
 362 86 l 2
 342 66 315 55 288 55 c 0
 232 55 184 100 184 159 c 0
 184 186 194 213 214 233 c 2
 237 255 l 1
 282 210 l 1
 260 188 l 2
 252 180 248 170 248 160 c 0
EndSplineSet
EndChar

StartChar: uni29230338
Encoding: 53 -1 53
Width: 1061
Flags: HW
HStem: -47 65<632.628 706.794> 511 64<365 492>
VStem: 256 64<339 465> 711 64<21.8414 96.5781>
LayerCount: 2
Fore
SplineSet
672 18 m 0
 695 18 711 35 711 58 c 0
 711 68 708 78 700 86 c 2
 589 197 l 1
 498 2 l 1
 446 27 l 1
 546 240 l 1
 320 465 l 1
 320 339 l 1
 256 339 l 1
 256 575 l 1
 492 575 l 1
 492 511 l 1
 365 511 l 1
 574 302 l 1
 665 496 l 1
 717 471 l 1
 618 258 l 1
 745 131 l 2
 765 111 775 84 775 58 c 0
 775 0 728 -47 671 -47 c 0
 644 -47 618 -36 598 -16 c 2
 575 7 l 1
 620 52 l 1
 643 29 l 2
 651 21 662 18 672 18 c 0
EndSplineSet
EndChar

StartChar: uni29260338.alt
Encoding: 54 -1 54
Width: 1061
Flags: HW
HStem: 25 64<365 492> 481 64<735.058 808.04>
VStem: 256 64<135 261> 813 64<402.296 475.585>
LayerCount: 2
Fore
SplineSet
813 440 m 0
 813 461 796 481 773 481 c 0
 763 481 753 477 745 469 c 2
 618 342 l 1
 717 129 l 1
 665 104 l 1
 574 298 l 1
 365 89 l 1
 492 89 l 1
 492 25 l 1
 256 25 l 1
 256 261 l 1
 320 261 l 1
 320 135 l 1
 546 360 l 1
 446 573 l 1
 498 598 l 1
 589 403 l 1
 700 514 l 2
 720 534 746 545 773 545 c 0
 829 545 877 500 877 441 c 0
 877 414 867 387 847 367 c 2
 824 345 l 1
 779 390 l 1
 801 412 l 2
 809 420 813 430 813 440 c 0
EndSplineSet
EndChar

StartChar: uni29250338
Encoding: 55 -1 55
Width: 1061
Flags: HW
HStem: 25 64<569 696> 548 21G<421 461> 582 65<354.531 428.372>
VStem: 286 64<504.915 576.551> 741 64<135 261>
LayerCount: 2
Fore
SplineSet
390 582 m 0
 367 582 350 563 350 542 c 0
 350 532 354 522 362 514 c 2
 472 404 l 1
 563 598 l 1
 615 573 l 1
 516 360 l 1
 741 135 l 1
 741 261 l 1
 805 261 l 1
 805 25 l 1
 569 25 l 1
 569 89 l 1
 696 89 l 1
 487 298 l 1
 396 104 l 1
 344 129 l 1
 443 342 l 1
 316 469 l 2
 296 489 286 516 286 542 c 0
 286 600 333 647 390 647 c 0
 417 647 443 636 463 616 c 2
 486 593 l 1
 441 548 l 1
 418 571 l 2
 410 579 400 582 390 582 c 0
EndSplineSet
EndChar

StartChar: uni21AA0338.alt
Encoding: 56 -1 56
Width: 930
Flags: HW
HStem: 124 64<158.417 226> 268 64<158.417 350 436 731> 533 20G<446.76 509>
VStem: 90 64<192.405 263.595>
LayerCount: 2
Fore
SplineSet
454 553 m 1
 509 533 l 1
 436 332 l 1
 731 332 l 1
 641 421 l 1
 687 467 l 1
 853 300 l 1
 687 133 l 1
 641 179 l 1
 731 268 l 1
 412 268 l 1
 332 47 l 1
 277 67 l 1
 350 268 l 1
 194 268 l 2
 172 268 154 250 154 228 c 0
 154 206 172 188 194 188 c 2
 226 188 l 1
 226 124 l 1
 194 124 l 2
 137 124 90 171 90 228 c 0
 90 285 137 332 194 332 c 2
 374 332 l 1
 454 553 l 1
EndSplineSet
EndChar

StartChar: sym03E_uni0338.alt
Encoding: 57 -1 57
Width: 676
Flags: HW
HStem: -75 64<374.405 445.595>
VStem: 306 64<-6.5834 185 271 566> 450 64<-6.5834 61>
LayerCount: 2
Fore
SplineSet
105 112 m 1
 85 167 l 1
 306 247 l 1
 306 566 l 1
 217 476 l 1
 171 522 l 1
 338 688 l 1
 505 522 l 1
 459 476 l 1
 370 566 l 1
 370 271 l 1
 571 344 l 1
 591 289 l 1
 370 209 l 1
 370 29 l 2
 370 7 388 -11 410 -11 c 0
 432 -11 450 7 450 29 c 2
 450 61 l 1
 514 61 l 1
 514 29 l 2
 514 -28 467 -75 410 -75 c 0
 353 -75 306 -28 306 29 c 2
 306 185 l 1
 105 112 l 1
EndSplineSet
EndChar

StartChar: uni21A90338
Encoding: 58 -1 58
Width: 930
Flags: HW
HStem: 268 64<199 494 580 771.583> 412 64<704 771.583> 533 20G<590.76 653>
VStem: 776 64<336.405 407.595>
LayerCount: 2
Fore
SplineSet
476 47 m 1
 421 67 l 1
 494 268 l 1
 199 268 l 1
 289 179 l 1
 243 133 l 1
 77 300 l 1
 243 467 l 1
 289 421 l 1
 199 332 l 1
 518 332 l 1
 598 553 l 1
 653 533 l 1
 580 332 l 1
 736 332 l 2
 758 332 776 350 776 372 c 0
 776 394 758 412 736 412 c 2
 704 412 l 1
 704 476 l 1
 736 476 l 2
 793 476 840 429 840 372 c 0
 840 315 793 268 736 268 c 2
 556 268 l 1
 476 47 l 1
EndSplineSet
EndChar

StartChar: sym03F_uni0338
Encoding: 59 -1 59
Width: 676
Flags: HW
HStem: 611 64<230.405 301.595>
VStem: 162 64<539 606.583> 306 64<34 329 415 606.583>
LayerCount: 2
Fore
SplineSet
571 488 m 1
 591 433 l 1
 370 353 l 1
 370 34 l 1
 459 124 l 1
 505 78 l 1
 338 -88 l 1
 171 78 l 1
 217 124 l 1
 306 34 l 1
 306 329 l 1
 105 256 l 1
 85 311 l 1
 306 391 l 1
 306 571 l 2
 306 593 288 611 266 611 c 0
 244 611 226 593 226 571 c 2
 226 539 l 1
 162 539 l 1
 162 571 l 2
 162 628 209 675 266 675 c 0
 323 675 370 628 370 571 c 2
 370 415 l 1
 571 488 l 1
EndSplineSet
EndChar

StartChar: uni29240338
Encoding: 60 -1 60
Width: 1061
Flags: HW
HStem: -47 65<354.531 428.372> 511 64<569 696>
VStem: 286 64<23.4492 95.0849> 741 64<339 465>
LayerCount: 2
Fore
SplineSet
390 -47 m 0
 333 -47 286 0 286 58 c 0
 286 84 296 111 316 131 c 2
 443 258 l 1
 344 471 l 1
 396 496 l 1
 487 302 l 1
 696 511 l 1
 569 511 l 1
 569 575 l 1
 805 575 l 1
 805 339 l 1
 741 339 l 1
 741 465 l 1
 516 240 l 1
 615 27 l 1
 563 2 l 1
 472 196 l 1
 362 86 l 2
 354 78 350 68 350 58 c 0
 350 37 367 18 390 18 c 0
 400 18 410 21 418 29 c 2
 441 52 l 1
 486 7 l 1
 463 -16 l 2
 443 -36 417 -47 390 -47 c 0
EndSplineSet
EndChar

StartChar: uni29230338.alt
Encoding: 61 -1 61
Width: 1061
Flags: HW
HStem: 55 64<735.058 808.04> 511 64<365 492>
VStem: 256 64<339 465> 813 64<124.415 197.704>
LayerCount: 2
Fore
SplineSet
877 159 m 0
 877 100 829 55 773 55 c 0
 746 55 720 66 700 86 c 2
 589 197 l 1
 498 2 l 1
 446 27 l 1
 546 240 l 1
 320 465 l 1
 320 339 l 1
 256 339 l 1
 256 575 l 1
 492 575 l 1
 492 511 l 1
 365 511 l 1
 574 302 l 1
 665 496 l 1
 717 471 l 1
 618 258 l 1
 745 131 l 2
 753 123 763 119 773 119 c 0
 796 119 813 139 813 160 c 0
 813 170 809 180 801 188 c 2
 779 210 l 1
 824 255 l 1
 847 233 l 2
 867 213 877 186 877 159 c 0
EndSplineSet
EndChar

StartChar: uni29260338
Encoding: 62 -1 62
Width: 1061
Flags: HW
HStem: 25 64<365 492> 548 21G<600 640> 582 65<632.628 706.794>
VStem: 256 64<135 261> 711 64<503.422 578.159>
LayerCount: 2
Fore
SplineSet
671 647 m 0
 728 647 775 600 775 542 c 0
 775 516 765 489 745 469 c 2
 618 342 l 1
 717 129 l 1
 665 104 l 1
 574 298 l 1
 365 89 l 1
 492 89 l 1
 492 25 l 1
 256 25 l 1
 256 261 l 1
 320 261 l 1
 320 135 l 1
 546 360 l 1
 446 573 l 1
 498 598 l 1
 589 403 l 1
 700 514 l 2
 708 522 711 532 711 542 c 0
 711 565 695 582 672 582 c 0
 662 582 651 579 643 571 c 2
 620 548 l 1
 575 593 l 1
 598 616 l 2
 618 636 644 647 671 647 c 0
EndSplineSet
EndChar

StartChar: uni29250338.alt
Encoding: 63 -1 63
Width: 1061
Flags: HW
HStem: 25 64<569 696> 481 64<252.96 325.585>
VStem: 184 64<402.296 475.585> 741 64<135 261>
LayerCount: 2
Fore
SplineSet
184 441 m 0
 184 500 232 545 288 545 c 0
 315 545 342 534 362 514 c 2
 472 404 l 1
 563 598 l 1
 615 573 l 1
 516 360 l 1
 741 135 l 1
 741 261 l 1
 805 261 l 1
 805 25 l 1
 569 25 l 1
 569 89 l 1
 696 89 l 1
 487 298 l 1
 396 104 l 1
 344 129 l 1
 443 342 l 1
 316 469 l 2
 308 477 298 481 288 481 c 0
 265 481 248 461 248 440 c 0
 248 430 252 420 260 412 c 2
 282 390 l 1
 237 345 l 1
 214 367 l 2
 194 387 184 414 184 441 c 0
EndSplineSet
EndChar

StartChar: uni21C00338
Encoding: 64 -1 64
Width: 930
Flags: HW
HStem: 268 64<90 350 436 731> 533 20G<446.76 509>
LayerCount: 2
Fore
SplineSet
454 553 m 1
 509 533 l 1
 436 332 l 1
 731 332 l 1
 625 437 l 1
 671 483 l 1
 853 300 l 1
 845 268 l 1
 412 268 l 1
 332 47 l 1
 277 67 l 1
 350 268 l 1
 90 268 l 1
 90 332 l 1
 374 332 l 1
 454 553 l 1
EndSplineSet
EndChar

StartChar: uni21BF0338
Encoding: 65 -1 65
Width: 676
Flags: HW
VStem: 306 64<-75 185 271 566>
LayerCount: 2
Fore
SplineSet
105 112 m 1
 85 167 l 1
 306 247 l 1
 306 566 l 1
 201 460 l 1
 155 506 l 1
 338 688 l 1
 370 680 l 1
 370 271 l 1
 571 344 l 1
 591 289 l 1
 370 209 l 1
 370 -75 l 1
 306 -75 l 1
 306 185 l 1
 105 112 l 1
EndSplineSet
EndChar

StartChar: uni21BD0338
Encoding: 66 -1 66
Width: 930
Flags: HW
HStem: 268 64<199 494 580 840> 533 20G<590.76 653>
LayerCount: 2
Fore
SplineSet
476 47 m 1
 421 67 l 1
 494 268 l 1
 199 268 l 1
 305 163 l 1
 259 117 l 1
 77 300 l 1
 85 332 l 1
 518 332 l 1
 598 553 l 1
 653 533 l 1
 580 332 l 1
 840 332 l 1
 840 268 l 1
 556 268 l 1
 476 47 l 1
EndSplineSet
EndChar

StartChar: uni21C20338
Encoding: 67 -1 67
Width: 676
Flags: HW
VStem: 306 64<34 329 415 675>
LayerCount: 2
Fore
SplineSet
571 488 m 1
 591 433 l 1
 370 353 l 1
 370 34 l 1
 475 140 l 1
 521 94 l 1
 338 -88 l 1
 306 -80 l 1
 306 329 l 1
 105 256 l 1
 85 311 l 1
 306 391 l 1
 306 675 l 1
 370 675 l 1
 370 415 l 1
 571 488 l 1
EndSplineSet
EndChar

StartChar: sym041_uni0338
Encoding: 68 -1 68
Width: 1061
Flags: HW
HStem: 511 64<547 696>
LayerCount: 2
Fore
SplineSet
344 471 m 1
 396 496 l 1
 487 301 l 1
 696 511 l 1
 547 511 l 1
 547 575 l 1
 805 575 l 1
 822 546 l 1
 796 520 l 1
 516 240 l 1
 615 27 l 1
 563 2 l 1
 472 196 l 1
 288 12 l 1
 243 57 l 1
 444 258 l 1
 344 471 l 1
EndSplineSet
EndChar

StartChar: sym040_uni0338
Encoding: 69 -1 69
Width: 1061
Flags: HW
VStem: 256 64<316 465>
LayerCount: 2
Fore
SplineSet
498 2 m 1
 446 27 l 1
 545 240 l 1
 320 465 l 1
 320 316 l 1
 256 316 l 1
 256 575 l 1
 285 591 l 1
 311 565 l 1
 320 556 l 2
 574 301 l 1
 665 496 l 1
 717 471 l 1
 617 258 l 1
 818 57 l 1
 773 12 l 1
 589 196 l 1
 498 2 l 1
EndSplineSet
EndChar

StartChar: sym043_uni0338
Encoding: 70 -1 70
Width: 1061
Flags: HW
HStem: 25 64<365 514>
LayerCount: 2
Fore
SplineSet
717 129 m 1
 665 104 l 1
 574 299 l 1
 365 89 l 1
 514 89 l 1
 514 25 l 1
 256 25 l 1
 239 54 l 1
 265 80 l 1
 545 360 l 1
 446 573 l 1
 498 598 l 1
 589 404 l 1
 773 588 l 1
 818 543 l 1
 617 342 l 1
 717 129 l 1
EndSplineSet
EndChar

StartChar: sym042_uni0338
Encoding: 71 -1 71
Width: 1061
Flags: HW
VStem: 741 64<135 284>
LayerCount: 2
Fore
SplineSet
563 598 m 1
 615 573 l 1
 516 360 l 1
 741 135 l 1
 741 284 l 1
 805 284 l 1
 805 25 l 1
 776 9 l 1
 750 35 l 1
 741 44 l 2
 487 299 l 1
 396 104 l 1
 344 129 l 1
 444 342 l 1
 243 543 l 1
 288 588 l 1
 472 404 l 1
 563 598 l 1
EndSplineSet
EndChar

StartChar: uni21C10338
Encoding: 72 -1 72
Width: 930
Flags: HW
HStem: 268 64<90 350 436 731> 533 20G<446.76 509>
LayerCount: 2
Fore
SplineSet
454 553 m 1
 509 533 l 1
 436 332 l 1
 845 332 l 1
 853 300 l 1
 671 117 l 1
 625 163 l 1
 731 268 l 1
 412 268 l 1
 332 47 l 1
 277 67 l 1
 350 268 l 1
 90 268 l 1
 90 332 l 1
 374 332 l 1
 454 553 l 1
EndSplineSet
EndChar

StartChar: uni21BE0338
Encoding: 73 -1 73
Width: 676
Flags: HW
VStem: 306 64<-75 185 271 566>
LayerCount: 2
Fore
SplineSet
105 112 m 1
 85 167 l 1
 306 247 l 1
 306 680 l 1
 338 688 l 1
 521 506 l 1
 475 460 l 1
 370 566 l 1
 370 271 l 1
 571 344 l 1
 591 289 l 1
 370 209 l 1
 370 -75 l 1
 306 -75 l 1
 306 185 l 1
 105 112 l 1
EndSplineSet
EndChar

StartChar: uni21BC0338
Encoding: 74 -1 74
Width: 930
Flags: HW
HStem: 268 64<199 494 580 840> 533 20G<590.76 653>
LayerCount: 2
Fore
SplineSet
476 47 m 1
 421 67 l 1
 494 268 l 1
 85 268 l 1
 77 300 l 1
 259 483 l 1
 305 437 l 1
 199 332 l 1
 518 332 l 1
 598 553 l 1
 653 533 l 1
 580 332 l 1
 840 332 l 1
 840 268 l 1
 556 268 l 1
 476 47 l 1
EndSplineSet
EndChar

StartChar: uni21C30338
Encoding: 75 -1 75
Width: 676
Flags: HW
VStem: 306 64<34 329 415 675>
LayerCount: 2
Fore
SplineSet
571 488 m 1
 591 433 l 1
 370 353 l 1
 370 -80 l 1
 338 -88 l 1
 155 94 l 1
 201 140 l 1
 306 34 l 1
 306 329 l 1
 105 256 l 1
 85 311 l 1
 306 391 l 1
 306 675 l 1
 370 675 l 1
 370 415 l 1
 571 488 l 1
EndSplineSet
EndChar

StartChar: sym045_uni0338
Encoding: 76 -1 76
Width: 1061
Flags: HW
VStem: 741 64<316 465>
LayerCount: 2
Fore
SplineSet
344 471 m 1
 396 496 l 1
 487 301 l 1
 575 389 662 477 750 565 c 2
 776 591 l 1
 805 575 l 1
 805 316 l 1
 741 316 l 1
 741 465 l 1
 516 240 l 1
 615 27 l 1
 563 2 l 1
 472 196 l 1
 288 12 l 1
 243 57 l 1
 444 258 l 1
 344 471 l 1
EndSplineSet
EndChar

StartChar: sym044_uni0338
Encoding: 77 -1 77
Width: 1061
Flags: HW
HStem: 511 64<365 514>
LayerCount: 2
Fore
SplineSet
498 2 m 1
 446 27 l 1
 545 240 l 1
 265 520 l 1
 239 546 l 1
 256 575 l 1
 514 575 l 1
 514 511 l 1
 365 511 l 1
 574 301 l 1
 665 496 l 1
 717 471 l 1
 617 258 l 1
 818 57 l 1
 773 12 l 1
 589 196 l 1
 498 2 l 1
EndSplineSet
EndChar

StartChar: sym047_uni0338
Encoding: 78 -1 78
Width: 1061
Flags: HW
VStem: 256 64<135 284>
LayerCount: 2
Fore
SplineSet
717 129 m 1
 665 104 l 1
 574 299 l 1
 486 211 399 123 311 35 c 2
 285 9 l 1
 256 25 l 1
 256 284 l 1
 320 284 l 1
 320 135 l 1
 545 360 l 1
 446 573 l 1
 498 598 l 1
 589 404 l 1
 773 588 l 1
 818 543 l 1
 617 342 l 1
 717 129 l 1
EndSplineSet
EndChar

StartChar: sym046_uni0338
Encoding: 79 -1 79
Width: 1061
Flags: HW
HStem: 25 64<547 696>
LayerCount: 2
Fore
SplineSet
563 598 m 1
 615 573 l 1
 516 360 l 1
 796 80 l 1
 822 54 l 1
 805 25 l 1
 547 25 l 1
 547 89 l 1
 696 89 l 1
 487 299 l 1
 396 104 l 1
 344 129 l 1
 444 342 l 1
 243 543 l 1
 288 588 l 1
 472 404 l 1
 563 598 l 1
EndSplineSet
EndChar

StartChar: uni294B0338
Encoding: 80 -1 80
Width: 930
Flags: HW
HStem: 268 64<199 430 500 731> 529 20G<476.498 536>
LayerCount: 2
Fore
SplineSet
480 549 m 1
 536 539 l 1
 500 332 l 1
 731 332 l 1
 625 437 l 1
 671 483 l 1
 853 300 l 1
 845 268 l 1
 488 268 l 1
 450 51 l 1
 394 61 l 1
 430 268 l 1
 199 268 l 1
 305 163 l 1
 259 117 l 1
 77 300 l 1
 85 332 l 1
 442 332 l 1
 480 549 l 1
EndSplineSet
EndChar

StartChar: uni294D0338
Encoding: 81 -1 81
Width: 676
Flags: HW
VStem: 306 64<34 257 343 566>
LayerCount: 2
Fore
SplineSet
105 184 m 1
 85 239 l 1
 306 319 l 1
 306 566 l 1
 201 460 l 1
 155 506 l 1
 338 688 l 1
 370 680 l 1
 370 343 l 1
 571 416 l 1
 591 361 l 1
 370 281 l 1
 370 34 l 1
 475 140 l 1
 521 94 l 1
 338 -88 l 1
 306 -80 l 1
 306 257 l 1
 105 184 l 1
EndSplineSet
EndChar

StartChar: sym049_uni0338
Encoding: 82 -1 82
Width: 1061
Flags: HW
HStem: 25 64<365 514> 511 64<547 696>
LayerCount: 2
Fore
SplineSet
365 487 m 1
 412 520 l 1
 532 347 l 1
 696 511 l 1
 547 511 l 1
 547 575 l 1
 805 575 l 1
 822 546 l 1
 796 520 l 1
 570 294 l 1
 696 113 l 1
 649 80 l 1
 529 253 l 1
 365 89 l 1
 514 89 l 1
 514 25 l 1
 256 25 l 1
 239 54 l 1
 265 80 l 1
 491 306 l 1
 365 487 l 1
EndSplineSet
EndChar

StartChar: sym048_uni0338
Encoding: 83 -1 83
Width: 1061
Flags: HW
HStem: 527 20G<604.619 655.6>
VStem: 256 64<316 465> 741 64<135 284>
LayerCount: 2
Fore
SplineSet
447 53 m 1
 395 78 l 1
 494 291 l 1
 320 465 l 1
 320 316 l 1
 256 316 l 1
 256 575 l 1
 285 591 l 1
 523 353 l 1
 614 547 l 1
 666 522 l 1
 567 309 l 1
 741 135 l 1
 741 284 l 1
 805 284 l 1
 805 25 l 1
 776 9 l 1
 538 247 l 1
 447 53 l 1
EndSplineSet
EndChar

StartChar: uni294A0338
Encoding: 84 -1 84
Width: 930
Flags: HW
HStem: 268 64<199 422 508 731> 533 20G<518.76 581>
LayerCount: 2
Fore
SplineSet
526 553 m 1
 581 533 l 1
 508 332 l 1
 845 332 l 1
 853 300 l 1
 671 117 l 1
 625 163 l 1
 731 268 l 1
 484 268 l 1
 404 47 l 1
 349 67 l 1
 422 268 l 1
 85 268 l 1
 77 300 l 1
 259 483 l 1
 305 437 l 1
 199 332 l 1
 446 332 l 1
 526 553 l 1
EndSplineSet
EndChar

StartChar: uni294C0338
Encoding: 85 -1 85
Width: 676
Flags: HW
VStem: 306 64<34 265 335 566>
LayerCount: 2
Fore
SplineSet
99 229 m 1
 89 285 l 1
 306 323 l 1
 306 680 l 1
 338 688 l 1
 521 506 l 1
 475 460 l 1
 370 566 l 1
 370 335 l 1
 577 371 l 1
 587 315 l 1
 370 277 l 1
 370 -80 l 1
 338 -88 l 1
 155 94 l 1
 201 140 l 1
 306 34 l 1
 306 265 l 1
 99 229 l 1
EndSplineSet
EndChar

StartChar: sym04B_uni0338
Encoding: 86 -1 86
Width: 1061
Flags: HW
HStem: 527 20G<405.4 456.381>
VStem: 256 64<135 284> 741 64<316 465>
LayerCount: 2
Fore
SplineSet
395 522 m 1
 447 547 l 1
 538 353 l 1
 776 591 l 1
 805 575 l 1
 805 316 l 1
 741 316 l 1
 741 465 l 1
 567 291 l 1
 666 78 l 1
 614 53 l 1
 523 247 l 1
 285 9 l 1
 256 25 l 1
 256 284 l 1
 320 284 l 1
 320 135 l 1
 494 309 l 1
 395 522 l 1
EndSplineSet
EndChar

StartChar: sym04A_uni0338
Encoding: 87 -1 87
Width: 1061
Flags: HW
HStem: 25 64<547 696> 511 64<365 514>
LayerCount: 2
Fore
SplineSet
412 80 m 1
 365 113 l 1
 491 294 l 1
 265 520 l 1
 239 546 l 1
 256 575 l 1
 514 575 l 1
 514 511 l 1
 365 511 l 1
 529 347 l 1
 649 520 l 1
 696 487 l 1
 570 306 l 1
 796 80 l 1
 822 54 l 1
 805 25 l 1
 547 25 l 1
 547 89 l 1
 696 89 l 1
 532 253 l 1
 412 80 l 1
EndSplineSet
EndChar

StartChar: uni21CC0338
Encoding: 88 -1 88
Width: 930
Flags: HW
HStem: 178 64<199 415 484 840> 358 64<90 446 515 731>
LayerCount: 2
Fore
SplineSet
496 639 m 1
 552 629 l 1
 515 422 l 1
 731 422 l 1
 625 527 l 1
 671 573 l 1
 853 390 l 1
 845 358 l 1
 504 358 l 1
 484 242 l 1
 840 242 l 1
 840 178 l 1
 472 178 l 1
 434 -39 l 1
 378 -29 l 1
 415 178 l 1
 199 178 l 1
 305 73 l 1
 259 27 l 1
 77 210 l 1
 85 242 l 1
 426 242 l 1
 446 358 l 1
 90 358 l 1
 90 422 l 1
 458 422 l 1
 496 639 l 1
EndSplineSet
EndChar

StartChar: uni296E0338
Encoding: 89 -1 89
Width: 856
Flags: HW
VStem: 306 64<-75 225 310 566> 486 64<34 290 375 675>
LayerCount: 2
Fore
SplineSet
105 152 m 1
 85 206 l 1
 306 286 l 1
 306 566 l 1
 201 460 l 1
 155 506 l 1
 338 688 l 1
 370 680 l 1
 370 310 l 1
 486 352 l 1
 486 675 l 1
 550 675 l 1
 550 375 l 1
 751 448 l 1
 771 394 l 1
 550 314 l 1
 550 34 l 1
 655 140 l 1
 701 94 l 1
 518 -88 l 1
 486 -80 l 1
 486 290 l 1
 370 248 l 1
 370 -75 l 1
 306 -75 l 1
 306 225 l 1
 105 152 l 1
EndSplineSet
EndChar

StartChar: sym04D_uni0338
Encoding: 90 -1 90
Width: 1188
Flags: HW
HStem: -38 64<402 403 493 642> 574 64<547 695>
LayerCount: 2
Fore
SplineSet
376 562 m 1
 423 595 l 1
 544 422 l 1
 695 574 l 1
 547 574 l 1
 547 638 l 1
 805 638 l 1
 822 609 l 1
 741 530 661 449 581 369 c 1
 649 272 l 1
 900 524 l 1
 946 479 l 1
 686 219 l 1
 813 38 l 1
 765 5 l 1
 645 178 l 1
 493 26 l 1
 642 26 l 1
 642 -38 l 1
 383 -38 l 1
 367 -9 l 1
 402 26 l 1
 403 26 l 1
 607 231 l 1
 540 328 l 1
 288 76 l 1
 243 121 l 1
 502 381 l 1
 376 562 l 1
EndSplineSet
EndChar

StartChar: sym04C_uni0338
Encoding: 91 -1 91
Width: 1188
Flags: HW
VStem: 256 64<253 401> 868 64<199 347>
LayerCount: 2
Fore
SplineSet
470 -33 m 1
 418 -9 l 1
 518 204 l 1
 320 401 l 1
 320 253 l 1
 256 253 l 1
 256 511 l 1
 285 527 l 1
 310 502 l 1
 311 502 l 1
 547 266 l 1
 599 377 l 1
 370 606 l 1
 415 651 l 1
 627 439 l 1
 718 633 l 1
 770 609 l 1
 670 396 l 1
 868 199 l 1
 868 347 l 1
 932 347 l 1
 932 89 l 1
 904 73 l 1
 878 98 l 1
 642 334 l 1
 590 223 l 1
 818 -6 l 1
 773 -51 l 1
 561 161 l 1
 470 -33 l 1
EndSplineSet
EndChar

StartChar: uni21CB0338
Encoding: 92 -1 92
Width: 930
Flags: HW
HStem: 178 64<90 390 475 731> 358 64<199 455 540 840>
LayerCount: 2
Fore
SplineSet
559 643 m 1
 613 623 l 1
 540 422 l 1
 840 422 l 1
 840 358 l 1
 517 358 l 1
 475 242 l 1
 845 242 l 1
 853 210 l 1
 671 27 l 1
 625 73 l 1
 731 178 l 1
 451 178 l 1
 371 -43 l 1
 317 -23 l 1
 390 178 l 1
 90 178 l 1
 90 242 l 1
 413 242 l 1
 455 358 l 1
 85 358 l 1
 77 390 l 1
 259 573 l 1
 305 527 l 1
 199 422 l 1
 479 422 l 1
 559 643 l 1
EndSplineSet
EndChar

StartChar: uni296F0338
Encoding: 93 -1 93
Width: 856
Flags: HW
VStem: 306 64<34 250 319 675> 486 64<-75 281 350 566>
LayerCount: 2
Fore
SplineSet
99 213 m 1
 89 269 l 1
 306 307 l 1
 306 675 l 1
 370 675 l 1
 370 319 l 1
 486 339 l 1
 486 680 l 1
 518 688 l 1
 701 506 l 1
 655 460 l 1
 550 566 l 1
 550 350 l 1
 757 387 l 1
 767 331 l 1
 550 293 l 1
 550 -75 l 1
 486 -75 l 1
 486 281 l 1
 370 261 l 1
 370 -80 l 1
 338 -88 l 1
 155 94 l 1
 201 140 l 1
 306 34 l 1
 306 250 l 1
 99 213 l 1
EndSplineSet
EndChar

StartChar: sym04F_uni0338
Encoding: 94 -1 94
Width: 1188
Flags: HW
VStem: 256 64<199 347> 868 64<253 401>
LayerCount: 2
Fore
SplineSet
418 609 m 1
 470 633 l 1
 561 439 l 1
 773 651 l 1
 818 606 l 1
 590 377 l 1
 642 266 l 1
 878 502 l 1
 904 527 l 1
 932 511 l 1
 932 253 l 1
 868 253 l 1
 868 401 l 1
 670 204 l 1
 770 -9 l 1
 718 -33 l 1
 627 161 l 1
 415 -51 l 1
 370 -6 l 1
 599 223 l 1
 547 334 l 1
 311 98 l 1
 310 98 l 1
 285 73 l 1
 256 89 l 1
 256 347 l 1
 320 347 l 1
 320 199 l 1
 518 396 l 1
 418 609 l 1
EndSplineSet
EndChar

StartChar: sym04E_uni0338
Encoding: 95 -1 95
Width: 1188
Flags: HW
HStem: -38 64<547 695> 574 64<402 403 493 642>
LayerCount: 2
Fore
SplineSet
423 5 m 1
 376 38 l 1
 502 219 l 1
 243 479 l 1
 288 524 l 1
 540 272 l 1
 607 369 l 1
 403 574 l 1
 402 574 l 1
 367 609 l 1
 383 638 l 1
 642 638 l 1
 642 574 l 1
 493 574 l 1
 645 422 l 1
 765 595 l 1
 813 562 l 1
 686 381 l 1
 946 121 l 1
 900 76 l 1
 649 328 l 1
 581 231 l 1
 786 26 786 26 822 -9 c 1
 805 -38 l 1
 547 -38 l 1
 547 26 l 1
 695 26 l 1
 544 178 l 1
 423 5 l 1
EndSplineSet
EndChar

StartChar: uni21E20338
Encoding: 96 -1 96
Width: 930
Flags: HW
HStem: 268 64<90 259 568 731> 533 20G<467.716 529>
LayerCount: 2
Fore
SplineSet
90 268 m 1
 90 332 l 1
 259 332 l 1
 259 268 l 1
 90 268 l 1
853 300 m 1
 687 133 l 1
 641 179 l 1
 731 268 l 1
 568 268 l 1
 568 332 l 1
 731 332 l 1
 641 421 l 1
 687 467 l 1
 853 300 l 1
475 553 m 1
 529 533 l 1
 352 47 l 1
 298 67 l 1
 475 553 l 1
EndSplineSet
EndChar

StartChar: uni21E10338
Encoding: 97 -1 97
Width: 676
Flags: HW
VStem: 306 64<-75 94 403 566>
LayerCount: 2
Fore
SplineSet
370 -75 m 1
 306 -75 l 1
 306 94 l 1
 370 94 l 1
 370 -75 l 1
338 688 m 1
 505 522 l 1
 459 476 l 1
 370 566 l 1
 370 403 l 1
 306 403 l 1
 306 566 l 1
 217 476 l 1
 171 522 l 1
 338 688 l 1
105 133 m 1
 85 187 l 1
 571 364 l 1
 591 310 l 1
 105 133 l 1
EndSplineSet
EndChar

StartChar: uni21E00338
Encoding: 98 -1 98
Width: 930
Flags: HW
HStem: 268 64<199 362 671 840> 533 20G<570.716 632>
LayerCount: 2
Fore
SplineSet
840 332 m 1
 840 268 l 1
 671 268 l 1
 671 332 l 1
 840 332 l 1
77 300 m 1
 243 467 l 1
 289 421 l 1
 199 332 l 1
 362 332 l 1
 362 268 l 1
 199 268 l 1
 289 179 l 1
 243 133 l 1
 77 300 l 1
455 47 m 1
 401 67 l 1
 578 553 l 1
 632 533 l 1
 455 47 l 1
EndSplineSet
EndChar

StartChar: uni21E30338
Encoding: 99 -1 99
Width: 676
Flags: HW
VStem: 306 64<34 197 506 675>
LayerCount: 2
Fore
SplineSet
306 675 m 1
 370 675 l 1
 370 506 l 1
 306 506 l 1
 306 675 l 1
338 -88 m 1
 171 78 l 1
 217 124 l 1
 306 34 l 1
 306 197 l 1
 370 197 l 1
 370 34 l 1
 459 124 l 1
 505 78 l 1
 338 -88 l 1
571 467 m 1
 591 413 l 1
 105 236 l 1
 85 290 l 1
 571 467 l 1
EndSplineSet
EndChar

StartChar: sym051_uni0338
Encoding: 100 -1 100
Width: 1061
Flags: HW
HStem: 511 64<569 696>
VStem: 741 64<339 465>
LayerCount: 2
Fore
SplineSet
288 12 m 1
 243 57 l 1
 362 177 l 1
 408 132 l 1
 288 12 l 1
805 575 m 1
 805 339 l 1
 741 339 l 1
 741 465 l 1
 626 350 l 1
 581 395 l 1
 696 511 l 1
 569 511 l 1
 569 575 l 1
 805 575 l 1
359 486 m 1
 411 510 l 1
 630 41 l 1
 577 17 l 1
 359 486 l 1
EndSplineSet
EndChar

StartChar: sym050_uni0338
Encoding: 101 -1 101
Width: 1061
Flags: HW
HStem: 511 64<365 492>
VStem: 256 64<339 465>
LayerCount: 2
Fore
SplineSet
818 57 m 1
 773 12 l 1
 653 132 l 1
 699 177 l 1
 818 57 l 1
256 575 m 1
 492 575 l 1
 492 511 l 1
 365 511 l 1
 480 395 l 1
 435 350 l 1
 320 465 l 1
 320 339 l 1
 256 339 l 1
 256 575 l 1
484 17 m 1
 431 41 l 1
 650 510 l 1
 702 486 l 1
 484 17 l 1
EndSplineSet
EndChar

StartChar: sym053_uni0338
Encoding: 102 -1 102
Width: 1061
Flags: HW
HStem: 25 64<365 492>
VStem: 256 64<135 261>
LayerCount: 2
Fore
SplineSet
773 588 m 1
 818 543 l 1
 699 423 l 1
 653 468 l 1
 773 588 l 1
256 25 m 1
 256 261 l 1
 320 261 l 1
 320 135 l 1
 435 250 l 1
 480 205 l 1
 365 89 l 1
 492 89 l 1
 492 25 l 1
 256 25 l 1
702 114 m 1
 650 90 l 1
 431 559 l 1
 484 583 l 1
 702 114 l 1
EndSplineSet
EndChar

StartChar: sym052_uni0338
Encoding: 103 -1 103
Width: 1061
Flags: HW
HStem: 25 64<569 696>
VStem: 741 64<135 261>
LayerCount: 2
Fore
SplineSet
243 543 m 1
 288 588 l 1
 408 468 l 1
 362 423 l 1
 243 543 l 1
805 25 m 1
 569 25 l 1
 569 89 l 1
 696 89 l 1
 581 205 l 1
 626 250 l 1
 741 135 l 1
 741 261 l 1
 805 261 l 1
 805 25 l 1
577 583 m 1
 630 559 l 1
 411 90 l 1
 359 114 l 1
 577 583 l 1
EndSplineSet
EndChar

StartChar: uni22B80338
Encoding: 104 -1 104
Width: 930
Flags: HW
HStem: 153 64<637.948 747.848> 268 64<90 307 392 555.07> 383 64<637.948 747.848> 533 20G<403.76 465>
VStem: 776 64<245.152 354.848>
LayerCount: 2
Fore
SplineSet
693 217 m 0
 739 217 776 254 776 300 c 0
 776 346 739 383 693 383 c 0
 652 383 610 352 610 300 c 0
 610 248 652 217 693 217 c 0
693 153 m 0
 619 153 563 205 549 268 c 1
 368 268 l 1
 288 47 l 1
 234 67 l 1
 307 268 l 1
 90 268 l 1
 90 332 l 1
 331 332 l 1
 411 553 l 1
 465 533 l 1
 392 332 l 1
 549 332 l 1
 563 395 619 447 693 447 c 0
 774 447 840 381 840 300 c 0
 840 219 774 153 693 153 c 0
EndSplineSet
EndChar

StartChar: uni2AEF0338
Encoding: 105 -1 105
Width: 676
Flags: HW
HStem: 611 64<282.549 393.451>
VStem: 191 64<472.948 583.878> 306 64<-75 142 227 390.07> 421 64<472.948 583.878>
CounterMasks: 1 70
LayerCount: 2
Fore
SplineSet
338 445 m 0
 390 445 421 487 421 528 c 0
 421 574 384 611 338 611 c 0
 292 611 255 574 255 528 c 0
 255 487 286 445 338 445 c 0
485 528 m 0
 485 454 433 398 370 384 c 1
 370 227 l 1
 571 300 l 1
 591 246 l 1
 370 166 l 1
 370 -75 l 1
 306 -75 l 1
 306 142 l 1
 105 69 l 1
 85 123 l 1
 306 203 l 1
 306 384 l 1
 243 398 191 454 191 528 c 0
 191 614 262 675 338 675 c 0
 414 675 485 614 485 528 c 0
EndSplineSet
EndChar

StartChar: uni27DC0338
Encoding: 106 -1 106
Width: 930
Flags: HW
HStem: 153 64<181.122 292.052> 268 64<374.93 538 623 840> 383 64<181.122 292.052> 533 20G<634.76 696>
VStem: 90 64<244.549 355.451>
LayerCount: 2
Fore
SplineSet
237 217 m 0
 278 217 320 248 320 300 c 0
 320 352 278 383 237 383 c 0
 191 383 154 346 154 300 c 0
 154 254 191 217 237 217 c 0
237 447 m 0
 311 447 367 395 381 332 c 1
 562 332 l 1
 642 553 l 1
 696 533 l 1
 623 332 l 1
 840 332 l 1
 840 268 l 1
 599 268 l 1
 519 47 l 1
 465 67 l 1
 538 268 l 1
 381 268 l 1
 367 205 311 153 237 153 c 0
 151 153 90 224 90 300 c 0
 90 376 151 447 237 447 c 0
EndSplineSet
EndChar

StartChar: uni2AF00338
Encoding: 107 -1 107
Width: 676
Flags: HW
HStem: -75 64<282.549 393.451>
VStem: 191 64<16.1218 127.052> 306 64<209.93 373 458 675> 421 64<16.1218 127.052>
CounterMasks: 1 70
LayerCount: 2
Fore
SplineSet
338 -11 m 0
 384 -11 421 26 421 72 c 0
 421 113 390 155 338 155 c 0
 286 155 255 113 255 72 c 0
 255 26 292 -11 338 -11 c 0
191 72 m 0
 191 146 243 202 306 216 c 1
 306 373 l 1
 105 300 l 1
 85 354 l 1
 306 434 l 1
 306 675 l 1
 370 675 l 1
 370 458 l 1
 571 531 l 1
 591 477 l 1
 370 397 l 1
 370 216 l 1
 433 202 485 146 485 72 c 0
 485 -14 414 -75 338 -75 c 0
 262 -75 191 -14 191 72 c 0
EndSplineSet
EndChar

StartChar: sym054_uni0338
Encoding: 108 -1 108
Width: 930
Flags: HW
HStem: 153 294<615.952 769.142> 268 64<90 307 392 555.07> 533 20G<403.76 465>
LayerCount: 2
Fore
SplineSet
693 153 m 0xa0
 619 153 563 205 549 268 c 1
 368 268 l 1
 288 47 l 1
 234 67 l 1
 307 268 l 1
 90 268 l 1
 90 332 l 1
 331 332 l 1
 411 553 l 1
 465 533 l 1
 392 332 l 1
 549 332 l 1x60
 563 395 619 447 693 447 c 0
 774 447 840 381 840 300 c 0
 840 219 774 153 693 153 c 0xa0
EndSplineSet
EndChar

StartChar: sym056_uni0338
Encoding: 109 -1 109
Width: 676
Flags: HW
VStem: 191 294<450.952 603.309> 306 64<-75 142 227 390.07>
LayerCount: 2
Fore
SplineSet
485 528 m 0x80
 485 454 433 398 370 384 c 1
 370 227 l 1
 571 300 l 1
 591 246 l 1
 370 166 l 1
 370 -75 l 1
 306 -75 l 1
 306 142 l 1
 105 69 l 1
 85 123 l 1
 306 203 l 1
 306 384 l 1x40
 243 398 191 454 191 528 c 0
 191 614 262 675 338 675 c 0
 414 675 485 614 485 528 c 0x80
EndSplineSet
EndChar

StartChar: sym055_uni0338
Encoding: 110 -1 110
Width: 930
Flags: HW
HStem: 153 294<161.691 314.048> 268 64<374.93 538 623 840> 533 20G<634.76 696>
LayerCount: 2
Fore
SplineSet
237 447 m 0xa0
 311 447 367 395 381 332 c 1
 562 332 l 1
 642 553 l 1
 696 533 l 1
 623 332 l 1
 840 332 l 1
 840 268 l 1
 599 268 l 1
 519 47 l 1
 465 67 l 1
 538 268 l 1
 381 268 l 1x60
 367 205 311 153 237 153 c 0
 151 153 90 224 90 300 c 0
 90 376 151 447 237 447 c 0xa0
EndSplineSet
EndChar

StartChar: sym057_uni0338
Encoding: 111 -1 111
Width: 676
Flags: HW
VStem: 191 294<-3.30949 149.048> 306 64<209.93 373 458 675>
LayerCount: 2
Fore
SplineSet
191 72 m 0x80
 191 146 243 202 306 216 c 1
 306 373 l 1
 105 300 l 1
 85 354 l 1
 306 434 l 1
 306 675 l 1
 370 675 l 1
 370 458 l 1
 571 531 l 1
 591 477 l 1
 370 397 l 1
 370 216 l 1x40
 433 202 485 146 485 72 c 0
 485 -14 414 -75 338 -75 c 0
 262 -75 191 -14 191 72 c 0x80
EndSplineSet
EndChar

StartChar: uni29DF0338
Encoding: 112 -1 112
Width: 1230
Flags: HW
HStem: 153 64<181.122 292.052 937.948 1048.88> 268 64<374.93 572 658 855.07> 383 64<181.122 292.052 937.948 1048.88> 533 20G<668.76 731>
VStem: 90 64<244.549 355.451> 1076 64<244.549 355.451>
LayerCount: 2
Fore
SplineSet
993 217 m 0
 1039 217 1076 254 1076 300 c 0
 1076 346 1039 383 993 383 c 0
 952 383 910 352 910 300 c 0
 910 248 952 217 993 217 c 0
237 217 m 0
 278 217 320 248 320 300 c 0
 320 352 278 383 237 383 c 0
 191 383 154 346 154 300 c 0
 154 254 191 217 237 217 c 0
237 447 m 0
 311 447 367 395 381 332 c 1
 596 332 l 1
 676 553 l 1
 731 533 l 1
 658 332 l 1
 849 332 l 1
 863 395 919 447 993 447 c 0
 1079 447 1140 376 1140 300 c 0
 1140 224 1079 153 993 153 c 0
 919 153 863 205 849 268 c 1
 634 268 l 1
 554 47 l 1
 499 67 l 1
 572 268 l 1
 381 268 l 1
 367 205 311 153 237 153 c 0
 151 153 90 224 90 300 c 0
 90 376 151 447 237 447 c 0
EndSplineSet
EndChar

StartChar: sym058_uni0338
Encoding: 113 -1 113
Width: 1230
Flags: HW
HStem: 153 294<161.691 314.048 915.952 1068.31> 268 64<374.93 572 658 855.07> 533 20G<668.76 731>
LayerCount: 2
Fore
SplineSet
237 447 m 0xa0
 311 447 367 395 381 332 c 1
 596 332 l 1
 676 553 l 1
 731 533 l 1
 658 332 l 1
 849 332 l 1x60
 863 395 919 447 993 447 c 0
 1079 447 1140 376 1140 300 c 0
 1140 224 1079 153 993 153 c 0xa0
 919 153 863 205 849 268 c 1
 634 268 l 1
 554 47 l 1
 499 67 l 1
 572 268 l 1
 381 268 l 1x60
 367 205 311 153 237 153 c 0
 151 153 90 224 90 300 c 0
 90 376 151 447 237 447 c 0xa0
EndSplineSet
EndChar

StartChar: uni22B70338
Encoding: 114 -1 114
Width: 1230
Flags: HW
HStem: 153 294<161.691 314.048> 153 64<937.948 1048.88> 268 64<374.93 572 658 855.07> 383 64<937.948 1048.88> 533 20G<668.76 731>
VStem: 1076 64<244.549 355.451>
LayerCount: 2
Fore
SplineSet
993 217 m 0x5c
 1039 217 1076 254 1076 300 c 0
 1076 346 1039 383 993 383 c 0
 952 383 910 352 910 300 c 0
 910 248 952 217 993 217 c 0x5c
237 447 m 0x8c
 311 447 367 395 381 332 c 1
 596 332 l 1
 676 553 l 1
 731 533 l 1
 658 332 l 1
 849 332 l 1
 863 395 919 447 993 447 c 0
 1079 447 1140 376 1140 300 c 0
 1140 224 1079 153 993 153 c 0
 919 153 863 205 849 268 c 1
 634 268 l 1
 554 47 l 1
 499 67 l 1
 572 268 l 1
 381 268 l 1x7c
 367 205 311 153 237 153 c 0
 151 153 90 224 90 300 c 0
 90 376 151 447 237 447 c 0x8c
EndSplineSet
EndChar

StartChar: uni22B60338
Encoding: 115 -1 115
Width: 1230
Flags: HW
HStem: 153 294<915.952 1068.31> 153 64<181.122 292.052> 268 64<374.93 572 658 855.07> 383 64<181.122 292.052> 533 20G<668.76 731>
VStem: 90 64<244.549 355.451>
LayerCount: 2
Fore
SplineSet
237 217 m 0x5c
 278 217 320 248 320 300 c 0
 320 352 278 383 237 383 c 0
 191 383 154 346 154 300 c 0
 154 254 191 217 237 217 c 0x5c
993 153 m 0x8c
 919 153 863 205 849 268 c 1
 634 268 l 1
 554 47 l 1
 499 67 l 1
 572 268 l 1
 381 268 l 1
 367 205 311 153 237 153 c 0
 151 153 90 224 90 300 c 0
 90 376 151 447 237 447 c 0
 311 447 367 395 381 332 c 1
 596 332 l 1
 676 553 l 1
 731 533 l 1
 658 332 l 1
 849 332 l 1x7c
 863 395 919 447 993 447 c 0
 1079 447 1140 376 1140 300 c 0
 1140 224 1079 153 993 153 c 0x8c
EndSplineSet
EndChar

StartChar: sym05A_uni0338
Encoding: 116 -1 116
Width: 930
Flags: HW
HStem: 65 64<90 223 293 364.434> 268 64<90 258 329 431 491.932 840> 471 64<90 294>
VStem: 431 64<203.71 268 332 398.306>
CounterMasks: 1 e0
LayerCount: 2
Fore
SplineSet
293 129 m 1
 299 129 l 2
 371 129 420 193 431 268 c 1
 317 268 l 1
 293 129 l 1
351 459 m 1
 329 332 l 1
 431 332 l 1
 423 387 394 437 351 459 c 1
331 680 m 1
 388 670 l 1
 362 523 l 1
 435 495 485 419 495 332 c 1
 840 332 l 1
 840 268 l 1
 495 268 l 1
 482 158 406 65 299 65 c 2
 282 65 l 1
 256 -80 l 1
 199 -70 l 1
 223 65 l 1
 90 65 l 1
 90 129 l 1
 234 129 l 1
 258 268 l 1
 90 268 l 1
 90 332 l 1
 270 332 l 1
 294 471 l 1
 90 471 l 1
 90 535 l 1
 299 535 l 2
 301 535 303 535 305 535 c 1
 331 680 l 1
EndSplineSet
EndChar

StartChar: uni22D40338
Encoding: 117 -1 117
Width: 937
Flags: HW
HStem: 266 64<372.71 437 501 567.132>
VStem: 234 64<-75 58 128 199.434> 437 64<-75 94 164 266 326.932 675> 639 64<-75 129>
LayerCount: 2
Fore
SplineSet
627 186 m 1
 605 229 556 258 501 266 c 1
 501 164 l 1
 627 186 l 1
298 128 m 1
 437 152 l 1
 437 266 l 1
 361 255 298 206 298 134 c 2
 298 128 l 1
99 34 m 1
 89 91 l 1
 234 117 l 1
 234 134 l 2
 234 241 327 317 437 330 c 1
 437 675 l 1
 501 675 l 1
 501 330 l 1
 588 320 663 270 691 197 c 1
 838 223 l 1
 848 166 l 1
 703 140 l 1
 703 138 703 136 703 134 c 2
 703 -75 l 1
 639 -75 l 1
 639 129 l 1
 501 105 l 1
 501 -75 l 1
 437 -75 l 1
 437 94 l 1
 298 69 l 1
 298 -75 l 1
 234 -75 l 1
 234 58 l 1
 99 34 l 1
EndSplineSet
EndChar

StartChar: sym05B_uni0338
Encoding: 118 -1 118
Width: 930
Flags: HW
HStem: 65 64<636 840> 268 64<90 438.068 499 601 672 840> 471 64<565.566 637 707 840>
VStem: 435 64<201.694 268 332 396.29>
CounterMasks: 1 e0
LayerCount: 2
Fore
SplineSet
637 471 m 1
 631 471 l 2
 559 471 510 407 499 332 c 1
 613 332 l 1
 637 471 l 1
579 141 m 1
 601 268 l 1
 499 268 l 1
 507 213 536 163 579 141 c 1
599 -80 m 1
 542 -70 l 1
 568 77 l 1
 495 105 445 181 435 268 c 1
 90 268 l 1
 90 332 l 1
 435 332 l 1
 448 442 524 535 631 535 c 2
 648 535 l 1
 674 680 l 1
 731 670 l 1
 707 535 l 1
 840 535 l 1
 840 471 l 1
 696 471 l 1
 672 332 l 1
 840 332 l 1
 840 268 l 1
 660 268 l 1
 636 129 l 1
 840 129 l 1
 840 65 l 1
 631 65 l 2
 629 65 627 65 625 65 c 1
 599 -80 l 1
EndSplineSet
EndChar

StartChar: sym059_uni0338
Encoding: 119 -1 119
Width: 937
Flags: HW
HStem: 270 64<370.694 437 501 565.183>
VStem: 234 64<471 675> 437 64<-75 273.068 334 437 507 675> 639 64<400.566 472 542 675>
LayerCount: 2
Fore
SplineSet
310 414 m 1
 332 371 381 342 437 334 c 1
 437 437 l 1
 310 414 l 1
639 472 m 1
 501 448 l 1
 501 334 l 1
 576 345 639 394 639 466 c 2
 639 472 l 1
838 566 m 1
 848 509 l 1
 703 483 l 1
 703 466 l 2
 703 359 611 283 501 270 c 1
 501 -75 l 1
 437 -75 l 1
 437 270 l 1
 350 280 274 330 246 403 c 1
 99 377 l 1
 89 434 l 1
 234 460 l 1
 234 462 234 464 234 466 c 2
 234 675 l 1
 298 675 l 1
 298 471 l 1
 437 495 l 1
 437 675 l 1
 501 675 l 1
 501 507 l 1
 639 531 l 1
 639 675 l 1
 703 675 l 1
 703 542 l 1
 838 566 l 1
EndSplineSet
EndChar

StartChar: uni21C90338
Encoding: 120 -1 120
Width: 930
Flags: HW
HStem: -11 21G<667 706.88> 124 64<90 298 383 731> 412 64<90 403 488 731>
LayerCount: 2
Fore
SplineSet
664 300 m 1
 641 323 l 1
 731 412 l 1
 465 412 l 1
 383 188 l 1
 731 188 l 1
 641 277 l 1
 664 300 l 1
481 625 m 1
 535 605 l 1
 488 476 l 1
 731 476 l 1
 641 565 l 1
 687 611 l 1
 853 444 l 1
 710 300 l 1
 853 156 l 1
 687 -11 l 1
 641 35 l 1
 731 124 l 1
 359 124 l 1
 305 -25 l 1
 251 -5 l 1
 298 124 l 1
 90 124 l 1
 90 188 l 1
 321 188 l 1
 403 412 l 1
 90 412 l 1
 90 476 l 1
 427 476 l 1
 481 625 l 1
EndSplineSet
EndChar

StartChar: uni21C80338
Encoding: 121 -1 121
Width: 820
Flags: HW
VStem: 234 64<-75 133 218 566> 522 64<-75 238 323 566>
LayerCount: 2
Fore
SplineSet
410 499 m 1
 387 476 l 1
 298 566 l 1
 298 218 l 1
 522 300 l 1
 522 566 l 1
 433 476 l 1
 410 499 l 1
105 86 m 1
 85 140 l 1
 234 194 l 1
 234 566 l 1
 145 476 l 1
 99 522 l 1
 266 688 l 1
 410 545 l 1
 554 688 l 1
 721 522 l 1
 675 476 l 1
 586 566 l 1
 586 323 l 1
 715 370 l 1
 735 316 l 1
 586 262 l 1
 586 -75 l 1
 522 -75 l 1
 522 238 l 1
 298 156 l 1
 298 -75 l 1
 234 -75 l 1
 234 133 l 1
 105 86 l 1
EndSplineSet
EndChar

StartChar: uni21C70338
Encoding: 122 -1 122
Width: 930
Flags: HW
HStem: -11 21G<223.12 263> 124 64<199 442 527 840> 412 64<199 547 632 840>
LayerCount: 2
Fore
SplineSet
266 300 m 1
 289 277 l 1
 199 188 l 1
 465 188 l 1
 547 412 l 1
 199 412 l 1
 289 323 l 1
 266 300 l 1
449 -25 m 1
 395 -5 l 1
 442 124 l 1
 199 124 l 1
 289 35 l 1
 243 -11 l 1
 77 156 l 1
 220 300 l 1
 77 444 l 1
 243 611 l 1
 289 565 l 1
 199 476 l 1
 571 476 l 1
 625 625 l 1
 679 605 l 1
 632 476 l 1
 840 476 l 1
 840 412 l 1
 609 412 l 1
 527 188 l 1
 840 188 l 1
 840 124 l 1
 503 124 l 1
 449 -25 l 1
EndSplineSet
EndChar

StartChar: uni21CA0338
Encoding: 123 -1 123
Width: 820
Flags: HW
VStem: 234 64<34 277 362 675> 522 64<34 382 467 675>
LayerCount: 2
Fore
SplineSet
410 101 m 1
 433 124 l 1
 522 34 l 1
 522 382 l 1
 298 300 l 1
 298 34 l 1
 387 124 l 1
 410 101 l 1
715 514 m 1
 735 460 l 1
 586 406 l 1
 586 34 l 1
 675 124 l 1
 721 78 l 1
 554 -88 l 1
 410 55 l 1
 266 -88 l 1
 99 78 l 1
 145 124 l 1
 234 34 l 1
 234 277 l 1
 105 230 l 1
 85 284 l 1
 234 338 l 1
 234 675 l 1
 298 675 l 1
 298 362 l 1
 522 444 l 1
 522 675 l 1
 586 675 l 1
 586 467 l 1
 715 514 l 1
EndSplineSet
EndChar

StartChar: sym05D_uni0338
Encoding: 124 -1 124
Width: 1163
Flags: HW
HStem: 409 64<754 849> 612 64<519 645>
VStem: 690 64<473 567> 894 64<237 364>
LayerCount: 2
Fore
SplineSet
722 441 m 1
 690 441 l 1
 690 567 l 1
 502 379 l 1
 602 163 l 1
 849 409 l 1
 722 409 l 1
 722 441 l 1
363 541 m 1
 415 565 l 1
 473 440 l 1
 645 612 l 1
 519 612 l 1
 519 676 l 1
 754 676 l 1
 754 473 l 1
 958 473 l 1
 958 237 l 1
 894 237 l 1
 894 364 l 1
 631 101 l 1
 698 -43 l 1
 646 -67 l 1
 588 57 l 1
 441 -90 l 1
 395 -44 l 1
 559 120 l 1
 459 336 l 1
 237 114 l 1
 192 159 l 1
 430 397 l 1
 363 541 l 1
EndSplineSet
EndChar

StartChar: sym05C_uni0338
Encoding: 125 -1 125
Width: 1163
Flags: HW
HStem: 409 64<314 409> 612 64<518 644>
VStem: 205 64<237 363> 409 64<473 567>
LayerCount: 2
Fore
SplineSet
441 441 m 1
 441 409 l 1
 314 409 l 1
 561 162 l 1
 661 379 l 1
 473 567 l 1
 473 441 l 1
 441 441 l 1
517 -67 m 1
 465 -43 l 1
 532 100 l 1
 269 363 l 1
 269 237 l 1
 205 237 l 1
 205 473 l 1
 409 473 l 1
 409 676 l 1
 644 676 l 1
 644 612 l 1
 518 612 l 1
 690 440 l 1
 748 565 l 1
 800 541 l 1
 733 397 l 1
 971 159 l 1
 926 114 l 1
 704 336 l 1
 604 119 l 1
 767 -44 l 1
 722 -90 l 1
 575 57 l 1
 517 -67 l 1
EndSplineSet
EndChar

StartChar: sym05F_uni0338
Encoding: 126 -1 126
Width: 1163
Flags: HW
HStem: -76 64<518 644> 127 64<314 409>
VStem: 205 64<237 363> 409 64<33 127>
LayerCount: 2
Fore
SplineSet
441 159 m 1
 473 159 l 1
 473 33 l 1
 661 221 l 1
 561 438 l 1
 314 191 l 1
 441 191 l 1
 441 159 l 1
800 59 m 1
 748 35 l 1
 690 160 l 1
 518 -12 l 1
 644 -12 l 1
 644 -76 l 1
 409 -76 l 1
 409 127 l 1
 205 127 l 1
 205 363 l 1
 269 363 l 1
 269 237 l 1
 532 500 l 1
 465 643 l 1
 517 667 l 1
 575 543 l 1
 722 690 l 1
 767 644 l 1
 604 481 l 1
 704 264 l 1
 926 486 l 1
 971 441 l 1
 733 203 l 1
 800 59 l 1
EndSplineSet
EndChar

StartChar: sym05E_uni0338
Encoding: 127 -1 127
Width: 1163
Flags: HW
HStem: -76 64<519 645> 127 64<754 849>
VStem: 690 64<33 127> 894 64<236 363>
LayerCount: 2
Fore
SplineSet
722 159 m 1
 722 191 l 1
 849 191 l 1
 602 437 l 1
 502 221 l 1
 690 33 l 1
 690 159 l 1
 722 159 l 1
646 667 m 1
 698 643 l 1
 631 499 l 1
 894 236 l 1
 894 363 l 1
 958 363 l 1
 958 127 l 1
 754 127 l 1
 754 -76 l 1
 519 -76 l 1
 519 -12 l 1
 645 -12 l 1
 473 160 l 1
 415 35 l 1
 363 59 l 1
 430 203 l 1
 192 441 l 1
 237 486 l 1
 459 264 l 1
 559 480 l 1
 395 644 l 1
 441 690 l 1
 588 543 l 1
 646 667 l 1
EndSplineSet
EndChar

StartChar: uni21C40338
Encoding: 128 -1 128
Width: 930
Flags: HW
HStem: -11 21G<223.12 263> 124 64<199 405 475 840> 412 64<90 455 525 731>
LayerCount: 2
Fore
SplineSet
492 621 m 1
 549 611 l 1
 525 476 l 1
 731 476 l 1
 641 565 l 1
 687 611 l 1
 853 444 l 1
 687 277 l 1
 641 323 l 1
 731 412 l 1
 514 412 l 1
 475 188 l 1
 840 188 l 1
 840 124 l 1
 463 124 l 1
 438 -21 l 1
 381 -11 l 1
 405 124 l 1
 199 124 l 1
 289 35 l 1
 243 -11 l 1
 77 156 l 1
 243 323 l 1
 289 277 l 1
 199 188 l 1
 416 188 l 1
 455 412 l 1
 90 412 l 1
 90 476 l 1
 467 476 l 1
 492 621 l 1
EndSplineSet
EndChar

StartChar: uni21C50338
Encoding: 129 -1 129
Width: 820
Flags: HW
VStem: 234 64<-75 205 290 566> 522 64<34 310 395 675>
LayerCount: 2
Fore
SplineSet
105 158 m 1
 85 212 l 1
 234 266 l 1
 234 566 l 1
 145 476 l 1
 99 522 l 1
 266 688 l 1
 433 522 l 1
 387 476 l 1
 298 566 l 1
 298 290 l 1
 522 372 l 1
 522 675 l 1
 586 675 l 1
 586 395 l 1
 715 442 l 1
 735 388 l 1
 586 334 l 1
 586 34 l 1
 675 124 l 1
 721 78 l 1
 554 -88 l 1
 387 78 l 1
 433 124 l 1
 522 34 l 1
 522 310 l 1
 298 228 l 1
 298 -75 l 1
 234 -75 l 1
 234 205 l 1
 105 158 l 1
EndSplineSet
EndChar

StartChar: sym061_uni0338
Encoding: 130 -1 130
Width: 1163
Flags: HW
HStem: -76 64<518 644> 612 64<519 645>
VStem: 409 64<33 159> 690 64<441 567>
LayerCount: 2
Fore
SplineSet
374 547 m 1
 421 580 l 1
 500 467 l 1
 645 612 l 1
 519 612 l 1
 519 676 l 1
 754 676 l 1
 754 441 l 1
 690 441 l 1
 690 567 l 1
 537 414 l 1
 667 227 l 1
 926 486 l 1
 971 441 l 1
 704 174 l 1
 789 53 l 1
 742 20 l 1
 663 133 l 1
 518 -12 l 1
 644 -12 l 1
 644 -76 l 1
 409 -76 l 1
 409 159 l 1
 473 159 l 1
 473 33 l 1
 626 186 l 1
 496 373 l 1
 237 114 l 1
 192 159 l 1
 459 426 l 1
 374 547 l 1
EndSplineSet
EndChar

StartChar: sym060_uni0338
Encoding: 131 -1 131
Width: 1163
Flags: HW
HStem: 127 64<722 849> 409 64<314 441>
VStem: 205 64<237 363> 894 64<236 363>
LayerCount: 2
Fore
SplineSet
466 -16 m 1
 414 8 l 1
 481 151 l 1
 269 363 l 1
 269 237 l 1
 205 237 l 1
 205 473 l 1
 441 473 l 1
 441 409 l 1
 314 409 l 1
 510 213 l 1
 610 429 l 1
 395 644 l 1
 441 690 l 1
 639 492 l 1
 697 616 l 1
 749 592 l 1
 682 448 l 1
 894 236 l 1
 894 363 l 1
 958 363 l 1
 958 127 l 1
 722 127 l 1
 722 191 l 1
 849 191 l 1
 653 386 l 1
 553 170 l 1
 767 -44 l 1
 722 -90 l 1
 524 108 l 1
 466 -16 l 1
EndSplineSet
EndChar

StartChar: uni21C60338
Encoding: 132 -1 132
Width: 930
Flags: HW
HStem: -11 21G<667 706.88> 124 64<90 370 455 731> 412 64<199 475 560 840>
LayerCount: 2
Fore
SplineSet
553 625 m 1
 607 605 l 1
 560 476 l 1
 840 476 l 1
 840 412 l 1
 537 412 l 1
 455 188 l 1
 731 188 l 1
 641 277 l 1
 687 323 l 1
 853 156 l 1
 687 -11 l 1
 641 35 l 1
 731 124 l 1
 431 124 l 1
 377 -25 l 1
 323 -5 l 1
 370 124 l 1
 90 124 l 1
 90 188 l 1
 393 188 l 1
 475 412 l 1
 199 412 l 1
 289 323 l 1
 243 277 l 1
 77 444 l 1
 243 611 l 1
 289 565 l 1
 199 476 l 1
 499 476 l 1
 553 625 l 1
EndSplineSet
EndChar

StartChar: uni21F50338
Encoding: 133 -1 133
Width: 820
Flags: HW
VStem: 234 64<34 240 310 675> 522 64<-75 290 360 566>
LayerCount: 2
Fore
SplineSet
99 216 m 1
 89 273 l 1
 234 298 l 1
 234 675 l 1
 298 675 l 1
 298 310 l 1
 522 349 l 1
 522 566 l 1
 433 476 l 1
 387 522 l 1
 554 688 l 1
 721 522 l 1
 675 476 l 1
 586 566 l 1
 586 360 l 1
 721 384 l 1
 731 327 l 1
 586 302 l 1
 586 -75 l 1
 522 -75 l 1
 522 290 l 1
 298 251 l 1
 298 34 l 1
 387 124 l 1
 433 78 l 1
 266 -88 l 1
 99 78 l 1
 145 124 l 1
 234 34 l 1
 234 240 l 1
 99 216 l 1
EndSplineSet
EndChar

StartChar: sym063_uni0338
Encoding: 134 -1 134
Width: 1163
Flags: HW
HStem: 127 64<314 441> 409 64<722 849>
VStem: 205 64<237 363> 894 64<237 364>
LayerCount: 2
Fore
SplineSet
414 592 m 1
 466 616 l 1
 524 492 l 1
 722 690 l 1
 767 644 l 1
 553 430 l 1
 653 214 l 1
 849 409 l 1
 722 409 l 1
 722 473 l 1
 958 473 l 1
 958 237 l 1
 894 237 l 1
 894 364 l 1
 682 152 l 1
 749 8 l 1
 697 -16 l 1
 639 108 l 1
 441 -90 l 1
 395 -44 l 1
 610 171 l 1
 510 387 l 1
 314 191 l 1
 441 191 l 1
 441 127 l 1
 205 127 l 1
 205 363 l 1
 269 363 l 1
 269 237 l 1
 481 449 l 1
 414 592 l 1
EndSplineSet
EndChar

StartChar: sym062_uni0338
Encoding: 135 -1 135
Width: 1163
Flags: HW
HStem: -76 64<519 645> 612 64<518 644>
VStem: 409 64<441 567> 690 64<33 159>
LayerCount: 2
Fore
SplineSet
421 20 m 1
 374 53 l 1
 459 174 l 1
 192 441 l 1
 237 486 l 1
 496 227 l 1
 626 414 l 1
 473 567 l 1
 473 441 l 1
 409 441 l 1
 409 676 l 1
 644 676 l 1
 644 612 l 1
 518 612 l 1
 663 467 l 1
 742 580 l 1
 789 547 l 1
 704 426 l 1
 971 159 l 1
 926 114 l 1
 667 373 l 1
 537 186 l 1
 690 33 l 1
 690 159 l 1
 754 159 l 1
 754 -76 l 1
 519 -76 l 1
 519 -12 l 1
 645 -12 l 1
 500 133 l 1
 421 20 l 1
EndSplineSet
EndChar

StartChar: uni219D0338
Encoding: 136 57883 136
Width: 930
Flags: HW
HStem: 196 64<448.918 549.324> 268 64<611.074 731> 340 64<213.312 329.448> 533 20G<446.69 509>
LayerCount: 2
Fore
SplineSet
656 268 m 2
 621 268 566 196 503 196 c 0
 465 196 431 213 402 238 c 1
 332 47 l 1
 277 67 l 1
 358 289 l 1
 337 316 309 340 274 340 c 0
 219 340 181 292 148 246 c 1
 96 282 l 1
 140 346 198 404 274 404 c 0
 315 404 352 385 382 356 c 1
 454 553 l 1
 509 533 l 1
 426 304 l 1
 446 280 472 260 503 260 c 0
 544 260 591 332 656 332 c 2
 731 332 l 1
 641 421 l 1
 687 467 l 1
 853 300 l 1
 687 133 l 1
 641 179 l 1
 731 268 l 1
 656 268 l 2
EndSplineSet
EndChar

StartChar: sym064_uni0338.alt
Encoding: 137 -1 137
Width: 676
Flags: HW
VStem: 234 64<48.312 164.448> 306 64<446.074 566> 378 64<283.918 384.324>
CounterMasks: 1 e0
LayerCount: 2
Fore
SplineSet
370 491 m 2
 370 456 442 401 442 338 c 0
 442 300 425 266 400 237 c 1
 591 167 l 1
 571 112 l 1
 349 193 l 1
 322 172 298 144 298 109 c 0
 298 54 346 16 392 -17 c 1
 356 -69 l 1
 292 -25 234 33 234 109 c 0
 234 150 253 187 282 217 c 1
 85 289 l 1
 105 344 l 1
 334 261 l 1
 358 281 378 307 378 338 c 0
 378 379 306 426 306 491 c 2
 306 566 l 1
 217 476 l 1
 171 522 l 1
 338 688 l 1
 505 522 l 1
 459 476 l 1
 370 566 l 1
 370 491 l 2
EndSplineSet
EndChar

StartChar: uni219C0338.alt
Encoding: 138 -1 138
Width: 930
Flags: HW
HStem: 196 64<600.552 716.688> 268 64<199 318.926> 340 64<380.676 481.082> 533 20G<590.67 653>
LayerCount: 2
Fore
SplineSet
274 332 m 2
 309 332 364 404 427 404 c 0
 465 404 499 387 528 362 c 1
 598 553 l 1
 653 533 l 1
 572 311 l 1
 593 284 621 260 656 260 c 0
 711 260 749 308 782 354 c 1
 834 318 l 1
 790 254 732 196 656 196 c 0
 615 196 578 215 548 244 c 1
 476 47 l 1
 421 67 l 1
 504 296 l 1
 484 320 458 340 427 340 c 0
 386 340 339 268 274 268 c 2
 199 268 l 1
 289 179 l 1
 243 133 l 1
 77 300 l 1
 243 467 l 1
 289 421 l 1
 199 332 l 1
 274 332 l 2
EndSplineSet
EndChar

StartChar: sym065_uni0338
Encoding: 139 -1 139
Width: 676
Flags: HW
VStem: 234 64<215.676 316.082> 306 64<34 153.926> 378 64<435.552 551.688>
CounterMasks: 1 e0
LayerCount: 2
Fore
SplineSet
306 109 m 2
 306 144 234 199 234 262 c 0
 234 300 251 334 276 363 c 1
 85 433 l 1
 105 488 l 1
 327 407 l 1
 354 428 378 456 378 491 c 0
 378 546 330 584 284 617 c 1
 320 669 l 1
 384 625 442 567 442 491 c 0
 442 450 423 413 394 383 c 1
 591 311 l 1
 571 256 l 1
 342 339 l 1
 318 319 298 293 298 262 c 0
 298 221 370 174 370 109 c 2
 370 34 l 1
 459 124 l 1
 505 78 l 1
 338 -88 l 1
 171 78 l 1
 217 124 l 1
 306 34 l 1
 306 109 l 2
EndSplineSet
EndChar

StartChar: uni219D0338.alt
Encoding: 140 -1 140
Width: 930
Flags: HW
HStem: 196 64<213.312 327.222> 268 64<611.074 731> 340 64<459.451 549.324> 533 20G<446.76 509>
LayerCount: 2
Fore
SplineSet
656 268 m 2
 591 268 544 340 503 340 c 0
 469 340 441 316 420 289 c 1
 332 47 l 1
 277 67 l 1
 328 207 l 1
 311 200 293 196 274 196 c 0
 198 196 140 254 96 318 c 1
 148 354 l 1
 181 308 219 260 274 260 c 0
 312 260 341 288 363 318 c 0
 366 323 370 327 374 332 c 1
 454 553 l 1
 509 533 l 1
 459 397 l 1
 473 402 488 404 503 404 c 0
 566 404 621 332 656 332 c 2
 731 332 l 1
 641 421 l 1
 687 467 l 1
 853 300 l 1
 687 133 l 1
 641 179 l 1
 731 268 l 1
 656 268 l 2
EndSplineSet
EndChar

StartChar: sym064_uni0338
Encoding: 141 -1 141
Width: 676
Flags: HW
VStem: 234 64<294.451 384.324> 306 64<446.074 566> 378 64<48.312 162.222>
CounterMasks: 1 e0
LayerCount: 2
Fore
SplineSet
370 491 m 2
 370 426 298 379 298 338 c 0
 298 304 322 276 349 255 c 1
 591 167 l 1
 571 112 l 1
 431 163 l 1
 438 146 442 128 442 109 c 0
 442 33 384 -25 320 -69 c 1
 284 -17 l 1
 330 16 378 54 378 109 c 0
 378 147 350 176 320 198 c 0
 315 201 311 205 306 209 c 1
 85 289 l 1
 105 344 l 1
 241 294 l 1
 236 308 234 323 234 338 c 0
 234 401 306 456 306 491 c 2
 306 566 l 1
 217 476 l 1
 171 522 l 1
 338 688 l 1
 505 522 l 1
 459 476 l 1
 370 566 l 1
 370 491 l 2
EndSplineSet
EndChar

StartChar: uni219C0338
Encoding: 142 -1 142
Width: 930
Flags: HW
HStem: 196 64<380.676 470.549> 268 64<199 318.926> 340 64<602.778 716.688> 533 20G<590.727 653>
LayerCount: 2
Fore
SplineSet
274 332 m 2
 339 332 386 260 427 260 c 0
 461 260 489 284 510 311 c 1
 598 553 l 1
 653 533 l 1
 602 393 l 1
 619 400 637 404 656 404 c 0
 732 404 790 346 834 282 c 1
 782 246 l 1
 749 292 711 340 656 340 c 0
 618 340 589 312 567 282 c 0
 564 277 560 273 556 268 c 1
 476 47 l 1
 421 67 l 1
 471 203 l 1
 457 198 442 196 427 196 c 0
 364 196 309 268 274 268 c 2
 199 268 l 1
 289 179 l 1
 243 133 l 1
 77 300 l 1
 243 467 l 1
 289 421 l 1
 199 332 l 1
 274 332 l 2
EndSplineSet
EndChar

StartChar: sym065_uni0338.alt
Encoding: 143 -1 143
Width: 676
Flags: HW
VStem: 234 64<437.778 551.688> 306 64<34 153.926> 378 64<215.676 305.549>
CounterMasks: 1 e0
LayerCount: 2
Fore
SplineSet
306 109 m 2
 306 174 378 221 378 262 c 0
 378 296 354 324 327 345 c 1
 85 433 l 1
 105 488 l 1
 245 437 l 1
 238 454 234 472 234 491 c 0
 234 567 292 625 356 669 c 1
 392 617 l 1
 346 584 298 546 298 491 c 0
 298 453 326 424 356 402 c 0
 361 399 365 395 370 391 c 1
 591 311 l 1
 571 256 l 1
 435 306 l 1
 440 292 442 277 442 262 c 0
 442 199 370 144 370 109 c 2
 370 34 l 1
 459 124 l 1
 505 78 l 1
 338 -88 l 1
 171 78 l 1
 217 124 l 1
 306 34 l 1
 306 109 l 2
EndSplineSet
EndChar

StartChar: uni21AD0338
Encoding: 144 -1 144
Width: 1080
Flags: HW
HStem: 196 64<599.674 698.905> 268 64<199 319.125 759.404 881> 340 64<380.14 480.326> 533 20G<593.68 656>
LayerCount: 2
Fore
SplineSet
274 332 m 2
 314 332 362 404 426 404 c 0
 466 404 501 386 530 359 c 1
 601 553 l 1
 656 533 l 1
 574 308 l 1
 595 282 621 260 654 260 c 0
 688 260 745 332 806 332 c 2
 881 332 l 1
 791 421 l 1
 837 467 l 1
 1003 300 l 1
 837 133 l 1
 791 179 l 1
 881 268 l 1
 806 268 l 2
 766 268 718 196 654 196 c 0
 614 196 579 214 550 241 c 1
 479 47 l 1
 424 67 l 1
 506 292 l 1
 485 318 459 340 426 340 c 0
 386 340 338 268 274 268 c 2
 199 268 l 1
 289 179 l 1
 243 133 l 1
 77 300 l 1
 243 467 l 1
 289 421 l 1
 199 332 l 1
 274 332 l 2
EndSplineSet
EndChar

StartChar: sym066_uni0338.alt
Encoding: 145 -1 145
Width: 676
Flags: HW
HStem: 551 21G<197 236.778 439.222 479> 743 20G<317.88 358.12>
VStem: 234 64<140.14 240.326> 306 64<-41 79.125 519.404 641> 378 64<359.674 458.905>
CounterMasks: 1 38
LayerCount: 2
Fore
SplineSet
306 34 m 2
 306 74 234 122 234 186 c 0
 234 226 252 261 279 290 c 1
 85 361 l 1
 105 416 l 1
 330 334 l 1
 356 355 378 381 378 414 c 0
 378 448 306 505 306 566 c 2
 306 641 l 1
 217 551 l 1
 171 597 l 1
 338 763 l 1
 505 597 l 1
 459 551 l 1
 370 641 l 1
 370 566 l 2
 370 526 442 478 442 414 c 0
 442 374 424 339 397 310 c 1
 591 239 l 1
 571 184 l 1
 346 266 l 1
 320 245 298 219 298 186 c 0
 298 146 370 98 370 34 c 2
 370 -41 l 1
 459 49 l 1
 505 3 l 1
 338 -163 l 1
 171 3 l 1
 217 49 l 1
 306 -41 l 1
 306 34 l 2
EndSplineSet
EndChar

StartChar: uni21AD0338.alt
Encoding: 146 -1 146
Width: 1080
Flags: HW
HStem: 196 64<380.14 473.108> 268 64<199 319.125 759.404 881> 340 64<606.892 698.905> 533 20G<593.727 656>
LayerCount: 2
Fore
SplineSet
274 332 m 2
 338 332 386 260 426 260 c 0
 472 260 503 303 517 322 c 1
 601 553 l 1
 656 533 l 1
 606 395 l 1
 621 401 637 404 654 404 c 0
 718 404 766 332 806 332 c 2
 881 332 l 1
 791 421 l 1
 837 467 l 1
 1003 300 l 1
 837 133 l 1
 791 179 l 1
 881 268 l 1
 806 268 l 2
 745 268 688 340 654 340 c 0
 608 340 577 297 563 278 c 1
 479 47 l 1
 424 67 l 1
 474 205 l 1
 459 199 443 196 426 196 c 0
 362 196 314 268 274 268 c 2
 199 268 l 1
 289 179 l 1
 243 133 l 1
 77 300 l 1
 243 467 l 1
 289 421 l 1
 199 332 l 1
 274 332 l 2
EndSplineSet
EndChar

StartChar: sym066_uni0338
Encoding: 147 -1 147
Width: 676
Flags: HW
HStem: 551 21G<197 236.778 439.222 479> 743 20G<317.88 358.12>
VStem: 234 64<366.892 458.905> 306 64<-41 79.125 519.404 641> 378 64<140.14 233.108>
CounterMasks: 1 38
LayerCount: 2
Fore
SplineSet
306 34 m 2
 306 98 378 146 378 186 c 0
 378 232 335 263 316 277 c 1
 85 361 l 1
 105 416 l 1
 243 366 l 1
 237 381 234 397 234 414 c 0
 234 478 306 526 306 566 c 2
 306 641 l 1
 217 551 l 1
 171 597 l 1
 338 763 l 1
 505 597 l 1
 459 551 l 1
 370 641 l 1
 370 566 l 2
 370 505 298 448 298 414 c 0
 298 368 341 337 360 323 c 1
 591 239 l 1
 571 184 l 1
 433 234 l 1
 439 219 442 203 442 186 c 0
 442 122 370 74 370 34 c 2
 370 -41 l 1
 459 49 l 1
 505 3 l 1
 338 -163 l 1
 171 3 l 1
 217 49 l 1
 306 -41 l 1
 306 34 l 2
EndSplineSet
EndChar

StartChar: sym069_uni0338
Encoding: 148 -1 148
Width: 930
Flags: HW
HStem: 330 64<508 559.84> 341 63<294.102 440>
LayerCount: 2
Fore
SplineSet
412 404 m 0x40
 415 404 420 404 427 404 c 0
 434 404 442 404 452 403 c 1
 480 564 l 1
 536 554 l 1
 508 394 l 1
 602 372 687 319 750 245 c 1
 760 362 l 1
 823 356 l 1
 803 121 l 1
 568 142 l 1
 574 206 l 1
 709 194 l 1
 655 262 581 310 497 330 c 1x80
 450 65 l 1
 394 75 l 1
 440 339 l 1
 436 339 426 341 412 341 c 0
 308 341 208 295 148 210 c 1
 96 246 l 1
 167 349 287 404 412 404 c 0x40
EndSplineSet
EndChar

StartChar: sym068_uni0338
Encoding: 149 -1 149
Width: 676
Flags: HW
VStem: 234 63<129.102 275> 244 64<343 394.84>
LayerCount: 2
Fore
SplineSet
234 247 m 0x80
 234 250 234 255 234 262 c 0
 234 269 234 277 235 287 c 1
 74 315 l 1
 84 371 l 1
 244 343 l 1
 266 437 319 522 393 585 c 1
 276 595 l 1
 282 658 l 1
 517 638 l 1
 496 403 l 1
 432 409 l 1
 444 544 l 1
 376 490 328 416 308 332 c 1x40
 573 285 l 1
 563 229 l 1
 299 275 l 1
 299 271 297 261 297 247 c 0
 297 143 343 43 428 -17 c 1
 392 -69 l 1
 289 2 234 122 234 247 c 0x80
EndSplineSet
EndChar

StartChar: sym067_uni0338
Encoding: 150 -1 150
Width: 930
Flags: HW
HStem: 196 63<490 635.898> 206 64<370.16 422>
LayerCount: 2
Fore
SplineSet
518 196 m 0x80
 515 196 510 196 503 196 c 0
 496 196 488 196 478 197 c 1
 450 36 l 1
 394 46 l 1
 422 206 l 1
 328 228 243 281 180 355 c 1
 170 238 l 1
 107 244 l 1
 127 479 l 1
 362 458 l 1
 356 394 l 1
 221 406 l 1
 275 338 349 290 433 270 c 1x40
 480 535 l 1
 536 525 l 1
 490 261 l 1
 494 261 504 259 518 259 c 0
 622 259 722 305 782 390 c 1
 834 354 l 1
 763 251 643 196 518 196 c 0x80
EndSplineSet
EndChar

StartChar: uni29380338
Encoding: 151 -1 151
Width: 676
Flags: HW
VStem: 368 64<205.16 257> 379 63<325 470.898>
LayerCount: 2
Fore
SplineSet
442 353 m 0x40
 442 350 442 345 442 338 c 0
 442 331 442 323 441 313 c 1
 602 285 l 1
 592 229 l 1
 432 257 l 1
 410 163 357 78 283 15 c 1
 400 5 l 1
 394 -58 l 1
 159 -38 l 1
 180 197 l 1
 244 191 l 1
 232 56 l 1
 300 110 348 184 368 268 c 1x80
 103 315 l 1
 113 371 l 1
 377 325 l 1
 377 329 379 339 379 353 c 0
 379 457 333 557 248 617 c 1
 284 669 l 1
 387 598 442 478 442 353 c 0x40
EndSplineSet
EndChar

StartChar: sym06C_uni0338
Encoding: 152 -1 152
Width: 1061
Flags: HW
HStem: 1 21G<305.5 370> 400 64<606.516 770>
VStem: 302 64<11.4407 174.341>
LayerCount: 2
Fore
SplineSet
302 62 m 0
 302 125 319 254 448 362 c 1
 354 497 l 1
 402 530 l 1
 495 396 l 1
 566 441 650 464 734 464 c 0
 746 464 758 463 770 462 c 1
 695 552 l 1
 744 593 l 1
 896 413 l 1
 715 261 l 1
 674 310 l 1
 779 398 l 1
 764 400 750 400 735 400 c 0
 663 400 593 381 532 344 c 1
 686 123 l 1
 639 90 l 1
 485 310 l 1
 450 281 366 196 366 63 c 0
 366 46 367 29 370 12 c 1
 307 1 l 1
 304 21 302 42 302 62 c 0
EndSplineSet
EndChar

StartChar: sym06B_uni0338
Encoding: 153 -1 153
Width: 1061
Flags: HW
HStem: 72 64<655.613 818.61>
VStem: 367 64<375.905 540>
LayerCount: 2
Fore
SplineSet
768 72 m 0
 722 72 578 83 467 218 c 1
 334 124 l 1
 301 171 l 1
 434 264 l 1
 389 336 367 419 367 504 c 0
 367 516 367 528 368 540 c 1
 279 465 l 1
 238 514 l 1
 418 665 l 1
 569 485 l 1
 520 444 l 1
 433 547 l 1
 431 532 431 518 431 504 c 0
 431 433 450 362 487 301 c 1
 707 456 l 1
 740 409 l 1
 520 255 l 1
 551 218 637 136 768 136 c 0
 785 136 801 137 818 140 c 1
 830 77 l 1
 809 73 789 72 768 72 c 0
EndSplineSet
EndChar

StartChar: uni29360338
Encoding: 154 -1 154
Width: 1061
Flags: HW
HStem: 136 64<291 454.484>
VStem: 695 64<425.659 588.559>
LayerCount: 2
Fore
SplineSet
759 538 m 0
 759 475 742 346 613 238 c 1
 707 103 l 1
 659 70 l 1
 566 204 l 1
 495 159 411 136 327 136 c 0
 315 136 303 136 291 137 c 1
 366 48 l 1
 317 7 l 1
 165 187 l 1
 346 339 l 1
 387 290 l 1
 283 202 l 1
 297 200 312 200 326 200 c 0
 398 200 468 219 529 256 c 1
 375 477 l 1
 422 510 l 1
 576 290 l 1
 611 319 695 404 695 537 c 0
 695 554 694 571 691 588 c 1
 754 599 l 1
 757 579 759 558 759 538 c 0
EndSplineSet
EndChar

StartChar: uni29350338
Encoding: 155 -1 155
Width: 1061
Flags: HW
HStem: 464 64<242.441 404.799>
VStem: 630 64<60 227.555>
LayerCount: 2
Fore
SplineSet
294 528 m 0
 339 528 483 517 594 382 c 1
 727 476 l 1
 760 429 l 1
 627 336 l 1
 672 264 694 181 694 96 c 0
 694 84 694 72 693 60 c 1
 782 135 l 1
 824 86 l 1
 643 -65 l 1
 492 115 l 1
 541 156 l 1
 628 53 l 1
 630 68 630 81 630 96 c 0
 630 167 612 238 575 299 c 1
 354 144 l 1
 321 191 l 1
 541 346 l 1
 485 412 395 464 293 464 c 0
 276 464 260 463 243 460 c 1
 232 523 l 1
 253 527 273 528 294 528 c 0
EndSplineSet
EndChar

StartChar: uni293B0338
Encoding: 156 -1 156
Width: 930
Flags: HW
HStem: 196 63<293.112 443> 210 61<523 561.484>
LayerCount: 2
Fore
SplineSet
466 199 m 1x40
 455 198 435 196 412 196 c 0
 287 196 167 251 96 354 c 1
 148 390 l 1
 208 305 308 259 412 259 c 0x80
 416 259 428 260 443 261 c 1
 349 519 l 1
 404 539 l 1
 502 271 l 1
 584 292 656 340 709 406 c 1
 574 394 l 1
 568 458 l 1
 803 479 l 1
 823 244 l 1
 760 238 l 1
 750 355 l 1
 690 285 611 234 523 210 c 1
 581 52 l 1
 526 33 l 1
 466 199 l 1x40
EndSplineSet
EndChar

StartChar: sym06A_uni0338
Encoding: 157 -1 157
Width: 676
Flags: HW
VStem: 367 61<358 396.484> 379 63<128.112 278>
LayerCount: 2
Fore
SplineSet
439 301 m 1x80
 440 290 442 270 442 247 c 0
 442 122 387 2 284 -69 c 1
 248 -17 l 1
 333 43 379 143 379 247 c 0x40
 379 251 378 263 377 278 c 1
 119 184 l 1
 99 239 l 1
 367 337 l 1
 346 419 298 491 232 544 c 1
 244 409 l 1
 180 403 l 1
 159 638 l 1
 394 658 l 1
 400 595 l 1
 283 585 l 1
 353 525 404 446 428 358 c 1
 586 416 l 1
 605 361 l 1
 439 301 l 1x80
EndSplineSet
EndChar

StartChar: uni293A0338
Encoding: 158 -1 158
Width: 930
Flags: HW
HStem: 329 61<368.516 407> 341 63<487 636.888>
LayerCount: 2
Fore
SplineSet
464 401 m 1x80
 475 402 495 404 518 404 c 0
 643 404 763 349 834 246 c 1
 782 210 l 1
 722 295 622 341 518 341 c 0x40
 514 341 502 340 487 339 c 1
 581 81 l 1
 526 61 l 1
 428 329 l 1
 346 308 274 260 221 194 c 1
 356 206 l 1
 362 142 l 1
 127 121 l 1
 107 356 l 1
 170 362 l 1
 180 245 l 1
 240 315 319 366 407 390 c 1
 349 548 l 1
 404 567 l 1
 464 401 l 1x80
EndSplineSet
EndChar

StartChar: uni29390338
Encoding: 159 -1 159
Width: 676
Flags: HW
VStem: 234 63<322 471.888> 248 61<203.516 242>
LayerCount: 2
Fore
SplineSet
237 299 m 1x40
 236 310 234 330 234 353 c 0
 234 478 289 598 392 669 c 1
 428 617 l 1
 343 557 297 457 297 353 c 0x80
 297 349 298 337 299 322 c 1
 557 416 l 1
 577 361 l 1
 309 263 l 1
 330 181 378 109 444 56 c 1
 432 191 l 1
 496 197 l 1
 517 -38 l 1
 282 -58 l 1
 276 5 l 1
 393 15 l 1
 323 75 272 154 248 242 c 1
 90 184 l 1
 71 239 l 1
 237 299 l 1x40
EndSplineSet
EndChar

StartChar: uni29340338
Encoding: 160 -1 160
Width: 1061
Flags: HW
HStem: 72 64<242.441 404.331>
VStem: 630 64<372.932 540>
LayerCount: 2
Fore
SplineSet
602 229 m 1
 528 132 413 72 294 72 c 0
 273 72 253 73 232 77 c 1
 243 140 l 1
 260 137 276 136 293 136 c 0
 329 136 450 145 543 257 c 1
 294 373 l 1
 318 425 l 1
 577 305 l 1
 612 365 630 434 630 504 c 0
 630 519 630 532 628 547 c 1
 541 444 l 1
 492 485 l 1
 643 665 l 1
 824 514 l 1
 782 465 l 1
 693 540 l 1
 694 528 694 516 694 504 c 0
 694 425 674 347 635 278 c 1
 787 207 l 1
 763 154 l 1
 602 229 l 1
EndSplineSet
EndChar

StartChar: sym06D_uni0338
Encoding: 161 -1 161
Width: 1061
Flags: HW
HStem: 1 21G<691 755.5> 400 64<291 454.468> 537 20G<614.719 665.6>
VStem: 695 64<11.4407 174.612>
LayerCount: 2
Fore
SplineSet
601 372 m 1
 651 333 759 230 759 62 c 0
 759 42 757 21 754 1 c 1
 691 12 l 1
 694 29 695 46 695 63 c 0
 695 106 684 220 573 312 c 1
 457 64 l 1
 405 88 l 1
 525 346 l 1
 465 382 396 400 326 400 c 0
 312 400 297 400 283 398 c 1
 387 310 l 1
 346 261 l 1
 165 413 l 1
 317 593 l 1
 366 552 l 1
 291 463 l 1
 303 464 315 464 327 464 c 0
 406 464 485 443 553 404 c 1
 624 557 l 1
 676 532 l 1
 601 372 l 1
EndSplineSet
EndChar

StartChar: sym06E_uni0338
Encoding: 162 -1 162
Width: 1061
Flags: HW
HStem: 464 64<657.016 818.61>
VStem: 367 64<60 227.068>
LayerCount: 2
Fore
SplineSet
459 371 m 1
 533 468 648 528 768 528 c 0
 789 528 809 527 830 523 c 1
 818 460 l 1
 801 463 785 464 768 464 c 0
 723 464 609 452 518 343 c 1
 767 227 l 1
 743 175 l 1
 484 295 l 1
 448 235 431 166 431 96 c 0
 431 82 431 68 433 53 c 1
 520 156 l 1
 569 115 l 1
 418 -65 l 1
 238 86 l 1
 279 135 l 1
 368 60 l 1
 367 72 367 84 367 96 c 0
 367 175 387 253 426 322 c 1
 274 393 l 1
 298 446 l 1
 459 371 l 1
EndSplineSet
EndChar

StartChar: uni29370338
Encoding: 163 -1 163
Width: 1061
Flags: HW
HStem: 136 64<606.532 770>
VStem: 302 64<425.388 588.559>
LayerCount: 2
Fore
SplineSet
460 228 m 1
 410 267 302 370 302 538 c 0
 302 558 304 579 307 599 c 1
 370 588 l 1
 367 571 366 554 366 537 c 0
 366 494 377 380 488 288 c 1
 604 536 l 1
 656 512 l 1
 536 254 l 1
 596 218 665 200 735 200 c 0
 750 200 764 200 779 202 c 1
 674 290 l 1
 715 339 l 1
 896 187 l 1
 744 7 l 1
 695 48 l 1
 770 138 l 1
 758 137 746 136 734 136 c 0
 655 136 576 157 508 196 c 1
 437 43 l 1
 385 68 l 1
 460 228 l 1
EndSplineSet
EndChar

StartChar: sym06F_uni0338
Encoding: 164 -1 164
Width: 1080
Flags: HW
HStem: 339 63<410.771 512 581 669.109>
LayerCount: 2
Fore
SplineSet
555 585 m 1
 611 575 l 1
 581 402 l 1
 701 392 813 335 892 245 c 1
 902 362 l 1
 966 356 l 1
 945 121 l 1
 711 142 l 1
 716 206 l 1
 851 194 l 1
 782 278 679 331 569 339 c 1
 525 87 l 1
 469 97 l 1
 512 339 l 1
 401 331 298 278 229 194 c 1
 364 206 l 1
 369 142 l 1
 135 121 l 1
 114 356 l 1
 178 362 l 1
 188 245 l 1
 272 341 394 399 523 404 c 1
 555 585 l 1
EndSplineSet
EndChar

StartChar: sym070_uni0338
Encoding: 165 -1 165
Width: 676
Flags: HW
VStem: 236 63<170.891 259 328 429.229>
LayerCount: 2
Fore
SplineSet
63 229 m 1
 53 285 l 1
 234 317 l 1
 239 446 297 568 393 652 c 1
 276 662 l 1
 282 726 l 1
 517 705 l 1
 496 471 l 1
 432 476 l 1
 444 611 l 1
 360 542 307 439 299 328 c 1
 541 371 l 1
 551 315 l 1
 299 271 l 1
 307 161 360 58 444 -11 c 1
 432 124 l 1
 496 129 l 1
 517 -105 l 1
 282 -126 l 1
 276 -62 l 1
 393 -52 l 1
 303 27 246 139 236 259 c 1
 63 229 l 1
EndSplineSet
EndChar

StartChar: sym071_uni0338
Encoding: 166 -1 166
Width: 1080
Flags: HW
HStem: 198 63<410.891 499 568 669.229>
LayerCount: 2
Fore
SplineSet
525 15 m 1
 469 25 l 1
 499 198 l 1
 379 208 267 265 188 355 c 1
 178 238 l 1
 114 244 l 1
 135 479 l 1
 369 458 l 1
 364 394 l 1
 229 406 l 1
 298 322 401 269 511 261 c 1
 555 513 l 1
 611 503 l 1
 568 261 l 1
 679 269 782 322 851 406 c 1
 716 394 l 1
 711 458 l 1
 945 479 l 1
 966 244 l 1
 902 238 l 1
 892 355 l 1
 808 259 686 201 557 196 c 1
 525 15 l 1
EndSplineSet
EndChar

StartChar: sym072_uni0338
Encoding: 167 -1 167
Width: 676
Flags: HW
VStem: 377 65<170.771 272 341 429.109>
LayerCount: 2
Fore
SplineSet
613 371 m 1
 623 315 l 1
 442 283 l 1
 437 154 379 32 283 -52 c 1
 400 -62 l 1
 394 -126 l 1
 159 -105 l 1
 180 129 l 1
 244 124 l 1
 232 -11 l 1
 316 58 369 161 377 272 c 1
 135 229 l 1
 125 285 l 1
 377 329 l 1
 369 439 316 542 232 611 c 1
 244 476 l 1
 180 471 l 1
 159 705 l 1
 394 726 l 1
 400 662 l 1
 283 652 l 1
 373 573 430 461 440 341 c 1
 613 371 l 1
EndSplineSet
EndChar

StartChar: sym074_uni0338
Encoding: 168 -1 168
Width: 1167
Flags: HW
HStem: 447 64<711.662 871> 525 20G<410.515 453.028>
VStem: 372 65<9.03906 171.415>
LayerCount: 2
Fore
SplineSet
392 512 m 1
 439 545 l 1
 540 401 l 1
 625 472 732 511 841 511 c 0
 851 511 861 511 871 510 c 1
 796 600 l 1
 845 641 l 1
 996 460 l 1
 816 309 l 1
 775 358 l 1
 878 445 l 1
 865 446 853 447 840 447 c 0
 744 447 651 412 577 348 c 1
 724 139 l 1
 677 106 l 1
 536 307 l 1
 472 233 437 140 437 43 c 0
 437 30 437 18 438 5 c 1
 526 109 l 1
 575 68 l 1
 423 -113 l 1
 243 39 l 1
 284 88 l 1
 373 12 l 1
 372 22 372 33 372 43 c 0
 372 160 417 273 498 361 c 1
 392 512 l 1
EndSplineSet
EndChar

StartChar: sym073_uni0338
Encoding: 169 -1 169
Width: 1167
Flags: HW
HStem: 89 64<711.662 871> 693 20G<399.316 439.796>
VStem: 372 65<428.585 590.961>
LayerCount: 2
Fore
SplineSet
439 55 m 1
 392 88 l 1
 498 239 l 1
 417 327 372 440 372 557 c 0
 372 567 372 578 373 588 c 1
 284 512 l 1
 243 561 l 1
 423 713 l 1
 575 532 l 1
 526 491 l 1
 438 595 l 1
 437 582 437 570 437 557 c 0
 437 460 472 367 536 293 c 1
 677 494 l 1
 724 461 l 1
 577 252 l 1
 651 188 744 153 840 153 c 0
 853 153 865 154 878 155 c 1
 775 242 l 1
 816 291 l 1
 996 140 l 1
 845 -41 l 1
 796 0 l 1
 871 90 l 1
 861 89 851 89 841 89 c 0
 732 89 625 128 540 199 c 1
 439 55 l 1
EndSplineSet
EndChar

StartChar: sym076_uni0338
Encoding: 170 -1 170
Width: 1167
Flags: HW
HStem: 89 64<296 455.338> 693 20G<727.204 767.684>
VStem: 730 65<428.585 590.961>
LayerCount: 2
Fore
SplineSet
775 88 m 1
 728 55 l 1
 627 199 l 1
 542 128 435 89 326 89 c 0
 316 89 306 89 296 90 c 1
 371 0 l 1
 322 -41 l 1
 171 140 l 1
 351 291 l 1
 392 242 l 1
 289 155 l 1
 302 154 314 153 327 153 c 0
 423 153 516 188 590 252 c 1
 443 461 l 1
 490 494 l 1
 631 293 l 1
 695 367 730 460 730 557 c 0
 730 570 730 582 729 595 c 1
 641 491 l 1
 592 532 l 1
 744 713 l 1
 924 561 l 1
 883 512 l 1
 794 588 l 1
 795 578 795 567 795 557 c 0
 795 440 750 327 669 239 c 1
 775 88 l 1
EndSplineSet
EndChar

StartChar: sym075_uni0338
Encoding: 171 -1 171
Width: 1167
Flags: HW
HStem: 447 64<296 455.338> 525 20G<713.972 756.485>
VStem: 730 65<9.03906 171.415>
LayerCount: 2
Fore
SplineSet
728 545 m 1
 775 512 l 1
 669 361 l 1
 750 273 795 160 795 43 c 0
 795 33 795 22 794 12 c 1
 883 88 l 1
 924 39 l 1
 744 -113 l 1
 592 68 l 1
 641 109 l 1
 729 5 l 1
 730 18 730 30 730 43 c 0
 730 140 695 233 631 307 c 1
 490 106 l 1
 443 139 l 1
 590 348 l 1
 516 412 423 447 327 447 c 0
 314 447 302 446 289 445 c 1
 392 358 l 1
 351 309 l 1
 171 460 l 1
 322 641 l 1
 371 600 l 1
 296 510 l 1
 306 511 316 511 326 511 c 0
 435 511 542 472 627 401 c 1
 728 545 l 1
EndSplineSet
EndChar

StartChar: sym077_uni0338
Encoding: 172 -1 172
Width: 930
Flags: HW
HStem: 268 64<154 422 508 840> 533 20G<518.76 581>
VStem: 90 64<124 268 332 476>
LayerCount: 2
Fore
SplineSet
526 553 m 1
 581 533 l 1
 508 332 l 1
 840 332 l 1
 840 268 l 1
 484 268 l 1
 404 47 l 1
 349 67 l 1
 422 268 l 1
 154 268 l 1
 154 124 l 1
 90 124 l 1
 90 476 l 1
 154 476 l 1
 154 332 l 1
 446 332 l 1
 526 553 l 1
EndSplineSet
EndChar

StartChar: sym078_uni0338
Encoding: 173 -1 173
Width: 930
Flags: HW
HStem: 268 64<90 422 508 776> 533 20G<518.76 581>
VStem: 776 64<124 268 332 476>
LayerCount: 2
Fore
SplineSet
404 47 m 1
 349 67 l 1
 422 268 l 1
 90 268 l 1
 90 332 l 1
 446 332 l 1
 526 553 l 1
 581 533 l 1
 508 332 l 1
 776 332 l 1
 776 476 l 1
 840 476 l 1
 840 124 l 1
 776 124 l 1
 776 268 l 1
 484 268 l 1
 404 47 l 1
EndSplineSet
EndChar

StartChar: sym079_uni0338
Encoding: 174 -1 174
Width: 1260
Flags: HW
HStem: -176 64<587 759.626> -163 63<473.03 519> 700 63<741 791.863> 712 64<498.859 673>
VStem: 154 64<171.255 431.141> 1036 63<381.778 445.172>
LayerCount: 2
Fore
SplineSet
630 712 m 0x5c
 403 712 218 527 218 300 c 0
 218 107 351 -55 530 -100 c 1
 673 710 l 1
 659 711 644 712 630 712 c 0x5c
154 300 m 0
 154 563 367 776 630 776 c 0x5c
 648 776 666 775 684 773 c 1
 697 845 l 1
 754 835 l 1
 741 763 l 1
 826 743 904 699 967 637 c 0
 1036 568 1082 479 1099 383 c 1
 1036 372 l 1
 1007 534 884 661 730 700 c 1
 587 -110 l 1
 601 -111 616 -112 630 -112 c 0
 813 -112 968 7 1022 172 c 1
 887 123 l 1
 865 183 l 1
 1086 264 l 1
 1167 42 l 1
 1107 21 l 1
 1071 120 l 1
 995 -66 816 -176 630 -176 c 0xac
 612 -176 594 -175 576 -173 c 1
 563 -245 l 1
 506 -235 l 1
 519 -163 l 1
 301 -111 154 84 154 300 c 0
EndSplineSet
EndChar

StartChar: uni21BA0338
Encoding: 175 -1 175
Width: 1260
Flags: HW
HStem: -176 64<496.621 761.141> 706 63<487.404 548.222>
VStem: 154 64<168.91 425.215> 1042 64<168.859 431.09>
LayerCount: 2
Fore
SplineSet
630 -112 m 0
 857 -112 1042 73 1042 300 c 0
 1042 387 1014 472 963 542 c 1
 334 14 l 1
 387 -41 485 -112 630 -112 c 0
810 741 m 1
 853 723 918 689 976 628 c 1
 1067 704 l 1
 1104 660 l 1
 1013 583 l 1
 1073 501 1106 402 1106 300 c 0
 1106 37 893 -176 630 -176 c 0
 575 -176 412 -164 284 -28 c 1
 193 -104 l 1
 156 -60 l 1
 247 17 l 1
 187 99 154 198 154 300 c 0
 154 527 315 728 547 769 c 1
 558 706 l 1
 363 671 218 501 218 300 c 0
 218 213 246 128 297 58 c 1
 926 586 l 1
 908 605 853 661 758 692 c 1
 807 557 l 1
 747 535 l 1
 666 756 l 1
 888 837 l 1
 909 777 l 1
 810 741 l 1
EndSplineSet
EndChar

StartChar: uni27F20338
Encoding: 176 -1 176
Width: 1260
Flags: HW
HStem: -176 64<587 761.141> -163 63<468.137 519> 700 63<741 786.97> 712 64<500.374 673>
VStem: 161 63<154.828 218.222> 1042 64<168.859 428.745>
LayerCount: 2
Fore
SplineSet
630 -112 m 0xac
 857 -112 1042 73 1042 300 c 0
 1042 493 909 655 730 700 c 1
 587 -110 l 1
 601 -111 616 -112 630 -112 c 0xac
189 480 m 1
 265 666 444 776 630 776 c 0x5c
 648 776 666 775 684 773 c 1
 697 845 l 1
 754 835 l 1
 741 763 l 1
 959 711 1106 516 1106 300 c 0
 1106 37 893 -176 630 -176 c 0xac
 612 -176 594 -175 576 -173 c 1
 563 -245 l 1
 506 -235 l 1
 519 -163 l 1
 434 -143 356 -99 293 -37 c 0
 224 32 178 121 161 217 c 1
 224 228 l 1
 253 66 376 -61 530 -100 c 1
 673 710 l 1
 659 711 644 712 630 712 c 0x5c
 447 712 292 593 238 428 c 1
 373 477 l 1
 395 417 l 1
 174 336 l 1
 93 558 l 1
 153 579 l 1
 189 480 l 1
EndSplineSet
EndChar

StartChar: sym07C_uni0338
Encoding: 177 -1 177
Width: 1260
Flags: HW
HStem: -169 63<711.778 772.596> 712 64<498.859 763.379>
VStem: 154 64<168.91 431.141> 1042 64<174.785 431.09>
LayerCount: 2
Fore
SplineSet
630 712 m 0
 403 712 218 527 218 300 c 0
 218 213 246 128 297 58 c 1
 926 586 l 1
 873 641 775 712 630 712 c 0
630 776 m 0
 685 776 848 764 976 628 c 1
 1067 704 l 1
 1104 660 l 1
 1013 583 l 1
 1073 501 1106 402 1106 300 c 0
 1106 73 945 -128 713 -169 c 1
 702 -106 l 1
 897 -71 1042 99 1042 300 c 0
 1042 387 1014 472 963 542 c 1
 334 14 l 1
 352 -5 407 -61 502 -92 c 1
 453 43 l 1
 513 65 l 1
 594 -156 l 1
 372 -237 l 1
 351 -177 l 1
 450 -141 l 1
 407 -123 342 -89 284 -28 c 1
 193 -104 l 1
 156 -60 l 1
 247 17 l 1
 187 99 154 198 154 300 c 0
 154 563 367 776 630 776 c 0
EndSplineSet
EndChar

StartChar: uni27F30338
Encoding: 178 -1 178
Width: 1260
Flags: HW
HStem: -176 64<587 755.215> -163 63<473.03 519> 700 63<741 792.409> 712 64<498.859 673>
VStem: 154 64<171.255 431.141> 1036 63<157.404 218.222>
LayerCount: 2
Fore
SplineSet
630 712 m 0x5c
 403 712 218 527 218 300 c 0
 218 107 351 -55 530 -100 c 1
 673 710 l 1
 659 711 644 712 630 712 c 0x5c
154 300 m 0
 154 563 367 776 630 776 c 0x5c
 648 776 666 775 684 773 c 1
 697 845 l 1
 754 835 l 1
 741 763 l 1
 804 748 987 687 1071 480 c 1
 1107 579 l 1
 1167 558 l 1
 1086 336 l 1
 865 417 l 1
 887 477 l 1
 1022 428 l 1
 1008 472 938 648 730 700 c 1
 587 -110 l 1
 601 -111 616 -112 630 -112 c 0
 831 -112 1001 33 1036 228 c 1
 1099 217 l 1
 1058 -15 857 -176 630 -176 c 0xac
 612 -176 594 -175 576 -173 c 1
 563 -245 l 1
 506 -235 l 1
 519 -163 l 1
 301 -111 154 84 154 300 c 0
EndSplineSet
EndChar

StartChar: uni21BB0338
Encoding: 179 -1 179
Width: 1260
Flags: HW
HStem: -176 64<496.621 761.141> 706 63<711.778 777.024>
VStem: 154 64<168.91 429.626> 1042 64<168.859 431.09>
LayerCount: 2
Fore
SplineSet
630 -112 m 0
 857 -112 1042 73 1042 300 c 0
 1042 387 1014 472 963 542 c 1
 334 14 l 1
 387 -41 485 -112 630 -112 c 0
713 769 m 1
 771 759 883 727 976 628 c 1
 1067 704 l 1
 1104 660 l 1
 1013 583 l 1
 1073 501 1106 402 1106 300 c 0
 1106 37 893 -176 630 -176 c 0
 575 -176 412 -164 284 -28 c 1
 193 -104 l 1
 156 -60 l 1
 247 17 l 1
 187 99 154 198 154 300 c 0
 154 486 264 665 450 741 c 1
 351 777 l 1
 372 837 l 1
 594 756 l 1
 513 535 l 1
 453 557 l 1
 502 692 l 1
 337 638 218 483 218 300 c 0
 218 213 246 128 297 58 c 1
 926 586 l 1
 866 648 792 690 702 706 c 1
 713 769 l 1
EndSplineSet
EndChar

StartChar: sym07A_uni0338
Encoding: 180 -1 180
Width: 1260
Flags: HW
HStem: -176 64<587 761.141> -163 63<467.591 519> 700 63<741 786.97> 712 64<504.785 673>
VStem: 161 63<381.778 442.596> 1042 64<168.859 428.745>
LayerCount: 2
Fore
SplineSet
630 -112 m 0xac
 857 -112 1042 73 1042 300 c 0
 1042 493 909 655 730 700 c 1
 587 -110 l 1
 601 -111 616 -112 630 -112 c 0xac
161 383 m 1
 202 615 403 776 630 776 c 0x5c
 648 776 666 775 684 773 c 1
 697 845 l 1
 754 835 l 1
 741 763 l 1
 959 711 1106 516 1106 300 c 0
 1106 37 893 -176 630 -176 c 0xac
 612 -176 594 -175 576 -173 c 1
 563 -245 l 1
 506 -235 l 1
 519 -163 l 1
 456 -148 273 -87 189 120 c 1
 153 21 l 1
 93 42 l 1
 174 264 l 1
 395 183 l 1
 373 123 l 1
 238 172 l 1
 252 128 322 -48 530 -100 c 1
 673 710 l 1
 659 711 644 712 630 712 c 0x5c
 429 712 259 567 224 372 c 1
 161 383 l 1
EndSplineSet
EndChar

StartChar: sym07B_uni0338
Encoding: 181 -1 181
Width: 1260
Flags: HW
HStem: -169 63<482.976 548.222> 712 64<498.859 763.379>
VStem: 154 64<168.91 431.141> 1042 64<170.374 431.09>
LayerCount: 2
Fore
SplineSet
630 712 m 0
 403 712 218 527 218 300 c 0
 218 213 246 128 297 58 c 1
 926 586 l 1
 873 641 775 712 630 712 c 0
630 776 m 0
 685 776 848 764 976 628 c 1
 1067 704 l 1
 1104 660 l 1
 1013 583 l 1
 1073 501 1106 402 1106 300 c 0
 1106 114 996 -65 810 -141 c 1
 909 -177 l 1
 888 -237 l 1
 666 -156 l 1
 747 65 l 1
 807 43 l 1
 758 -92 l 1
 923 -38 1042 117 1042 300 c 0
 1042 387 1014 472 963 542 c 1
 334 14 l 1
 394 -48 468 -90 558 -106 c 1
 547 -169 l 1
 489 -159 377 -127 284 -28 c 1
 193 -104 l 1
 156 -60 l 1
 247 17 l 1
 187 99 154 198 154 300 c 0
 154 563 367 776 630 776 c 0
EndSplineSet
EndChar

StartChar: uni21DB0338
Encoding: 182 -1 182
Width: 1080
Flags: HW
HStem: 154 52<90 312 392 766> 274 52<90 356 436 887> 394 52<90 400 480 766>
CounterMasks: 1 e0
LayerCount: 2
Fore
SplineSet
887 274 m 1
 417 274 l 1
 392 206 l 1
 819 206 l 1
 887 274 l 1
819 394 m 1
 461 394 l 1
 436 326 l 1
 887 326 l 1
 819 394 l 1
489 639 m 1
 543 620 l 1
 480 446 l 1
 766 446 l 1
 719 493 l 1
 765 539 l 1
 1003 300 l 1
 765 61 l 1
 719 107 l 1
 766 154 l 1
 373 154 l 1
 303 -39 l 1
 249 -20 l 1
 312 154 l 1
 90 154 l 1
 90 206 l 1
 331 206 l 1
 356 274 l 1
 90 274 l 1
 90 326 l 1
 375 326 l 1
 400 394 l 1
 90 394 l 1
 90 446 l 1
 419 446 l 1
 489 639 l 1
EndSplineSet
EndChar

StartChar: uni290A0338
Encoding: 183 -1 183
Width: 849
Flags: HW
HStem: 743 20G<404 444.084>
VStem: 279 51<-150 72 152 527> 399 51<-150 116 196 647> 519 51<-150 160 240 527>
CounterMasks: 1 70
LayerCount: 2
Fore
SplineSet
450 647 m 1
 450 196 l 1
 519 221 l 1
 519 578 l 1
 450 647 l 1
330 579 m 1
 330 152 l 1
 399 177 l 1
 399 648 l 1
 330 579 l 1
105 9 m 1
 85 63 l 1
 279 134 l 1
 279 527 l 1
 231 479 l 1
 186 525 l 1
 424 763 l 1
 663 525 l 1
 618 479 l 1
 570 527 l 1
 570 240 l 1
 744 303 l 1
 764 249 l 1
 570 178 l 1
 570 -150 l 1
 519 -150 l 1
 519 160 l 1
 450 135 l 1
 450 -150 l 1
 399 -150 l 1
 399 116 l 1
 330 91 l 1
 330 -150 l 1
 279 -150 l 1
 279 72 l 1
 105 9 l 1
EndSplineSet
EndChar

StartChar: uni21DA0338
Encoding: 184 -1 184
Width: 1080
Flags: HW
HStem: 154 52<314 600 680 990> 274 52<193 644 724 990> 394 52<314 688 768 990>
CounterMasks: 1 e0
LayerCount: 2
Fore
SplineSet
193 326 m 1
 663 326 l 1
 688 394 l 1
 261 394 l 1
 193 326 l 1
261 206 m 1
 619 206 l 1
 644 274 l 1
 193 274 l 1
 261 206 l 1
591 -39 m 1
 537 -20 l 1
 600 154 l 1
 314 154 l 1
 361 107 l 1
 315 61 l 1
 77 300 l 1
 315 539 l 1
 361 493 l 1
 314 446 l 1
 707 446 l 1
 777 639 l 1
 831 620 l 1
 768 446 l 1
 990 446 l 1
 990 394 l 1
 749 394 l 1
 724 326 l 1
 990 326 l 1
 990 274 l 1
 705 274 l 1
 680 206 l 1
 990 206 l 1
 990 154 l 1
 661 154 l 1
 591 -39 l 1
EndSplineSet
EndChar

StartChar: uni290B0338
Encoding: 185 -1 185
Width: 849
Flags: HW
VStem: 279 51<73 360 440 750> 399 51<-47 404 484 750> 519 51<73 448 528 750>
CounterMasks: 1 e0
LayerCount: 2
Fore
SplineSet
399 -48 m 1
 399 404 l 1
 330 379 l 1
 330 21 l 1
 399 -48 l 1
519 22 m 1
 519 448 l 1
 450 423 l 1
 450 -47 l 1
 519 22 l 1
744 591 m 1
 764 537 l 1
 570 466 l 1
 570 73 l 1
 618 121 l 1
 663 75 l 1
 424 -163 l 1
 186 75 l 1
 231 121 l 1
 279 73 l 1
 279 360 l 1
 105 297 l 1
 85 351 l 1
 279 422 l 1
 279 750 l 1
 330 750 l 1
 330 440 l 1
 399 465 l 1
 399 750 l 1
 450 750 l 1
 450 484 l 1
 519 509 l 1
 519 750 l 1
 570 750 l 1
 570 528 l 1
 744 591 l 1
EndSplineSet
EndChar

StartChar: uni27F60338
Encoding: 186 -1 186
Width: 1680
Flags: HW
HStem: 268 64<90 725 811 1481> 533 20G<821.76 884>
LayerCount: 2
Fore
SplineSet
829 553 m 1
 884 533 l 1
 811 332 l 1
 1481 332 l 1
 1391 421 l 1
 1437 467 l 1
 1603 300 l 1
 1437 133 l 1
 1391 179 l 1
 1481 268 l 1
 787 268 l 1
 707 47 l 1
 652 67 l 1
 725 268 l 1
 90 268 l 1
 90 332 l 1
 749 332 l 1
 829 553 l 1
EndSplineSet
EndChar

StartChar: uni27F50338
Encoding: 187 -1 187
Width: 1680
Flags: HW
HStem: 268 64<199 869 955 1590> 533 20G<965.76 1028>
LayerCount: 2
Fore
SplineSet
851 47 m 1
 796 67 l 1
 869 268 l 1
 199 268 l 1
 289 179 l 1
 243 133 l 1
 77 300 l 1
 243 467 l 1
 289 421 l 1
 199 332 l 1
 893 332 l 1
 973 553 l 1
 1028 533 l 1
 955 332 l 1
 1590 332 l 1
 1590 268 l 1
 931 268 l 1
 851 47 l 1
EndSplineSet
EndChar

StartChar: uni27F90338
Encoding: 188 -1 188
Width: 1680
Flags: HW
HStem: -11 21G<560 621.302> 178 64<90 621 706 1391> 358 64<90 686 772 1391>
LayerCount: 2
Fore
SplineSet
1455 358 m 1
 748 358 l 1
 706 242 l 1
 1455 242 l 1
 1513 300 l 1
 1455 358 l 1
778 611 m 1
 833 591 l 1
 772 422 l 1
 1391 422 l 1
 1348 465 l 1
 1393 510 l 1
 1603 300 l 1
 1393 90 l 1
 1348 135 l 1
 1391 178 l 1
 683 178 l 1
 614 -11 l 1
 560 9 l 1
 621 178 l 1
 90 178 l 1
 90 242 l 1
 644 242 l 1
 686 358 l 1
 90 358 l 1
 90 422 l 1
 710 422 l 1
 778 611 l 1
EndSplineSet
EndChar

StartChar: uni27F80338
Encoding: 189 -1 189
Width: 1680
Flags: HW
HStem: -11 21G<848 909.302> 178 64<289 909 994 1590> 358 64<289 974 1060 1590>
LayerCount: 2
Fore
SplineSet
225 242 m 1
 932 242 l 1
 974 358 l 1
 225 358 l 1
 167 300 l 1
 225 242 l 1
902 -11 m 1
 848 9 l 1
 909 178 l 1
 289 178 l 1
 332 135 l 1
 287 90 l 1
 77 300 l 1
 287 510 l 1
 332 465 l 1
 289 422 l 1
 998 422 l 1
 1066 611 l 1
 1121 591 l 1
 1060 422 l 1
 1590 422 l 1
 1590 358 l 1
 1036 358 l 1
 994 242 l 1
 1590 242 l 1
 1590 178 l 1
 971 178 l 1
 902 -11 l 1
EndSplineSet
EndChar

StartChar: uni27F70338
Encoding: 190 -1 190
Width: 1680
Flags: HW
HStem: 268 64<199 797 883 1481> 533 20G<893.76 956>
LayerCount: 2
Fore
SplineSet
901 553 m 1
 956 533 l 1
 883 332 l 1
 1481 332 l 1
 1391 421 l 1
 1437 467 l 1
 1603 300 l 1
 1437 133 l 1
 1391 179 l 1
 1481 268 l 1
 859 268 l 1
 779 47 l 1
 724 67 l 1
 797 268 l 1
 199 268 l 1
 289 179 l 1
 243 133 l 1
 77 300 l 1
 243 467 l 1
 289 421 l 1
 199 332 l 1
 821 332 l 1
 901 553 l 1
EndSplineSet
EndChar

StartChar: uni27FA0338
Encoding: 191 -1 191
Width: 1680
Flags: HW
HStem: -11 21G<704 765.302> 178 64<289 765 850 1391> 358 64<289 830 916 1391>
LayerCount: 2
Fore
SplineSet
225 358 m 1
 167 300 l 1
 225 242 l 1
 788 242 l 1
 830 358 l 1
 225 358 l 1
1455 358 m 1
 892 358 l 1
 850 242 l 1
 1455 242 l 1
 1513 300 l 1
 1455 358 l 1
922 611 m 1
 977 591 l 1
 916 422 l 1
 1391 422 l 1
 1348 465 l 1
 1393 510 l 1
 1603 300 l 1
 1393 90 l 1
 1348 135 l 1
 1391 178 l 1
 827 178 l 1
 758 -11 l 1
 704 9 l 1
 765 178 l 1
 289 178 l 1
 332 135 l 1
 287 90 l 1
 77 300 l 1
 287 510 l 1
 332 465 l 1
 289 422 l 1
 854 422 l 1
 922 611 l 1
EndSplineSet
EndChar

StartChar: uni27FC0338
Encoding: 192 -1 192
Width: 1680
Flags: HW
HStem: 268 64<154 725 811 1481> 533 20G<821.76 884>
VStem: 90 64<124 268 332 476>
LayerCount: 2
Fore
SplineSet
829 553 m 1
 884 533 l 1
 811 332 l 1
 1481 332 l 1
 1391 421 l 1
 1437 467 l 1
 1603 300 l 1
 1437 133 l 1
 1391 179 l 1
 1481 268 l 1
 787 268 l 1
 707 47 l 1
 652 67 l 1
 725 268 l 1
 154 268 l 1
 154 124 l 1
 90 124 l 1
 90 476 l 1
 154 476 l 1
 154 332 l 1
 749 332 l 1
 829 553 l 1
EndSplineSet
EndChar

StartChar: uni27FB0338
Encoding: 193 -1 193
Width: 1680
Flags: HW
HStem: 268 64<199 869 955 1526> 533 20G<965.76 1028>
VStem: 1526 64<124 268 332 476>
LayerCount: 2
Fore
SplineSet
851 47 m 1
 796 67 l 1
 869 268 l 1
 199 268 l 1
 289 179 l 1
 243 133 l 1
 77 300 l 1
 243 467 l 1
 289 421 l 1
 199 332 l 1
 893 332 l 1
 973 553 l 1
 1028 533 l 1
 955 332 l 1
 1526 332 l 1
 1526 476 l 1
 1590 476 l 1
 1590 124 l 1
 1526 124 l 1
 1526 268 l 1
 931 268 l 1
 851 47 l 1
EndSplineSet
EndChar

StartChar: uni27FE0338
Encoding: 194 -1 194
Width: 1680
Flags: HW
HStem: -11 21G<560 621.302> 178 64<154 621 706 1391> 358 64<154 686 772 1391>
VStem: 90 64<81 178 242 358 422 519>
LayerCount: 2
Fore
SplineSet
1455 358 m 1
 748 358 l 1
 706 242 l 1
 1455 242 l 1
 1513 300 l 1
 1455 358 l 1
154 358 m 1
 154 242 l 1
 644 242 l 1
 686 358 l 1
 154 358 l 1
778 611 m 1
 833 591 l 1
 772 422 l 1
 1391 422 l 1
 1348 465 l 1
 1393 510 l 1
 1603 300 l 1
 1393 90 l 1
 1348 135 l 1
 1391 178 l 1
 683 178 l 1
 614 -11 l 1
 560 9 l 1
 621 178 l 1
 154 178 l 1
 154 81 l 1
 90 81 l 1
 90 519 l 1
 154 519 l 1
 154 422 l 1
 710 422 l 1
 778 611 l 1
EndSplineSet
EndChar

StartChar: uni27FD0338
Encoding: 195 -1 195
Width: 1680
Flags: HW
HStem: -11 21G<848 909.302> 178 64<289 909 994 1526> 358 64<289 974 1060 1526>
VStem: 1526 64<81 178 242 358 422 519>
LayerCount: 2
Fore
SplineSet
225 242 m 1
 932 242 l 1
 974 358 l 1
 225 358 l 1
 167 300 l 1
 225 242 l 1
1526 242 m 1
 1526 358 l 1
 1036 358 l 1
 994 242 l 1
 1526 242 l 1
902 -11 m 1
 848 9 l 1
 909 178 l 1
 289 178 l 1
 332 135 l 1
 287 90 l 1
 77 300 l 1
 287 510 l 1
 332 465 l 1
 289 422 l 1
 998 422 l 1
 1066 611 l 1
 1121 591 l 1
 1060 422 l 1
 1526 422 l 1
 1526 519 l 1
 1590 519 l 1
 1590 81 l 1
 1526 81 l 1
 1526 178 l 1
 971 178 l 1
 902 -11 l 1
EndSplineSet
EndChar

StartChar: uni27FF0338
Encoding: 196 -1 196
Width: 1680
Flags: HW
HStem: 196 64<411.393 500.607 811.026 901.189 1212.81 1296.6> 268 64<1353.71 1481> 340 64<203.953 300.189 611.811 701.18 1012.39 1101.61> 533 20G<821.736 884>
LayerCount: 2
Fore
SplineSet
730 282 m 1
 707 314 689 340 656 340 c 0
 623 340 602 309 582 282 c 0
 551 237 510 196 456 196 c 0
 402 196 361 237 330 282 c 0
 310 309 289 340 256 340 c 0
 205 340 178 288 148 246 c 1
 96 282 l 1
 137 341 185 404 256 404 c 0
 309 404 351 363 382 318 c 0
 401 291 423 260 456 260 c 0
 489 260 511 291 530 318 c 0
 561 363 603 404 656 404 c 0
 696 404 729 382 756 352 c 1
 829 553 l 1
 884 533 l 1
 798 297 l 1
 813 277 832 260 857 260 c 0
 890 260 911 291 931 318 c 0
 962 363 1003 404 1057 404 c 0
 1111 404 1152 363 1183 318 c 0
 1203 291 1224 260 1257 260 c 0
 1295 260 1322 332 1391 332 c 2
 1481 332 l 1
 1391 421 l 1
 1437 467 l 1
 1603 300 l 1
 1437 133 l 1
 1391 179 l 1
 1481 268 l 1
 1391 268 l 2
 1355 268 1326 196 1257 196 c 0
 1204 196 1162 237 1131 282 c 0
 1112 309 1090 340 1057 340 c 0
 1024 340 1002 309 983 282 c 0
 952 237 910 196 857 196 c 0
 825 196 798 210 774 231 c 1
 707 47 l 1
 652 67 l 1
 730 282 l 1
EndSplineSet
EndChar

StartChar: uni2B330338
Encoding: 197 -1 197
Width: 1680
Flags: HW
HStem: 196 64<383.401 467.189 778.811 843.758 1179.39 1268.61> 268 64<199 326.292> 340 64<578.393 667.607 978.744 1068.19 1379.81 1476.05> 533 20G<965.72 1028>
LayerCount: 2
Fore
SplineSet
289 332 m 2
 358 332 385 260 423 260 c 0
 456 260 477 291 497 318 c 0
 528 363 569 404 623 404 c 0
 677 404 718 363 749 318 c 0
 769 291 790 260 823 260 c 0
 846 260 863 274 878 292 c 1
 973 553 l 1
 1028 533 l 1
 977 393 l 1
 991 400 1007 404 1024 404 c 0
 1077 404 1119 363 1150 318 c 0
 1169 291 1191 260 1224 260 c 0
 1257 260 1279 291 1298 318 c 0
 1329 363 1371 404 1424 404 c 0
 1495 404 1543 341 1584 282 c 1
 1532 246 l 1
 1502 288 1475 340 1424 340 c 0
 1391 340 1370 309 1350 282 c 0
 1319 237 1278 196 1224 196 c 0
 1170 196 1129 237 1098 282 c 0
 1078 309 1057 340 1024 340 c 0
 990 340 969 309 950 282 c 0
 942 271 934 261 925 251 c 1
 851 47 l 1
 796 67 l 1
 844 198 l 1
 837 197 830 196 823 196 c 0
 770 196 728 237 697 282 c 0
 678 309 656 340 623 340 c 0
 590 340 568 309 549 282 c 0
 518 237 476 196 423 196 c 0
 354 196 325 268 289 268 c 2
 199 268 l 1
 289 179 l 1
 243 133 l 1
 77 300 l 1
 243 467 l 1
 289 421 l 1
 199 332 l 1
 289 332 l 2
EndSplineSet
EndChar

StartChar: uni27DD0338
Encoding: 198 -1 198
Width: 1680
Flags: HW
HStem: 268 64<154 797 883 1590> 533 20G<893.76 956>
VStem: 90 64<124 268 332 476>
LayerCount: 2
Fore
SplineSet
901 553 m 1
 956 533 l 1
 883 332 l 1
 1590 332 l 1
 1590 268 l 1
 859 268 l 1
 779 47 l 1
 724 67 l 1
 797 268 l 1
 154 268 l 1
 154 124 l 1
 90 124 l 1
 90 476 l 1
 154 476 l 1
 154 332 l 1
 821 332 l 1
 901 553 l 1
EndSplineSet
EndChar

StartChar: uni27DE0338
Encoding: 199 -1 199
Width: 1680
Flags: HW
HStem: 268 64<90 797 883 1526> 533 20G<893.76 956>
VStem: 1526 64<124 268 332 476>
LayerCount: 2
Fore
SplineSet
779 47 m 1
 724 67 l 1
 797 268 l 1
 90 268 l 1
 90 332 l 1
 821 332 l 1
 901 553 l 1
 956 533 l 1
 883 332 l 1
 1526 332 l 1
 1526 476 l 1
 1590 476 l 1
 1590 124 l 1
 1526 124 l 1
 1526 268 l 1
 859 268 l 1
 779 47 l 1
EndSplineSet
EndChar

StartChar: uni22AC
Encoding: 224 8876 200
Width: 840
Flags: HW
HStem: 0 18G<90 154 331 391.354> 322 64<154 414 490 750> 690 17G<90 154 512.63 573>
VStem: 90 64<0 322 386 707>
LayerCount: 2
Fore
SplineSet
518 710 m 1
 573 695 l 1
 490 386 l 1
 750 386 l 1
 750 322 l 1
 473 322 l 1
 386 -3 l 1
 331 12 l 1
 414 322 l 1
 154 322 l 1
 154 0 l 1
 90 0 l 1
 90 707 l 1
 154 707 l 1
 154 386 l 1
 431 386 l 1
 518 710 l 1
EndSplineSet
EndChar

StartChar: uni22A50338
Encoding: 225 -1 201
Width: 840
Flags: HW
HStem: 0 64<90 388 452 750> 687 20G<388 452>
VStem: 388 64<64 343 428 707>
LayerCount: 2
Fore
SplineSet
105 240 m 1
 85 294 l 1
 388 404 l 1
 388 707 l 1
 452 707 l 1
 452 428 l 1
 735 531 l 1
 755 477 l 1
 452 367 l 1
 452 64 l 1
 750 64 l 1
 750 0 l 1
 90 0 l 1
 90 64 l 1
 388 64 l 1
 388 343 l 1
 105 240 l 1
EndSplineSet
EndChar

StartChar: uni22A30338
Encoding: 226 -1 202
Width: 840
Flags: HW
HStem: 0 18G<267 327.354 686 750> 322 64<90 350 426 686> 690 17G<448.63 509 686 750>
VStem: 686 64<0 322 386 707>
LayerCount: 2
Fore
SplineSet
322 -3 m 1
 267 12 l 1
 350 322 l 1
 90 322 l 1
 90 386 l 1
 367 386 l 1
 454 710 l 1
 509 695 l 1
 426 386 l 1
 686 386 l 1
 686 707 l 1
 750 707 l 1
 750 0 l 1
 686 0 l 1
 686 322 l 1
 409 322 l 1
 322 -3 l 1
EndSplineSet
EndChar

StartChar: uni22A40338
Encoding: 227 -1 203
Width: 840
Flags: HW
HStem: 0 21G<388 452> 643 64<90 388 452 750>
VStem: 388 64<0 279 364 643>
LayerCount: 2
Fore
SplineSet
735 467 m 1
 755 413 l 1
 452 303 l 1
 452 0 l 1
 388 0 l 1
 388 279 l 1
 105 176 l 1
 85 230 l 1
 388 340 l 1
 388 643 l 1
 90 643 l 1
 90 707 l 1
 750 707 l 1
 750 643 l 1
 452 643 l 1
 452 364 l 1
 735 467 l 1
EndSplineSet
EndChar

StartChar: uni22A60338
Encoding: 228 -1 204
Width: 642
Flags: HW
HStem: 0 18G<90 154 232 292.354> 322 64<154 315 391 552> 690 17G<90 154 413.63 474>
VStem: 90 64<0 322 386 707>
LayerCount: 2
Fore
SplineSet
419 710 m 1
 474 695 l 1
 391 386 l 1
 552 386 l 1
 552 322 l 1
 374 322 l 1
 287 -3 l 1
 232 12 l 1
 315 322 l 1
 154 322 l 1
 154 0 l 1
 90 0 l 1
 90 707 l 1
 154 707 l 1
 154 386 l 1
 332 386 l 1
 419 710 l 1
EndSplineSet
EndChar

StartChar: uni2AE00338
Encoding: 229 -1 205
Width: 840
Flags: HW
HStem: 0 64<90 388 452 750>
VStem: 388 64<64 237 322 495>
LayerCount: 2
Fore
SplineSet
105 134 m 1
 85 188 l 1
 388 298 l 1
 388 495 l 1
 452 495 l 1
 452 322 l 1
 735 425 l 1
 755 371 l 1
 452 261 l 1
 452 64 l 1
 750 64 l 1
 750 0 l 1
 90 0 l 1
 90 64 l 1
 388 64 l 1
 388 237 l 1
 105 134 l 1
EndSplineSet
EndChar

StartChar: uni2ADE0338
Encoding: 230 -1 206
Width: 642
Flags: HW
HStem: 0 18G<168 228.354 488 552> 322 64<90 251 327 488> 690 17G<349.63 410 488 552>
VStem: 488 64<0 322 386 707>
LayerCount: 2
Fore
SplineSet
223 -3 m 1
 168 12 l 1
 251 322 l 1
 90 322 l 1
 90 386 l 1
 268 386 l 1
 355 710 l 1
 410 695 l 1
 327 386 l 1
 488 386 l 1
 488 707 l 1
 552 707 l 1
 552 0 l 1
 488 0 l 1
 488 322 l 1
 310 322 l 1
 223 -3 l 1
EndSplineSet
EndChar

StartChar: uni2ADF0338
Encoding: 231 -1 207
Width: 840
Flags: HW
HStem: 0 21G<388 452> 431 64<90 388 452 750>
VStem: 388 64<0 173 258 431>
LayerCount: 2
Fore
SplineSet
735 361 m 1
 755 307 l 1
 452 197 l 1
 452 0 l 1
 388 0 l 1
 388 173 l 1
 105 70 l 1
 85 124 l 1
 388 234 l 1
 388 431 l 1
 90 431 l 1
 90 495 l 1
 750 495 l 1
 750 431 l 1
 452 431 l 1
 452 258 l 1
 735 361 l 1
EndSplineSet
EndChar

StartChar: uni22AD
Encoding: 232 8877 208
Width: 840
Flags: HW
HStem: 0 18G<90 154 331 391.362> 232 64<154 390 466 750> 412 64<154 438 514 750> 690 17G<90 154 512.615 573>
VStem: 90 64<0 232 296 412 476 707>
LayerCount: 2
Fore
SplineSet
154 412 m 1
 154 296 l 1
 407 296 l 1
 438 412 l 1
 154 412 l 1
518 710 m 1
 573 695 l 1
 514 476 l 1
 750 476 l 1
 750 412 l 1
 497 412 l 1
 466 296 l 1
 750 296 l 1
 750 232 l 1
 449 232 l 1
 386 -3 l 1
 331 12 l 1
 390 232 l 1
 154 232 l 1
 154 0 l 1
 90 0 l 1
 90 707 l 1
 154 707 l 1
 154 476 l 1
 455 476 l 1
 518 710 l 1
EndSplineSet
EndChar

StartChar: uni2AEB0338
Encoding: 233 -1 209
Width: 840
Flags: HW
HStem: 0 64<90 298 362 478 542 750> 687 20G<298 362 478 542>
VStem: 298 64<64 310 395 707> 478 64<64 376 461 707>
LayerCount: 2
Fore
SplineSet
362 64 m 1
 478 64 l 1
 478 376 l 1
 362 334 l 1
 362 64 l 1
105 240 m 1
 85 294 l 1
 298 372 l 1
 298 707 l 1
 362 707 l 1
 362 395 l 1
 478 437 l 1
 478 707 l 1
 542 707 l 1
 542 461 l 1
 735 531 l 1
 755 477 l 1
 542 399 l 1
 542 64 l 1
 750 64 l 1
 750 0 l 1
 90 0 l 1
 90 64 l 1
 298 64 l 1
 298 310 l 1
 105 240 l 1
EndSplineSet
EndChar

StartChar: uni2AE40338
Encoding: 234 -1 210
Width: 840
Flags: HW
HStem: 0 18G<267 327.362 686 750> 232 64<90 326 402 686> 412 64<90 374 450 686> 690 17G<448.615 509 686 750>
VStem: 686 64<0 232 296 412 476 707>
LayerCount: 2
Fore
SplineSet
686 296 m 1
 686 412 l 1
 433 412 l 1
 402 296 l 1
 686 296 l 1
322 -3 m 1
 267 12 l 1
 326 232 l 1
 90 232 l 1
 90 296 l 1
 343 296 l 1
 374 412 l 1
 90 412 l 1
 90 476 l 1
 391 476 l 1
 454 710 l 1
 509 695 l 1
 450 476 l 1
 686 476 l 1
 686 707 l 1
 750 707 l 1
 750 0 l 1
 686 0 l 1
 686 232 l 1
 385 232 l 1
 322 -3 l 1
EndSplineSet
EndChar

StartChar: uni2AEA0338
Encoding: 235 -1 211
Width: 840
Flags: HW
HStem: 0 21G<298 362 478 542> 643 64<90 298 362 478 542 750>
VStem: 298 64<0 246 331 643> 478 64<0 312 397 643>
LayerCount: 2
Fore
SplineSet
478 643 m 1
 362 643 l 1
 362 331 l 1
 478 373 l 1
 478 643 l 1
735 467 m 1
 755 413 l 1
 542 335 l 1
 542 0 l 1
 478 0 l 1
 478 312 l 1
 362 270 l 1
 362 0 l 1
 298 0 l 1
 298 246 l 1
 105 176 l 1
 85 230 l 1
 298 308 l 1
 298 643 l 1
 90 643 l 1
 90 707 l 1
 750 707 l 1
 750 643 l 1
 542 643 l 1
 542 397 l 1
 735 467 l 1
EndSplineSet
EndChar

StartChar: uni22A70338
Encoding: 236 -1 212
Width: 642
Flags: HW
HStem: 0 18G<90 154 232 292.362> 232 64<154 291 367 552> 412 64<154 339 415 552> 690 17G<90 154 413.615 474>
VStem: 90 64<0 232 296 412 476 707>
LayerCount: 2
Fore
SplineSet
154 412 m 1
 154 296 l 1
 308 296 l 1
 339 412 l 1
 154 412 l 1
419 710 m 1
 474 695 l 1
 415 476 l 1
 552 476 l 1
 552 412 l 1
 398 412 l 1
 367 296 l 1
 552 296 l 1
 552 232 l 1
 350 232 l 1
 287 -3 l 1
 232 12 l 1
 291 232 l 1
 154 232 l 1
 154 0 l 1
 90 0 l 1
 90 707 l 1
 154 707 l 1
 154 476 l 1
 356 476 l 1
 419 710 l 1
EndSplineSet
EndChar

StartChar: sym07E_uni0338
Encoding: 237 -1 213
Width: 840
Flags: HW
HStem: 0 64<90 298 362 478 542 750>
VStem: 298 64<64 204 289 495> 478 64<64 270 355 495>
LayerCount: 2
Fore
SplineSet
362 64 m 1
 478 64 l 1
 478 270 l 1
 362 228 l 1
 362 64 l 1
105 134 m 1
 85 188 l 1
 298 266 l 1
 298 495 l 1
 362 495 l 1
 362 289 l 1
 478 331 l 1
 478 495 l 1
 542 495 l 1
 542 355 l 1
 735 425 l 1
 755 371 l 1
 542 293 l 1
 542 64 l 1
 750 64 l 1
 750 0 l 1
 90 0 l 1
 90 64 l 1
 298 64 l 1
 298 204 l 1
 105 134 l 1
EndSplineSet
EndChar

StartChar: sym07D_uni0338
Encoding: 238 -1 214
Width: 642
Flags: HW
HStem: 0 18G<168 228.362 488 552> 232 64<90 227 303 488> 412 64<90 275 351 488> 690 17G<349.615 410 488 552>
VStem: 488 64<0 232 296 412 476 707>
LayerCount: 2
Fore
SplineSet
488 296 m 1
 488 412 l 1
 334 412 l 1
 303 296 l 1
 488 296 l 1
223 -3 m 1
 168 12 l 1
 227 232 l 1
 90 232 l 1
 90 296 l 1
 244 296 l 1
 275 412 l 1
 90 412 l 1
 90 476 l 1
 292 476 l 1
 355 710 l 1
 410 695 l 1
 351 476 l 1
 488 476 l 1
 488 707 l 1
 552 707 l 1
 552 0 l 1
 488 0 l 1
 488 232 l 1
 286 232 l 1
 223 -3 l 1
EndSplineSet
EndChar

StartChar: sym07F_uni0338
Encoding: 239 -1 215
Width: 840
Flags: HW
HStem: 0 21G<298 362 478 542> 431 64<90 298 362 478 542 750>
VStem: 298 64<0 140 225 431> 478 64<0 206 291 431>
LayerCount: 2
Fore
SplineSet
478 431 m 1
 362 431 l 1
 362 225 l 1
 478 267 l 1
 478 431 l 1
735 361 m 1
 755 307 l 1
 542 229 l 1
 542 0 l 1
 478 0 l 1
 478 206 l 1
 362 164 l 1
 362 0 l 1
 298 0 l 1
 298 140 l 1
 105 70 l 1
 85 124 l 1
 298 202 l 1
 298 431 l 1
 90 431 l 1
 90 495 l 1
 750 495 l 1
 750 431 l 1
 542 431 l 1
 542 291 l 1
 735 361 l 1
EndSplineSet
EndChar

StartChar: uni22AE
Encoding: 240 8878 216
Width: 1038
Flags: HW
HStem: 0 21G<90 154 288 352 529 589.354> 322 64<352 612 688 948> 687 20G<90 154 288 352 710.63 771>
VStem: 90 64<0 707> 288 64<0 322 386 707>
LayerCount: 2
Fore
SplineSet
154 0 m 1
 90 0 l 1
 90 707 l 1
 154 707 l 1
 154 0 l 1
716 710 m 1
 771 695 l 1
 688 386 l 1
 948 386 l 1
 948 322 l 1
 671 322 l 1
 584 -3 l 1
 529 12 l 1
 612 322 l 1
 352 322 l 1
 352 0 l 1
 288 0 l 1
 288 707 l 1
 352 707 l 1
 352 386 l 1
 629 386 l 1
 716 710 l 1
EndSplineSet
EndChar

StartChar: uni234A0338
Encoding: 241 -1 217
Width: 840
Flags: HW
HStem: -106 64<90 750> 92 64<90 388 452 750>
VStem: 388 64<156 442 527 813>
LayerCount: 2
Fore
SplineSet
750 -42 m 1
 750 -106 l 1
 90 -106 l 1
 90 -42 l 1
 750 -42 l 1
105 339 m 1
 85 393 l 1
 388 503 l 1
 388 813 l 1
 452 813 l 1
 452 527 l 1
 735 630 l 1
 755 576 l 1
 452 466 l 1
 452 156 l 1
 750 156 l 1
 750 92 l 1
 90 92 l 1
 90 156 l 1
 388 156 l 1
 388 442 l 1
 105 339 l 1
EndSplineSet
EndChar

StartChar: uni2AE30338
Encoding: 242 -1 218
Width: 1038
Flags: HW
HStem: 0 21G<267 327.354 686 750 884 948> 322 64<90 350 426 686> 687 20G<448.63 509 686 750 884 948>
VStem: 686 64<0 322 386 707> 884 64<0 707>
LayerCount: 2
Fore
SplineSet
884 707 m 1
 948 707 l 1
 948 0 l 1
 884 0 l 1
 884 707 l 1
322 -3 m 1
 267 12 l 1
 350 322 l 1
 90 322 l 1
 90 386 l 1
 367 386 l 1
 454 710 l 1
 509 695 l 1
 426 386 l 1
 686 386 l 1
 686 707 l 1
 750 707 l 1
 750 0 l 1
 686 0 l 1
 686 322 l 1
 409 322 l 1
 322 -3 l 1
EndSplineSet
EndChar

StartChar: uni23510338
Encoding: 243 -1 219
Width: 840
Flags: HW
HStem: 551 64<90 388 452 750> 749 64<90 750>
VStem: 388 64<-106 180 265 551>
LayerCount: 2
Fore
SplineSet
90 749 m 1
 90 813 l 1
 750 813 l 1
 750 749 l 1
 90 749 l 1
735 368 m 1
 755 314 l 1
 452 204 l 1
 452 -106 l 1
 388 -106 l 1
 388 180 l 1
 105 77 l 1
 85 131 l 1
 388 241 l 1
 388 551 l 1
 90 551 l 1
 90 615 l 1
 750 615 l 1
 750 551 l 1
 452 551 l 1
 452 265 l 1
 735 368 l 1
EndSplineSet
EndChar

StartChar: uni22AE.alt
Encoding: 244 -1 220
Width: 840
Flags: HW
HStem: 0 21G<90 154 288 352 430 490.354> 322 64<352 513 589 750> 687 20G<90 154 288 352 611.63 672>
VStem: 90 64<0 707> 288 64<0 322 386 707>
LayerCount: 2
Fore
SplineSet
154 0 m 1
 90 0 l 1
 90 707 l 1
 154 707 l 1
 154 0 l 1
617 710 m 1
 672 695 l 1
 589 386 l 1
 750 386 l 1
 750 322 l 1
 572 322 l 1
 485 -3 l 1
 430 12 l 1
 513 322 l 1
 352 322 l 1
 352 0 l 1
 288 0 l 1
 288 707 l 1
 352 707 l 1
 352 386 l 1
 530 386 l 1
 617 710 l 1
EndSplineSet
EndChar

StartChar: uni2AE80338
Encoding: 245 -1 221
Width: 840
Flags: HW
HStem: 0 64<90 750> 198 64<90 388 452 750> 687 20G<388 452>
VStem: 388 64<262 442 527 707>
LayerCount: 2
Fore
SplineSet
750 64 m 1
 750 0 l 1
 90 0 l 1
 90 64 l 1
 750 64 l 1
105 339 m 1
 85 393 l 1
 388 503 l 1
 388 707 l 1
 452 707 l 1
 452 527 l 1
 735 630 l 1
 755 576 l 1
 452 466 l 1
 452 262 l 1
 750 262 l 1
 750 198 l 1
 90 198 l 1
 90 262 l 1
 388 262 l 1
 388 442 l 1
 105 339 l 1
EndSplineSet
EndChar

StartChar: uni2AE30338.alt
Encoding: 246 -1 222
Width: 840
Flags: HW
HStem: 0 21G<168 228.354 488 552 686 750> 322 64<90 251 327 488> 687 20G<349.63 410 488 552 686 750>
VStem: 488 64<0 322 386 707> 686 64<0 707>
LayerCount: 2
Fore
SplineSet
686 707 m 1
 750 707 l 1
 750 0 l 1
 686 0 l 1
 686 707 l 1
223 -3 m 1
 168 12 l 1
 251 322 l 1
 90 322 l 1
 90 386 l 1
 268 386 l 1
 355 710 l 1
 410 695 l 1
 327 386 l 1
 488 386 l 1
 488 707 l 1
 552 707 l 1
 552 0 l 1
 488 0 l 1
 488 322 l 1
 310 322 l 1
 223 -3 l 1
EndSplineSet
EndChar

StartChar: uni2AE70338
Encoding: 247 -1 223
Width: 840
Flags: HW
HStem: 0 21G<388 452> 445 64<90 388 452 750> 643 64<90 750>
VStem: 388 64<0 180 265 445>
LayerCount: 2
Fore
SplineSet
90 643 m 1
 90 707 l 1
 750 707 l 1
 750 643 l 1
 90 643 l 1
735 368 m 1
 755 314 l 1
 452 204 l 1
 452 0 l 1
 388 0 l 1
 388 180 l 1
 105 77 l 1
 85 131 l 1
 388 241 l 1
 388 445 l 1
 90 445 l 1
 90 509 l 1
 750 509 l 1
 750 445 l 1
 452 445 l 1
 452 265 l 1
 735 368 l 1
EndSplineSet
EndChar

StartChar: uni22AF
Encoding: 248 8879 224
Width: 1038
Flags: HW
HStem: 0 21G<90 154 288 352 529 589.362> 232 64<352 588 664 948> 412 64<352 636 712 948> 687 20G<90 154 288 352 710.615 771>
VStem: 90 64<0 707> 288 64<0 232 296 412 476 707>
LayerCount: 2
Fore
SplineSet
352 412 m 1
 352 296 l 1
 605 296 l 1
 636 412 l 1
 352 412 l 1
154 0 m 1
 90 0 l 1
 90 707 l 1
 154 707 l 1
 154 0 l 1
716 710 m 1
 771 695 l 1
 712 476 l 1
 948 476 l 1
 948 412 l 1
 695 412 l 1
 664 296 l 1
 948 296 l 1
 948 232 l 1
 647 232 l 1
 584 -3 l 1
 529 12 l 1
 588 232 l 1
 352 232 l 1
 352 0 l 1
 288 0 l 1
 288 707 l 1
 352 707 l 1
 352 476 l 1
 653 476 l 1
 716 710 l 1
EndSplineSet
EndChar

StartChar: sym080_uni0338
Encoding: 249 -1 225
Width: 840
Flags: HW
HStem: -106 64<90 750> 92 64<90 298 362 478 542 750>
VStem: 298 64<156 409 494 813> 478 64<156 475 560 813>
LayerCount: 2
Fore
SplineSet
362 156 m 1
 478 156 l 1
 478 475 l 1
 362 433 l 1
 362 156 l 1
750 -42 m 1
 750 -106 l 1
 90 -106 l 1
 90 -42 l 1
 750 -42 l 1
105 339 m 1
 85 393 l 1
 298 471 l 1
 298 813 l 1
 362 813 l 1
 362 494 l 1
 478 536 l 1
 478 813 l 1
 542 813 l 1
 542 560 l 1
 735 630 l 1
 755 576 l 1
 542 498 l 1
 542 156 l 1
 750 156 l 1
 750 92 l 1
 90 92 l 1
 90 156 l 1
 298 156 l 1
 298 409 l 1
 105 339 l 1
EndSplineSet
EndChar

StartChar: uni2AE50338
Encoding: 250 -1 226
Width: 1038
Flags: HW
HStem: 0 21G<267 327.362 686 750 884 948> 232 64<90 326 402 686> 412 64<90 374 450 686> 687 20G<448.615 509 686 750 884 948>
VStem: 686 64<0 232 296 412 476 707> 884 64<0 707>
LayerCount: 2
Fore
SplineSet
686 296 m 1
 686 412 l 1
 433 412 l 1
 402 296 l 1
 686 296 l 1
884 707 m 1
 948 707 l 1
 948 0 l 1
 884 0 l 1
 884 707 l 1
322 -3 m 1
 267 12 l 1
 326 232 l 1
 90 232 l 1
 90 296 l 1
 343 296 l 1
 374 412 l 1
 90 412 l 1
 90 476 l 1
 391 476 l 1
 454 710 l 1
 509 695 l 1
 450 476 l 1
 686 476 l 1
 686 707 l 1
 750 707 l 1
 750 0 l 1
 686 0 l 1
 686 232 l 1
 385 232 l 1
 322 -3 l 1
EndSplineSet
EndChar

StartChar: sym081_uni0338
Encoding: 251 -1 227
Width: 840
Flags: HW
HStem: 551 64<90 298 362 478 542 750> 749 64<90 750>
VStem: 298 64<-106 147 232 551> 478 64<-106 213 298 551>
LayerCount: 2
Fore
SplineSet
478 551 m 1
 362 551 l 1
 362 232 l 1
 478 274 l 1
 478 551 l 1
90 749 m 1
 90 813 l 1
 750 813 l 1
 750 749 l 1
 90 749 l 1
735 368 m 1
 755 314 l 1
 542 236 l 1
 542 -106 l 1
 478 -106 l 1
 478 213 l 1
 362 171 l 1
 362 -106 l 1
 298 -106 l 1
 298 147 l 1
 105 77 l 1
 85 131 l 1
 298 209 l 1
 298 551 l 1
 90 551 l 1
 90 615 l 1
 750 615 l 1
 750 551 l 1
 542 551 l 1
 542 298 l 1
 735 368 l 1
EndSplineSet
EndChar

StartChar: uni22AA0338
Encoding: 252 -1 228
Width: 1038
Flags: HW
HStem: 0 21G<90 154 288 352 486 550 628 688.354> 322 64<550 711 787 948> 687 20G<90 154 288 352 486 550 809.63 870>
VStem: 90 64<0 707> 288 64<0 707> 486 64<0 322 386 707>
CounterMasks: 1 1c
LayerCount: 2
Fore
SplineSet
154 0 m 1
 90 0 l 1
 90 707 l 1
 154 707 l 1
 154 0 l 1
352 0 m 1
 288 0 l 1
 288 707 l 1
 352 707 l 1
 352 0 l 1
815 710 m 1
 870 695 l 1
 787 386 l 1
 948 386 l 1
 948 322 l 1
 770 322 l 1
 683 -3 l 1
 628 12 l 1
 711 322 l 1
 550 322 l 1
 550 0 l 1
 486 0 l 1
 486 707 l 1
 550 707 l 1
 550 386 l 1
 728 386 l 1
 815 710 l 1
EndSplineSet
EndChar

StartChar: sym082_uni0338
Encoding: 253 -1 229
Width: 1038
Flags: HW
HStem: 0 21G<168 228.354 488 552 686 750 884 948> 322 64<90 251 327 488> 687 20G<349.63 410 488 552 686 750 884 948>
VStem: 488 64<0 322 386 707> 686 64<0 707> 884 64<0 707>
CounterMasks: 1 1c
LayerCount: 2
Fore
SplineSet
884 707 m 1
 948 707 l 1
 948 0 l 1
 884 0 l 1
 884 707 l 1
686 707 m 1
 750 707 l 1
 750 0 l 1
 686 0 l 1
 686 707 l 1
223 -3 m 1
 168 12 l 1
 251 322 l 1
 90 322 l 1
 90 386 l 1
 268 386 l 1
 355 710 l 1
 410 695 l 1
 327 386 l 1
 488 386 l 1
 488 707 l 1
 552 707 l 1
 552 0 l 1
 488 0 l 1
 488 322 l 1
 310 322 l 1
 223 -3 l 1
EndSplineSet
EndChar

StartChar: uni2AE20338
Encoding: 254 -1 230
Width: 840
Flags: HW
HStem: 0 18G<90 154 331 391.379> 142 64<154 366 442 750> 322 64<154 414 490 750> 502 64<154 462 538 750> 690 17G<90 154 512.583 573>
VStem: 90 64<0 142 206 322 386 502 566 707>
LayerCount: 2
Fore
SplineSet
154 386 m 1
 431 386 l 1
 462 502 l 1
 154 502 l 1
 154 386 l 1
154 206 m 1
 383 206 l 1
 414 322 l 1
 154 322 l 1
 154 206 l 1
518 710 m 1
 573 695 l 1
 538 566 l 1
 750 566 l 1
 750 502 l 1
 521 502 l 1
 490 386 l 1
 750 386 l 1
 750 322 l 1
 473 322 l 1
 442 206 l 1
 750 206 l 1
 750 142 l 1
 425 142 l 1
 386 -3 l 1
 331 12 l 1
 366 142 l 1
 154 142 l 1
 154 0 l 1
 90 0 l 1
 90 707 l 1
 154 707 l 1
 154 566 l 1
 479 566 l 1
 518 710 l 1
EndSplineSet
EndChar

StartChar: sym083_uni0338
Encoding: 255 -1 231
Width: 840
Flags: HW
HStem: 0 18G<267 327.379 686 750> 142 64<90 302 378 686> 322 64<90 350 426 686> 502 64<90 398 474 686> 690 17G<448.583 509 686 750>
VStem: 686 64<0 142 206 322 386 502 566 707>
LayerCount: 2
Fore
SplineSet
686 322 m 1
 409 322 l 1
 378 206 l 1
 686 206 l 1
 686 322 l 1
686 502 m 1
 457 502 l 1
 426 386 l 1
 686 386 l 1
 686 502 l 1
322 -3 m 1
 267 12 l 1
 302 142 l 1
 90 142 l 1
 90 206 l 1
 319 206 l 1
 350 322 l 1
 90 322 l 1
 90 386 l 1
 367 386 l 1
 398 502 l 1
 90 502 l 1
 90 566 l 1
 415 566 l 1
 454 710 l 1
 509 695 l 1
 474 566 l 1
 686 566 l 1
 686 707 l 1
 750 707 l 1
 750 0 l 1
 686 0 l 1
 686 142 l 1
 361 142 l 1
 322 -3 l 1
EndSplineSet
EndChar
